<?xml version="1.0" encoding="UTF-8"?>
<svg id="Camada_2" data-name="Camada 2" xmlns="http://www.w3.org/2000/svg" viewBox="0 0 694.47 89.41">
  <defs>
    <style>
      .cls-1 {
        fill: #de1a59;
      }
    </style>
  </defs>
  <g id="Camada_1-2" data-name="Camada 1">
    <g>
      <g>
        <path class="cls-1" d="M122.76,66.38l6.85-43.28h51.2l-1.6,10.11h-36.42l-1.01,6.38h32.35l-1.64,10.38h-32.35l-1,6.31h36.42l-1.6,10.11h-51.2Z"/>
        <path class="cls-1" d="M205.25,23.1l13.63,12.89,17.77-12.89h20.75l-30.3,21.71,23.24,21.57h-20.75l-13.51-12.75-17.48,12.75h-20.75l30-21.57-23.35-21.71h20.75Z"/>
        <path class="cls-1" d="M296.09,23.03c10.31,0,17.15,6.04,15.87,14.52-1.24,8.27-10.23,14.04-20.33,14.04h-19.53l-2.34,14.79h-14.78l6.87-43.35h34.25ZM291.73,41.55c6.1,0,7.31-8.48,1.28-8.48h-17.97l-1.34,8.48h18.04Z"/>
        <path class="cls-1" d="M313.53,66.31l6.86-43.35h50.32l-.99,6.24h-41.51l-1.92,12.14h36.89l-1.05,6.65h-36.89l-1.92,12.14h41.51l-.98,6.17h-50.32Z"/>
        <path class="cls-1" d="M371.34,66.24l6.85-43.28h36.62c8,0,15.6,4.27,14.57,12.96-1.1,6.92-7.45,11.06-14.04,12.01l9.76,18.45h-4.88l-9.66-18.18h-32.08l-2.86,18.04h-4.27ZM412.39,44.67c5.49,0,11.73-2.58,12.71-8.75.2-1.29.07-2.57-.43-3.73-1.12-3.19-4.52-5.7-10.43-5.7h-32.35l-2.88,18.18h33.37Z"/>
        <path class="cls-1" d="M441.33,23.03l-6.87,43.35h-4.27l6.87-43.35h4.27Z"/>
        <path class="cls-1" d="M450.14,23.1h52.15l-.56,3.53h-47.88l-2.59,16.35h42.93l-.56,3.53h-42.93l-2.59,16.35h47.88l-.56,3.53h-52.15l6.85-43.28Z"/>
        <path class="cls-1" d="M509.79,22.96h7.26l35.57,32.77,5.19-32.77h8.75l-6.88,43.42h-7.19l-35.57-32.77-5.19,32.77h-8.82l6.88-43.42Z"/>
        <path class="cls-1" d="M607.7,22.35c12.41,0,21.81,4,27.67,12.01l-11.42,6.17c-2.44-2.98-7.2-8.07-17.24-8.07-8.55,0-18.72,4.27-19.98,12.28-1.27,8,7.75,12.28,16.23,12.28,10.78,0,16.02-4.82,19.99-8l9.07,6.51c-8.81,8.07-18.99,11.53-31.4,11.53-15.87,0-30.89-7.94-28.67-22.39,2.27-14.31,18.93-22.32,35.75-22.32Z"/>
        <path class="cls-1" d="M636.41,66.38l6.85-43.28h51.2l-1.6,10.11h-36.42l-1.01,6.38h32.35l-1.64,10.38h-32.35l-1,6.31h36.42l-1.6,10.11h-51.2Z"/>
      </g>
      <g>
        <path class="cls-1" d="M100.53,4.96l-11.81,84.45H4.26c-.55,0-.81-.68-.39-1.04l15.79-13.86h55.72c.3,0,.55-.22.59-.51l2.01-14.39h-39.75c-.55,0-.81-.68-.39-1.04l15.79-13.86h26.43l3.7-26.43,15.78-13.84c.42-.36,1.06-.02.98.53Z"/>
        <path class="cls-1" d="M24.56,15.41l-2.01,14.39h39.75c.55,0,.81.68.39,1.04l-15.79,13.86h-26.43l-3.7,26.43L.99,84.98c-.42.36-1.06.02-.98-.53L11.82,0h84.45c.55,0,.81.68.39,1.04l-15.79,13.86H25.15c-.3,0-.55.22-.59.51Z"/>
      </g>
    </g>
  </g>
</svg>