<svg version="1.1" xmlns="http://www.w3.org/2000/svg" style="display: block;" viewBox="0 0 2048 2048" width="1254" height="1254" preserveAspectRatio="none">
<path transform="translate(0,0)" fill="rgb(242,5,103)" d="M 0 0 L 122.924 0 L 273.251 0 L 417.758 0 L 581.593 0 L 718.052 0 L 857.96 0 L 1006.25 0 L 1156.76 0 L 1304.67 0 L 1444.76 0 L 1584.1 0 L 1735.92 0 L 1902.49 0 L 2048 0 L 2048 40.7943 L 2048 203.338 L 2048 364.88 L 2048 528.505 L 2048 690.46 L 2048 849.781 L 2048 1009.44 L 2048 1168.53 L 2048 1330.5 L 2048 1492.34 L 2048 1656.87 L 2048 1821.85 L 2048 1986.78 L 2048 2048 L 1939.07 2048 L 1782.44 2048 L 1630.31 2048 L 1481.07 2048 L 1331.5 2048 L 1168.78 2048 L 1009.5 2048 L 859.151 2048 L 714.758 2048 L 556.338 2048 L 396.299 2048 L 247.823 2048 L 99.8 2048 L 0 2048 L 0 1985.7 L 0 1821.92 L 0 1656.56 L 0 1493.48 L 0 1329.69 L 0 1167 L 0 1006.74 L 0 847.771 L 0 686.371 L 0 524.813 L 0 364.773 L 0 205.319 L 0 55.2908 L 0 0 z"/>
<path transform="translate(0,0)" fill="rgb(252,226,201)" d="M 0 205.319 C 28.9707 202.856 81.417 190.56 112.467 184.724 C 105.861 232.946 95.7379 300.178 83.352 346.962 C 138.92 336.742 176.08 334.123 232.018 350.439 C 221.908 391.941 218.322 471.085 222.851 513.36 C 168.826 498.567 132.077 491.986 75.3149 503.386 C 71.9478 442.816 73.3157 405.649 83.4832 346.766 C 56.3207 352.949 27.3151 359.803 0 364.773 L 0 205.319 z"/>
<path transform="translate(0,0)" fill="rgb(252,226,201)" d="M 1774.61 1481.65 C 1838.21 1466.79 1866.84 1464.89 1931.29 1469.35 C 1931.5 1523.74 1928.77 1578.11 1923.11 1632.21 C 1867.32 1623.75 1813.5 1634.81 1759.64 1647.08 C 1766.73 1589.08 1772.98 1540.1 1774.61 1481.65 z"/>
<path transform="translate(0,0)" fill="rgb(252,226,201)" d="M 1748 507.708 C 1764.95 504.922 1780.97 501.278 1798.38 498.783 C 1836.31 493.352 1866.5 495.142 1904.07 498.972 C 1900.8 558.45 1905.57 606.233 1913.98 664.412 C 1863.23 658.95 1809.27 657.537 1759.52 671.395 C 1750.65 610.151 1744.25 570.796 1748 507.708 z"/>
<path transform="translate(0,0)" fill="rgb(252,226,201)" d="M 1173.78 179.989 C 1235.7 172.681 1266.28 174.155 1327.97 182.718 C 1327.68 248.961 1323.8 277.917 1312.44 342.086 C 1258.93 330.665 1203.49 333.231 1149.7 339.462 C 1162.41 283.87 1172.34 237.089 1173.78 179.989 z"/>
<path transform="translate(0,0)" fill="rgb(252,226,201)" d="M 405.908 704.101 C 439.162 701.922 468.296 697.318 500.684 689.203 C 507.984 687.374 548.736 676.072 553.654 676.593 C 554.942 678.184 554.768 677.517 555.151 679.324 C 569.235 736.602 575.846 775.518 575.109 834.454 C 525.243 847.558 470.275 864.764 419.175 868.04 C 425.039 814.661 416.385 756.315 405.908 704.101 z"/>
<path transform="translate(0,0)" fill="rgb(252,226,201)" d="M 237.072 1170.89 C 289.574 1185.54 330.855 1195.98 386.456 1195.96 C 388.617 1232.3 394.653 1269.07 401.034 1304.9 C 404.03 1321.73 406.965 1341.82 410.633 1358.1 C 372.296 1359.26 340.35 1357.65 302.497 1349.97 C 287.02 1346.83 271.231 1342.41 256.16 1339.4 C 249.275 1286.37 237.066 1224.14 237.072 1170.89 z"/>
<path transform="translate(0,0)" fill="rgb(252,226,201)" d="M 1445.94 1841.25 C 1493.75 1851.72 1542.91 1854.57 1591.61 1849.72 L 1599.8 1848.86 C 1604.9 1903.73 1612.91 1952.49 1623.11 2006.72 C 1570.64 2015.12 1526.6 2015.34 1473.78 2009.1 C 1465.48 1961.27 1452.39 1914.24 1448.1 1865.64 C 1447.39 1857.55 1446.78 1849.31 1445.94 1841.25 z"/>
<path transform="translate(0,0)" fill="rgb(252,226,201)" d="M 267.057 847.779 C 313.485 861.663 370.775 872.457 419.175 868.04 C 417.608 880.252 416.328 892.585 415.019 904.837 C 410.424 947.84 400.958 990.294 395.182 1033.07 C 333.884 1032.91 305.567 1024.41 247.728 1007.65 C 248.938 1003.47 249.487 997.979 250.176 993.583 C 257.77 945.168 265.259 896.819 267.057 847.779 z"/>
<path transform="translate(0,0)" fill="rgb(252,226,201)" d="M 1616.43 380.807 C 1669.92 372.749 1718.48 353.938 1770.33 342.004 C 1763.63 388.007 1748.08 463.821 1748 507.708 C 1719.49 513.274 1686.27 523.147 1657.51 530.192 C 1636.62 535.28 1615.47 539.3 1594.17 542.235 C 1596.23 479.634 1607.17 440.18 1616.43 380.807 z"/>
<path transform="translate(0,0)" fill="rgb(252,226,201)" d="M 1780.03 829.237 C 1795.16 827.923 1811.47 824.153 1827.97 822.878 C 1866 819.938 1895.69 823.035 1932.96 827.735 C 1933.23 880.2 1929.1 932.596 1920.61 984.371 C 1856.84 978.308 1829.1 979.306 1766.52 991.699 C 1775.47 937.688 1782.81 884.101 1780.03 829.237 z"/>
<path transform="translate(0,0)" fill="rgb(252,226,201)" d="M 100.775 984.034 C 139.255 983.53 166.35 985.103 203.814 995.006 C 217.071 998.51 235.138 1004.8 247.728 1007.65 C 238.51 1064.76 235.82 1112.61 236.311 1169.8 C 176.953 1152.61 151.114 1146.21 88.7003 1147.12 C 87.3635 1085.29 92.099 1044.75 100.775 984.034 z"/>
<path transform="translate(0,0)" fill="rgb(252,226,201)" d="M 106.528 1311.97 C 158.482 1311.9 206.435 1326.05 256.16 1339.4 C 264.833 1399.39 271.333 1443.61 269.108 1504.24 C 215.704 1492.5 177.917 1478.19 121.202 1475.31 C 122.715 1424.87 115.212 1362.3 106.528 1311.97 z"/>
<path transform="translate(0,0)" fill="rgb(252,226,201)" d="M 1774.56 183.393 C 1833.94 168.067 1868.87 168.792 1928.71 175.827 C 1932.46 236.96 1931.2 273.611 1923.66 334.652 C 1859.75 325.635 1833.4 327.824 1771.14 340.715 C 1779.04 276.856 1779.28 246.297 1774.56 183.393 z"/>
<path transform="translate(0,0)" fill="rgb(252,226,201)" d="M 104.044 1639.06 C 137.25 1639.32 161.862 1641.22 194.625 1648.12 C 212.122 1651.81 232.497 1657.53 249.45 1660.75 C 242.682 1708.11 236.117 1755.35 234.334 1803.22 C 234.213 1806.46 234.335 1818.81 232.554 1820.68 C 188.129 1810.75 132.675 1798.96 86.8842 1804.74 C 88.4514 1766.86 91.7959 1729.07 96.9066 1691.5 C 99.1196 1674.42 102.186 1655.97 104.044 1639.06 z"/>
<path transform="translate(0,0)" fill="rgb(252,226,201)" d="M 833.694 1830.34 C 884.981 1840.71 929.339 1845.34 981.842 1837.62 C 981.056 1898.56 987.751 1939.2 998.666 1998.56 C 952.722 2003.42 910.512 2004.45 865.093 1995.37 C 860.463 1994.45 853.875 1993.22 849.251 1992.76 C 839.578 1934.75 831.986 1890.01 833.694 1830.34 z"/>
<path transform="translate(0,0)" fill="rgb(252,226,201)" d="M 1476.95 214.549 C 1520.32 225.553 1582.18 226.728 1626.29 220.35 C 1631.78 273.327 1625.34 328.641 1616.43 380.807 C 1604.47 381.482 1590.34 384.025 1577.22 384.771 C 1538.3 386.984 1506.39 383.303 1468.28 376.509 C 1479.62 323.308 1482.55 268.657 1476.95 214.549 z"/>
<path transform="translate(0,0)" fill="rgb(252,226,201)" d="M 1613.57 708.559 L 1613.93 706.74 C 1619.95 704.737 1626.39 704.476 1632.6 703.095 C 1675.27 693.596 1717.01 681.321 1759.66 671.514 C 1762.39 695.098 1767.78 720.937 1771.35 744.75 C 1775.39 772.782 1778.29 800.968 1780.03 829.237 C 1728.46 838.804 1680.38 857.927 1631.22 866.904 C 1631.89 810.361 1624.55 764.251 1613.57 708.559 z"/>
<path transform="translate(0,0)" fill="rgb(252,226,201)" d="M 1595.1 67.7955 C 1650.91 62.3317 1689.81 49.8128 1743.94 35.6943 C 1751.43 69.2469 1759.64 102.598 1766.76 136.222 C 1770.16 152.287 1771.63 167.195 1774.1 183.169 C 1730.85 192.651 1689.3 208.781 1645.69 216.743 C 1639.22 217.924 1632.75 219.085 1626.29 220.35 C 1623.24 167.782 1608.69 118.479 1595.1 67.7955 z"/>
<path transform="translate(0,0)" fill="rgb(252,226,201)" d="M 1012.7 62.2894 L 1013.68 60.6214 L 1160.65 29.7149 C 1167.65 87.632 1173.62 120.229 1173.78 179.989 C 1124.8 183.47 1066.9 203.477 1017.11 210.826 C 1022.35 161.002 1019.86 111.83 1012.7 62.2894 z"/>
<path transform="translate(0,0)" fill="rgb(252,226,201)" d="M 263.068 191.156 C 304.32 201.501 358.702 217.68 401.538 218.089 C 392.891 265.379 375.155 331.825 370.678 377.165 C 340.202 376.088 309.944 371.576 280.48 363.714 C 266.752 360.071 244.854 352.858 232.018 350.439 C 242.893 299.979 255.782 241.569 263.068 191.156 z"/>
<path transform="translate(0,0)" fill="rgb(252,226,201)" d="M 719.008 23.585 C 775.201 29.1421 809.593 41.05 862.694 52.4211 C 864.518 110.94 869.09 144.711 862.001 205.43 C 800.98 189.476 772.112 180.763 709.751 177.356 C 709.057 174.238 715.767 127.308 716.422 120.84 C 719.769 87.8252 719.519 56.6636 719.008 23.585 z"/>
<path transform="translate(0,0)" fill="rgb(252,226,201)" d="M 1923.74 335.443 C 1961.19 341.907 2009.74 355.763 2048 364.88 L 2048 528.505 C 2003.52 521.427 1947.1 503.153 1904.07 498.972 C 1904.67 492.923 1904.96 487.006 1905.37 480.957 C 1908.69 432.18 1917.42 383.9 1923.74 335.443 z"/>
<path transform="translate(0,0)" fill="rgb(252,226,201)" d="M 123.112 35.96 C 149.615 33.607 170.821 30.9505 197.567 31.8476 C 225.469 32.7836 246.823 36.9353 273.972 41.7647 C 273.936 96.8943 271.319 135.391 262.788 190.783 C 214.164 176.947 162.983 174.638 113.311 184.039 C 120.672 129.442 123.41 91.3344 123.112 35.96 z"/>
<path transform="translate(0,0)" fill="rgb(252,226,201)" d="M 1309.27 26.5328 C 1349.88 30.3271 1410.81 46.2409 1452.14 55.2301 C 1453.59 67.5388 1455.83 79.7337 1458.02 91.9318 C 1465.27 132.468 1472.52 172.494 1476.16 213.576 C 1447.16 209.793 1416.95 200.034 1388.14 194.409 C 1368.48 190.57 1347.91 184.437 1327.97 182.718 C 1329.5 144.422 1315.66 66.764 1309.27 26.5328 z"/>
<path transform="translate(0,0)" fill="rgb(252,226,201)" d="M 1923.23 1632.55 C 1964.7 1637.47 2007.17 1647.69 2048 1656.87 L 2048 1821.85 C 2001.25 1813.71 1960.66 1806.39 1913.49 1801.87 C 1913.6 1741.11 1918.51 1692.79 1923.23 1632.55 z"/>
<path transform="translate(0,0)" fill="rgb(252,226,201)" d="M 1921.21 985.163 C 1963.6 991.739 2005.66 1001.65 2048 1009.44 L 2048 1168.53 C 1998.59 1160.95 1956.99 1150.36 1905.89 1144.87 C 1906.05 1096.21 1913.03 1033.97 1921.21 985.163 z"/>
<path transform="translate(0,0)" fill="rgb(252,226,201)" d="M 1904.68 16.1084 C 1955.81 20.126 1998.25 31.7774 2048 40.7943 L 2048 203.338 C 2042.49 201.624 2036.49 200.309 2030.87 198.901 C 1996.91 190.385 1963.3 181.405 1928.71 175.827 C 1925.07 126.621 1912.04 66.5578 1904.68 16.1084 z"/>
<path transform="translate(0,0)" fill="rgb(252,226,201)" d="M 1918.61 1308.11 C 1966.32 1313.6 2001.35 1321.44 2048 1330.5 L 2048 1492.34 C 2017.85 1483.39 1961.81 1473.11 1931.29 1469.35 C 1931.03 1437.19 1929.13 1405.08 1925.6 1373.12 C 1923.36 1351.55 1920.24 1329.67 1918.61 1308.11 z"/>
<path transform="translate(0,0)" fill="rgb(252,226,201)" d="M 1914.65 665.077 C 1959.59 672.383 2003.29 682.06 2048 690.46 L 2048 849.781 C 2010.11 842.507 1970.69 833.703 1932.96 827.735 C 1933.66 778.143 1922.2 714.568 1914.65 665.077 z"/>
<path transform="translate(0,0)" fill="rgb(252,226,201)" d="M 121.202 1475.31 C 120.677 1503.73 118.676 1532.1 115.206 1560.32 C 111.987 1586.7 107.4 1612.83 104.044 1639.06 C 67.453 1639.26 35.0473 1647.58 0 1656.56 L 0 1493.48 C 48.3312 1479.08 70.7737 1475.01 121.202 1475.31 z"/>
<path transform="translate(0,0)" fill="rgb(252,226,201)" d="M 0 847.771 C 43.9098 833.929 70.3312 825.391 117.079 822.915 C 116.964 882.572 109.332 925.509 100.775 984.034 C 60.3692 987.534 38.2179 993.645 0 1006.74 L 0 847.771 z"/>
<path transform="translate(0,0)" fill="rgb(252,226,201)" d="M 0 1167 C 33.7934 1156.23 52.4568 1151.47 88.1087 1147.94 C 90.4348 1205.83 96.4957 1253.98 106.316 1311.35 C 61.3344 1312.81 42.3772 1316.94 0 1329.69 L 0 1167 z"/>
<path transform="translate(0,0)" fill="rgb(252,226,201)" d="M 0 1821.92 C 35.321 1812.39 50.4217 1809.07 86.3613 1804.92 C 84.7114 1863.35 85.6317 1909.9 91.3215 1968.73 C 55.801 1970.35 33.6922 1976.88 0 1985.7 L 0 1821.92 z"/>
<path transform="translate(0,0)" fill="rgb(252,226,201)" d="M 0 524.813 C 26.761 515.953 47.6537 509.688 75.3085 503.909 C 79.5413 557.33 87.6557 610.372 99.5875 662.616 C 60.7869 666.876 36.7287 674.141 0 686.371 L 0 524.813 z"/>
<path transform="translate(0,0)" fill="rgb(252,226,201)" d="M 91.8091 1968.98 C 152.095 1966.71 182.396 1974.51 240.655 1988.38 C 241.887 2007.13 245.23 2029.17 247.823 2048 L 99.8 2048 C 97.3598 2024.7 92.9412 1991.8 91.8091 1968.98 z"/>
<path transform="translate(0,0)" fill="rgb(252,226,201)" d="M 699.309 1965.64 C 752.614 1969.8 797.165 1982.4 849.251 1992.76 C 852.345 2011.21 855.645 2029.63 859.151 2048 L 714.758 2048 C 711.028 2021.11 704.726 1992.36 699.309 1965.64 z"/>
<path transform="translate(0,0)" fill="rgb(252,226,201)" d="M 999.315 1998.47 C 1020.39 1996.8 1049.61 1990.4 1070.65 1985.94 C 1098.98 1979.94 1123.05 1975.54 1151.85 1971.6 C 1157.29 1995.96 1164.21 2023.8 1168.78 2048 L 1009.5 2048 C 1006.32 2031.8 1002.12 2014.38 999.315 1998.47 z"/>
<path transform="translate(0,0)" fill="rgb(252,226,201)" d="M 857.96 0 L 1006.25 0 C 1007.77 19.055 1009.67 41.133 1012.22 60.1663 C 974.11 64.6611 943.005 66.0877 904.585 60.3155 C 890.983 58.272 875.104 54.0943 862.694 52.4211 C 861.043 34.9546 859.985 17.433 857.96 0 z"/>
<path transform="translate(0,0)" fill="rgb(252,226,201)" d="M 1444.76 0 L 1584.1 0 C 1583.55 26.0115 1587.09 42.2259 1594.38 67.4245 C 1551.49 69.8311 1512.43 67.4885 1470.34 58.5768 C 1464.88 57.4213 1457.63 55.9048 1452.14 55.2301 C 1449.88 36.5265 1446.74 19.2687 1444.76 0 z"/>
<path transform="translate(0,0)" fill="rgb(252,226,201)" d="M 1623.53 2007.32 C 1674.01 1998.82 1720.24 1985.87 1769.99 1976.57 L 1782.44 2048 L 1630.31 2048 C 1628.29 2034.4 1626.03 2020.84 1623.53 2007.32 z"/>
<path transform="translate(0,0)" fill="rgb(252,226,201)" d="M 390.503 2006.22 C 441.639 2004.73 493.683 1990.48 543.469 1978.96 C 547.542 2002.01 551.832 2025.03 556.338 2048 L 396.299 2048 C 394.903 2034.36 392.524 2019.86 390.503 2006.22 z"/>
<path transform="translate(0,0)" fill="rgb(252,226,201)" d="M 1315.09 1977.81 C 1341.64 1982.75 1368.07 1988.27 1394.37 1994.36 C 1418.83 1999.81 1448.95 2006.9 1473.78 2009.1 L 1481.07 2048 L 1331.5 2048 C 1327.73 2025.73 1320.74 1999.94 1315.09 1977.81 z"/>
<path transform="translate(0,0)" fill="rgb(252,226,201)" d="M 1928.51 1969.01 C 1969.68 1973.54 2007.25 1979.82 2048 1986.78 L 2048 2048 L 1939.07 2048 C 1935.74 2021.64 1931.74 1995.38 1928.51 1969.01 z"/>
<path transform="translate(0,0)" fill="rgb(252,226,201)" d="M 273.251 0 L 417.758 0 C 416.839 21.6555 417.31 43.2317 417.686 64.8879 C 389.849 63.4756 368.192 61.0015 340.811 55.738 C 318.687 51.4851 295.921 45.4213 274.111 41.5105 C 273.978 27.6709 273.691 13.8332 273.251 -7.10543e-15 z"/>
<path transform="translate(0,0)" fill="rgb(252,226,201)" d="M 0 0 L 122.924 0 L 123.112 35.96 C 81.7542 40.8847 41.3106 50.1996 0 55.2908 L 0 0 z"/>
<path transform="translate(0,0)" fill="rgb(252,226,201)" d="M 581.593 0 L 718.052 0 C 718.046 7.21892 718.685 15.8863 719.036 23.201 C 662.054 19.2677 622.046 23.9223 567.293 39.0843 C 572.957 25.5452 577.891 14.321 581.593 0 z"/>
<path transform="translate(0,0)" fill="rgb(252,226,201)" d="M 1156.76 0 L 1304.67 0 C 1305.71 8.34815 1307.39 17.575 1308.73 25.9563 C 1254.99 19.3318 1213.65 20.4671 1160.61 29.4115 C 1159.64 19.5688 1158.36 9.75989 1156.76 1.42109e-14 z"/>
<path transform="translate(0,0)" fill="rgb(252,226,201)" d="M 1735.92 0 L 1902.49 0 L 1904.19 15.7119 C 1840.26 12.3541 1804.9 19.327 1743.82 34.9309 C 1739.78 21.5964 1738.08 13.7489 1735.92 0 z"/>
<path transform="translate(0,0)" fill="rgb(252,226,201)" d="M 818.629 520.007 C 871.642 536.932 918.898 540.627 973.781 537.83 C 977.779 590.837 998.018 647.079 1012.72 697.744 C 952.864 704.085 914.118 700.7 855.405 687.173 C 870.029 741.964 884.141 796.855 884.088 854.097 C 840.964 845.128 773.811 825.255 731.876 823.011 C 732.132 776.415 718.091 702.865 702.564 658.899 C 760.79 663.179 799.207 673.489 856.051 687.956 C 837.01 623.635 826.687 586.353 818.629 520.007 z"/>
<path transform="translate(0,0)" fill="rgb(252,226,201)" d="M 1015.21 1020.71 C 1027.15 1019.15 1038.84 1016.59 1050.6 1014.06 C 1090.6 1005.45 1130.16 995.737 1170.8 990.514 C 1157.17 1043.78 1141.95 1101.03 1141.81 1156.38 C 1170.25 1152.42 1195.55 1148.95 1224.53 1149.14 C 1249.32 1149.3 1270.6 1152.39 1294.99 1155.36 C 1290.92 1206.86 1299.53 1264.04 1310.12 1314.27 C 1310.54 1317.4 1311.37 1318.78 1310.08 1320.83 C 1296.09 1319.36 1281.77 1316.35 1268.1 1314.99 C 1234.38 1311.64 1192.4 1312.15 1159.01 1318.27 C 1148.86 1263.4 1139.26 1212.71 1141.67 1156.45 C 1093.83 1162.02 1042.38 1178.26 992.129 1184.7 C 991.64 1120.53 1001.74 1081.53 1015.21 1020.71 z"/>
<path transform="translate(0,0)" fill="rgb(252,226,201)" d="M 560.814 1331.38 C 563.325 1334.19 567.437 1369.93 568.419 1376.96 C 573.717 1414.89 575.404 1453.29 574.57 1491.55 C 595.506 1488.7 612.858 1485.08 634.527 1483.3 C 668.557 1480.5 696.488 1481.96 730.031 1484.39 C 728.077 1514.8 726.554 1541 721.688 1571.25 C 717.688 1596.1 712.259 1620.5 708.329 1645.18 C 672.671 1639.62 630.895 1643.27 595.156 1646.15 C 587.51 1646.76 555.98 1653.97 552.67 1651.33 L 553.195 1646.77 C 559.976 1608.04 568.966 1569.86 572.362 1530.55 C 573.488 1517.51 574.218 1504.55 574.914 1491.48 C 524.367 1499.8 476.772 1515.37 424.522 1519.36 C 428.365 1465.2 419.058 1411.41 411.196 1358.11 C 452.657 1358.45 519.532 1339.5 560.814 1331.38 z"/>
<path transform="translate(0,0)" fill="rgb(252,226,201)" d="M 1442.66 535.004 C 1489.23 546.454 1546.24 548.203 1593.77 542.648 C 1592.56 601.343 1601.6 648.835 1612.8 706.377 C 1556.56 714.299 1522.08 713.609 1466.52 704.474 C 1479.54 770.108 1485.39 802.68 1484.92 869.478 L 1465.16 866.125 C 1424.23 857.283 1383.74 846.423 1342.96 837.88 C 1343.15 784.357 1329.85 725.517 1316.99 673.997 C 1367.68 682.088 1416.65 696.695 1466.61 704.612 C 1464.45 688.524 1458.17 662.71 1454.79 646.042 C 1446.52 605.316 1442.78 576.271 1442.66 535.004 z"/>
<path transform="translate(0,0)" fill="rgb(252,226,201)" d="M 1749.98 1815.52 C 1774.23 1810.9 1796.42 1806.37 1821.02 1803.47 C 1853.62 1799.64 1881.14 1800.95 1913.44 1802.18 C 1913.61 1856.22 1919.52 1911.71 1927.41 1965.23 L 1927.29 1967.55 C 1924.8 1968.56 1870.07 1965.84 1860.27 1966.14 C 1829.9 1967.05 1800.05 1970.97 1770.14 1976.19 C 1760.84 1923.18 1752.37 1869.35 1749.98 1815.52 z"/>
<path transform="translate(0,0)" fill="rgb(252,226,201)" d="M 1134.34 1807.91 C 1197.19 1798.43 1228.89 1798.31 1291.76 1806.17 C 1286.95 1856.18 1302.72 1929.11 1314.3 1977.26 C 1264.41 1967.13 1202.9 1963.5 1152.43 1971.23 C 1139.82 1913.57 1133.47 1867.07 1134.34 1807.91 z"/>
<path transform="translate(0,0)" fill="rgb(252,226,201)" d="M 985.38 372.65 C 1037.68 364.803 1099.74 345.875 1148.88 340.466 C 1136.36 397.42 1126.91 442 1129.74 500.457 C 1129.78 504.205 1130.52 506.039 1128.8 508.505 C 1119.37 510.665 1109.88 512.277 1100.39 514.119 C 1058.76 522.192 1016.38 533.504 974.052 537.189 C 967.546 479.478 973.089 429.426 985.38 372.65 z"/>
<path transform="translate(0,0)" fill="rgb(252,226,201)" d="M 575.697 834.596 C 590.846 831.699 604.114 828.178 619.953 825.634 C 659.403 819.299 692.393 820.068 731.876 823.011 C 732.246 867.313 727.286 910.645 718.505 954.035 C 716.395 964.461 714.241 974.754 712.602 985.269 C 674.32 981.797 635.738 983.852 598.041 991.372 C 583.707 994.342 568.306 999.321 554.252 1001.98 L 553.334 1002.15 C 554.237 994.4 555.952 985.504 557.512 977.777 C 567.235 929.604 573.208 883.616 575.697 834.596 z"/>
<path transform="translate(0,0)" fill="rgb(252,226,201)" d="M 1205.71 500.444 C 1231.71 499.063 1262.67 501.28 1288.5 504.248 C 1286.9 560.158 1302.46 619.779 1316.19 673.375 C 1292.19 669.534 1267.98 667.219 1243.69 666.444 C 1221.88 665.502 1184.64 667.451 1163.12 671.064 C 1149.66 619.829 1131.94 562.21 1130.78 508.852 C 1157.66 504.437 1178.73 501.84 1205.71 500.444 z"/>
<path transform="translate(0,0)" fill="rgb(252,226,201)" d="M 1312.5 342.666 C 1358.05 348.867 1419.55 367.274 1467.68 376.624 C 1464.03 398.442 1457.06 424.405 1452.4 446.532 C 1445.81 477.893 1443.01 501.807 1442.04 533.698 C 1435.63 533.675 1394.86 523.744 1386.12 521.725 C 1352.62 513.992 1323.16 508 1288.95 503.748 C 1288.7 438.892 1302.62 402.998 1312.5 342.666 z"/>
<path transform="translate(0,0)" fill="rgb(252,226,201)" d="M 861.992 1017.23 C 871.578 975.949 880.686 935.336 883.48 892.948 C 883.84 887.493 884.203 857.589 884.97 855.509 L 886.72 855.035 C 935.283 863.798 991.427 866.877 1040.07 856.567 C 1040.17 907.146 1031.42 955.094 1018.87 1003.88 C 1017.62 1008.74 1015.8 1015.78 1015.21 1020.71 C 955.564 1028.76 921.034 1028.12 861.992 1017.23 z"/>
<path transform="translate(0,0)" fill="rgb(252,226,201)" d="M 1836.07 1144.42 C 1851.83 1142.5 1889.56 1143.99 1905.36 1145.26 C 1904.8 1206.24 1912.27 1248.68 1917.36 1307.21 C 1881.93 1305.22 1858.88 1304.99 1823.77 1309.09 C 1802.85 1312.03 1785.07 1316.01 1764.43 1320.79 C 1757.68 1265.41 1750.31 1214.57 1749.75 1158.51 C 1782.97 1151.38 1802.66 1147.36 1836.07 1144.42 z"/>
<path transform="translate(0,0)" fill="rgb(252,226,201)" d="M 712.455 985.706 C 736.611 988.334 760.569 992.54 784.175 998.298 C 809.917 1004.49 835.76 1012.22 861.747 1017.04 C 851.046 1061.83 842.829 1108.76 842.913 1154.97 C 842.922 1159.94 844.147 1175.07 841.791 1178 C 784.731 1166.18 751.194 1157.98 692.858 1153.84 C 690.324 1084.05 700.813 1051.08 712.455 985.706 z"/>
<path transform="translate(0,0)" fill="rgb(252,226,201)" d="M 1005.34 1672.89 C 1056.2 1665.4 1107.49 1646.73 1160.96 1639.21 C 1151.47 1688.12 1132.44 1758.09 1134.34 1807.91 C 1083.8 1815.64 1034.16 1829.34 982.022 1837.46 C 982.217 1781.82 993.775 1727.02 1005.34 1672.89 z"/>
<path transform="translate(0,0)" fill="rgb(252,226,201)" d="M 550.991 1004.27 C 551.79 1009.5 540.795 1068.5 539.553 1080.17 C 536.324 1110.83 535.835 1141.72 538.091 1172.46 C 476.19 1186.46 450.081 1193.1 386.548 1195.93 C 381.642 1147.39 387.922 1081.31 395.36 1033.73 C 459.357 1030.9 489.864 1019.97 550.991 1004.27 z"/>
<path transform="translate(0,0)" fill="rgb(252,226,201)" d="M 1445.68 1191.14 C 1505.95 1202.88 1535.29 1203.11 1595.26 1196.53 L 1597.19 1196.77 C 1598.64 1201.26 1597.86 1207.06 1598.24 1211.84 C 1602.11 1260.6 1609.57 1310.09 1616.69 1358.48 C 1553.66 1369.6 1528.08 1366.69 1466.96 1358.56 C 1460.74 1300.77 1446.26 1252.7 1445.68 1191.14 z"/>
<path transform="translate(0,0)" fill="rgb(252,226,201)" d="M 530.368 1817.6 C 553.746 1813.71 575.109 1808.98 599.071 1806.15 C 629.488 1802.56 654.897 1802.83 685.166 1803.96 C 681.581 1858.18 687.812 1912.12 698.906 1965.22 C 653.676 1959.49 587.883 1966.57 543.635 1978.47 C 534.596 1918.88 529.587 1878.04 530.368 1817.6 z"/>
<path transform="translate(0,0)" fill="rgb(252,226,201)" d="M 659.572 1154.43 C 670.275 1153.79 681.505 1154.08 692.265 1154.17 C 693.804 1208.72 703.349 1265.55 714.608 1319.01 C 676.144 1313.82 631.401 1318.07 593.269 1324.28 C 582.746 1326.06 572.278 1328.15 561.881 1330.55 C 554.201 1279.13 541.132 1224.4 538.686 1172.57 C 586.455 1163.44 609.268 1157.08 659.572 1154.43 z"/>
<path transform="translate(0,0)" fill="rgb(252,226,201)" d="M 1611.79 1032.26 C 1664.12 1022.8 1713.47 1003.94 1765.47 992.981 C 1758.64 1046.47 1746.97 1102.78 1749.46 1157.39 C 1744.9 1161.65 1614.13 1193.27 1597.93 1195.67 C 1595.69 1155.64 1599.39 1116.94 1604.8 1077.26 C 1606.82 1062.4 1609.94 1046.9 1611.79 1032.26 z"/>
<path transform="translate(0,0)" fill="rgb(252,226,201)" d="M 1603.24 1687.24 C 1646.97 1682.48 1714.15 1660.57 1758.9 1648.28 C 1751.95 1700.42 1746.38 1763.32 1749.98 1815.52 C 1697 1827.68 1654.1 1839.9 1600.04 1848.51 C 1596.79 1788 1598.56 1748.01 1603.24 1687.24 z"/>
<path transform="translate(0,0)" fill="rgb(252,226,201)" d="M 831.451 362.22 C 840.037 324.495 849.409 287.11 856.15 248.978 C 857.056 243.857 861.75 208.871 862.938 206.577 L 864.04 206.292 C 914.098 218.314 966.074 220.062 1016.83 211.428 C 1012.23 246.206 1008.17 272.434 999.933 306.951 C 997.39 317.612 985.802 364.84 985.38 372.65 C 923.249 378.405 893.197 377.508 831.451 362.22 z"/>
<path transform="translate(0,0)" fill="rgb(252,226,201)" d="M 879.815 1511.31 C 937.732 1518.86 972.547 1518.46 1030.3 1508.15 C 1029.76 1558.54 1019.62 1607.4 1008.85 1656.43 C 1007.67 1661.81 1006.24 1667.49 1005.34 1672.89 C 945.169 1681.93 915.149 1681.73 854.565 1672.53 C 864.704 1625.89 874.883 1579.15 877.758 1531.55 C 877.975 1527.95 878.546 1513.1 879.815 1511.31 z"/>
<path transform="translate(0,0)" fill="rgb(252,226,201)" d="M 233.924 1821.44 C 281.596 1834.18 330.773 1840.4 380.114 1839.93 C 379.355 1892.62 381.528 1953.86 390.521 2006 C 326.478 2007.96 303.402 2001.47 241.5 1988.25 C 239.715 1985.9 239.03 1972.87 238.64 1968.87 C 233.925 1920.45 231.231 1870.08 233.924 1821.44 z"/>
<path transform="translate(0,0)" fill="rgb(252,226,201)" d="M 99.8469 662.865 C 162.951 656.283 192.492 666.927 250.65 680.568 C 251.515 686.095 252.503 691.832 253.626 697.302 C 264.002 747.833 267.906 795.916 266.728 847.37 C 214.809 831.907 173.563 821.343 119.25 822.442 L 117.699 822.026 C 116.538 817.886 116.946 801.099 116.751 795.534 C 116.299 784.403 115.566 773.285 114.554 762.191 C 111.492 728.486 105.833 696.081 99.8469 662.865 z"/>
<path transform="translate(0,0)" fill="rgb(252,226,201)" d="M 1315.54 1642.23 C 1363.62 1652.57 1410.94 1669.79 1456.13 1678.75 C 1446.96 1732.19 1443.37 1786.45 1445.41 1840.63 C 1396.63 1830.56 1340.19 1812.42 1291.76 1806.17 C 1295.35 1744.95 1303.39 1702.37 1315.54 1642.23 z"/>
<path transform="translate(0,0)" fill="rgb(252,226,201)" d="M 397.072 1676.93 C 447.933 1674.21 501.021 1663.17 551.291 1653.66 C 540.545 1706.95 530.668 1763.08 530.368 1817.6 C 482.046 1826.59 429.384 1839.33 380.114 1839.93 C 381.669 1824.8 381.762 1805.16 383.038 1789 C 386.204 1751.47 390.886 1714.08 397.072 1676.93 z"/>
<path transform="translate(0,0)" fill="rgb(252,226,201)" d="M 676.554 334.211 C 739.486 336.937 769.626 345.794 830.748 362.484 C 818.311 424.109 814.308 456.524 818.305 519.669 C 765.276 504.344 720.477 492.845 665.033 493.253 C 663.127 434.182 667.715 392.926 676.554 334.211 z"/>
<path transform="translate(0,0)" fill="rgb(252,226,201)" d="M 715.162 1319.26 C 770.909 1324.82 811.809 1335.96 865.367 1345.06 C 875.115 1406.75 879.416 1448.58 878.897 1510.42 C 875.424 1510.05 854.975 1506.69 853.115 1506 C 842.154 1501.95 730.189 1483.34 730.128 1483.28 C 732.278 1424.55 724.345 1377.14 715.162 1319.26 z"/>
<path transform="translate(0,0)" fill="rgb(252,226,201)" d="M 1760.84 1322.25 L 1763.06 1321.91 C 1765.56 1325.28 1769.82 1371.77 1770.58 1379 C 1774.16 1412.79 1774.61 1447.41 1774.09 1481.36 C 1723.81 1493.73 1678.52 1510.68 1627.23 1522.17 C 1623.94 1522.66 1625.25 1523.12 1622.94 1521.68 C 1622.13 1518.89 1625.05 1475.12 1625.06 1466.64 C 1625.11 1430.09 1620.74 1394.89 1617.66 1358.59 C 1664.72 1351.97 1714.3 1332.66 1760.84 1322.25 z"/>
<path transform="translate(0,0)" fill="rgb(252,226,201)" d="M 517.141 359.286 C 517.68 359.204 518.993 359.396 519.607 359.457 C 520.733 362.448 518.25 374.118 517.681 378.078 C 514.928 396.441 513.104 414.933 512.217 433.481 C 510.889 462.547 512.309 491.673 516.46 520.472 C 460.972 534.363 427.186 540.962 370.884 542.478 C 369.866 542.126 370.545 542.434 369.154 541.061 C 360.814 489.927 363.931 428.988 370.36 377.828 C 421.986 379.106 467.059 369.439 517.141 359.286 z"/>
<path transform="translate(0,0)" fill="rgb(252,226,201)" d="M 1013.43 698.242 C 1040.19 694.206 1062.6 690.074 1088.99 684.518 C 1109.89 680.115 1142.02 673.25 1163.1 671.561 C 1179.21 734.931 1186.76 763.885 1192.08 828.886 C 1141.81 831.249 1089.33 849.612 1040.69 855.731 C 1039.1 802.21 1029.92 749.186 1013.43 698.242 z"/>
<path transform="translate(0,0)" fill="rgb(252,226,201)" d="M 1181.11 1476.87 C 1243.69 1470.01 1272.01 1473.58 1332.94 1484.79 C 1331.85 1505.82 1331.82 1524.72 1329.83 1545.99 C 1326.71 1579.28 1321.17 1608.84 1315.03 1641.51 C 1254.33 1630.38 1223.04 1630.16 1162.38 1638.27 C 1165.79 1620.42 1169.88 1603.06 1173.16 1584.94 C 1180.04 1546.86 1181.71 1515.23 1181.11 1476.87 z"/>
<path transform="translate(0,0)" fill="rgb(252,226,201)" d="M 843.805 1179.51 C 903.718 1189.3 930.379 1191.62 991.53 1185.62 C 992.774 1192.4 992.065 1201.31 992.563 1208.39 C 995.855 1255.19 1004.31 1301.34 1012.96 1347.38 C 979.013 1351.41 951.198 1353.68 916.743 1351.2 C 898.616 1349.89 882.986 1347.05 865.367 1345.06 C 858.536 1294.15 844.379 1230.19 843.805 1179.51 z"/>
<path transform="translate(0,0)" fill="rgb(252,226,201)" d="M 223.228 514.107 C 255.356 523.961 284.706 533.394 318.068 538.372 C 324.283 539.299 369.417 543.678 369.571 543.769 C 374.809 596.143 395.166 651.934 405.033 703.784 C 366.482 704.464 334.919 701.325 297.009 692.62 C 282.344 689.252 264.443 683.435 250.65 680.568 C 247.868 661.115 242.75 641.355 238.856 622.026 C 231.525 585.637 226.339 551.084 223.228 514.107 z"/>
<path transform="translate(0,0)" fill="rgb(252,226,201)" d="M 1192.08 828.886 C 1247.11 824.078 1288.55 827.439 1342.55 838.261 C 1341.91 885.641 1338.3 924.439 1327.9 971.012 C 1327.1 974.584 1323.57 993.28 1322.14 995.825 C 1266.36 984.898 1227.82 983.378 1171.53 989.837 C 1185.92 930.33 1193.64 890.517 1192.08 828.886 z"/>
<path transform="translate(0,0)" fill="rgb(252,226,201)" d="M 1485.11 871.68 C 1486.71 870.887 1534.01 875.654 1541.39 875.875 C 1571.5 876.782 1601.6 873.925 1631 867.371 C 1630.29 900.505 1627.43 933.559 1622.45 966.325 C 1619.27 987.505 1614.38 1011.6 1611.79 1032.26 C 1551.76 1040.73 1522.74 1041.5 1462.83 1030.55 C 1472.75 981.213 1484.81 921.917 1485.11 871.68 z"/>
<path transform="translate(0,0)" fill="rgb(252,226,201)" d="M 1013.42 1347.74 C 1025.17 1345.2 1037.51 1343.64 1049.4 1341.21 L 1158.49 1318.78 C 1170.61 1379.17 1178 1415.67 1181.11 1476.87 C 1143.4 1479.12 1071.72 1499.26 1031.05 1507.64 C 1031.23 1447.06 1024.52 1408.31 1013.42 1347.74 z"/>
<path transform="translate(0,0)" fill="rgb(252,226,201)" d="M 647.62 494.417 C 651.443 493.909 660.685 493.884 664.935 493.77 C 666.143 551.087 683.991 604.4 701.816 658.069 C 650.321 656.79 621.486 659.471 570.744 671.213 L 554.515 674.861 C 540.379 621.762 525.132 575.382 516.806 520.646 C 537.13 516.192 558.701 509.558 579.391 504.884 C 604.033 499.317 622.542 496.513 647.62 494.417 z"/>
<path transform="translate(0,0)" fill="rgb(252,226,201)" d="M 1322.69 996.472 C 1366.49 1003.83 1417.04 1022.17 1462.5 1030.56 C 1454.13 1066.58 1448.76 1109.12 1445.62 1145.94 C 1444.47 1159.42 1446.04 1177.81 1444.5 1189.17 C 1441.04 1189.98 1439.03 1189.01 1435.28 1188.23 C 1391.39 1178.38 1338.55 1161.42 1295.18 1155.38 C 1295.67 1149.51 1295.95 1143.66 1296.4 1137.8 C 1300.14 1090.04 1311.92 1043.04 1322.69 996.472 z"/>
<path transform="translate(0,0)" fill="rgb(252,226,201)" d="M 552.761 199.846 C 570.006 196.87 588.445 191.904 605.849 188.39 C 641.404 181.212 672.127 177.743 708.237 177.939 C 699.021 227.566 682.55 286.879 676.554 334.211 C 628.55 332.692 568.02 347.404 521.554 357.561 C 532.111 305.81 543.938 251.456 552.761 199.846 z"/>
<path transform="translate(0,0)" fill="rgb(252,226,201)" d="M 269.457 1505.33 C 324.424 1517.11 366.808 1524.88 423.808 1520.21 C 418.333 1566.54 406.421 1622.3 397.823 1668.82 C 397.53 1671.35 397.141 1672.87 396.592 1675.34 C 391.313 1677.8 377.83 1677.05 371.701 1676.96 C 329.523 1676.4 291.008 1670.51 250.037 1660.67 C 256.973 1605.46 267.049 1563.05 269.457 1505.33 z"/>
<path transform="translate(0,0)" fill="rgb(252,226,201)" d="M 1312.27 1322.22 C 1362.08 1332.65 1419.56 1351.1 1466.96 1358.56 C 1467.63 1373.12 1471.24 1391.06 1472.66 1406.09 C 1476.09 1442.3 1478.81 1484.45 1475.07 1520.69 C 1431.41 1513.4 1378.96 1494.1 1332.94 1484.79 C 1333.97 1430.33 1322.89 1375.3 1312.27 1322.22 z"/>
<path transform="translate(0,0)" fill="rgb(252,226,201)" d="M 708.473 1645.64 C 740.735 1649.19 765.976 1653.94 797.746 1661.15 C 811.036 1664.17 841.75 1671.41 854.142 1672.41 C 842.119 1727.11 834.578 1773.83 833.616 1829.71 C 790.119 1821.18 729.598 1804.11 685.166 1803.96 C 690.031 1745.45 696.29 1703.66 708.473 1645.64 z"/>
<path transform="translate(0,0)" fill="rgb(252,226,201)" d="M 1475.8 1521.95 C 1527.72 1530.78 1568.73 1534.24 1621.54 1523.71 C 1618.27 1576.24 1607.79 1633.85 1603.24 1687.24 C 1556.38 1694.91 1502.1 1689.26 1456.13 1678.75 C 1464.42 1624.97 1471.74 1576.28 1475.8 1521.95 z"/>
<path transform="translate(0,0)" fill="rgb(252,226,201)" d="M 564.72 41.3963 C 558.555 61.6034 562.754 105.856 560.768 130.549 C 558.808 154.908 555.625 175.76 552.761 199.846 C 493.663 212.256 462.981 219.323 402.173 218.033 C 413.286 158.285 416.429 124.217 417.792 65.082 C 469.738 65.332 515.508 58.6532 564.72 41.3963 z"/>
</svg>