<?xml version="1.0" encoding="UTF-8"?>
<svg id="Camada_2" data-name="Camada 2" xmlns="http://www.w3.org/2000/svg" viewBox="0 0 491.56 489.13">
  <defs>
    <style>
      .cls-1 {
        fill: #6a2c15;
      }

      .cls-2 {
        fill: #f8e4c1;
      }

      .cls-3 {
        fill: #3d1308;
      }
    </style>
  </defs>
  <g id="Camada_1-2" data-name="Camada 1">
    <g>
      <path class="cls-1" d="M256.03,3.44l2.62-1.2c8.16-3.74,17.72-2.74,24.92,2.62l2.31,1.72c5.75,4.27,13.07,5.83,20.05,4.26l2.81-.63c8.76-1.96,17.9,1.01,23.83,7.74l1.91,2.16c4.73,5.37,11.57,8.42,18.73,8.34l2.88-.03c8.98-.1,17.3,4.7,21.7,12.53l1.41,2.51c3.51,6.24,9.57,10.64,16.58,12.05l2.83.57c8.8,1.77,15.94,8.2,18.62,16.77l.86,2.75c2.14,6.83,7.15,12.39,13.72,15.23l2.65,1.14c8.24,3.56,13.89,11.33,14.73,20.28l.27,2.87c.67,7.13,4.41,13.61,10.25,17.75l2.35,1.67c7.32,5.2,11.23,13.97,10.19,22.89l-.33,2.86c-.83,7.11,1.49,14.23,6.33,19.5l1.95,2.12c6.08,6.61,8.08,16,5.21,24.51l-.92,2.73c-2.29,6.78-1.5,14.23,2.14,20.39l1.47,2.48c4.57,7.73,4.57,17.33,0,25.06l-1.47,2.48c-3.65,6.16-4.43,13.6-2.14,20.39l.92,2.73c2.87,8.51.87,17.91-5.21,24.51l-1.95,2.12c-4.85,5.27-7.16,12.39-6.33,19.5l.33,2.86c1.04,8.92-2.87,17.7-10.19,22.89l-2.35,1.67c-5.84,4.14-9.58,10.63-10.25,17.75l-.27,2.87c-.84,8.94-6.49,16.71-14.73,20.28l-2.65,1.14c-6.57,2.84-11.58,8.4-13.72,15.23l-.86,2.75c-2.68,8.57-9.82,15-18.62,16.77l-2.83.57c-7.02,1.41-13.07,5.81-16.58,12.05l-1.41,2.51c-4.4,7.83-12.72,12.63-21.7,12.53l-2.88-.03c-7.16-.08-14,2.97-18.73,8.34l-1.91,2.16c-5.94,6.74-15.07,9.71-23.83,7.74l-2.81-.63c-6.99-1.56-14.31,0-20.05,4.26l-2.31,1.72c-7.21,5.36-16.76,6.36-24.92,2.62l-2.62-1.2c-6.51-2.98-13.99-2.98-20.5,0l-2.62,1.2c-8.16,3.74-17.72,2.74-24.92-2.62l-2.31-1.72c-5.75-4.27-13.07-5.83-20.05-4.26l-2.81.63c-8.76,1.96-17.9-1.01-23.83-7.74l-1.91-2.16c-4.73-5.37-11.57-8.42-18.73-8.34l-2.88.03c-8.98.1-17.3-4.7-21.7-12.53l-1.41-2.51c-3.51-6.24-9.57-10.64-16.58-12.05l-2.83-.57c-8.8-1.77-15.94-8.2-18.62-16.77l-.86-2.75c-2.14-6.83-7.15-12.39-13.72-15.23l-2.65-1.14c-8.24-3.56-13.89-11.33-14.73-20.28l-.27-2.87c-.67-7.13-4.41-13.61-10.25-17.75l-2.35-1.67c-7.32-5.2-11.23-13.97-10.19-22.89l.33-2.86c.83-7.11-1.49-14.23-6.33-19.5l-1.95-2.12c-6.08-6.61-8.08-16-5.21-24.51l.92-2.73c2.29-6.78,1.5-14.23-2.14-20.39l-1.47-2.48c-4.57-7.73-4.57-17.33,0-25.06l1.47-2.48c3.65-6.16,4.43-13.6,2.14-20.39l-.92-2.73c-2.87-8.51-.87-17.91,5.21-24.51l1.95-2.12c4.85-5.27,7.16-12.39,6.33-19.5l-.33-2.86c-1.04-8.92,2.87-17.7,10.19-22.89l2.35-1.67c5.84-4.14,9.58-10.63,10.25-17.75l.27-2.87c.84-8.94,6.49-16.71,14.73-20.28l2.65-1.14c6.57-2.84,11.58-8.4,13.72-15.23l.86-2.75c2.68-8.57,9.82-15,18.62-16.77l2.83-.57c7.02-1.41,13.07-5.81,16.58-12.05l1.41-2.51c4.4-7.83,12.72-12.63,21.7-12.53l2.88.03c7.16.08,14-2.97,18.73-8.34l1.91-2.16c5.94-6.74,15.07-9.71,23.83-7.74l2.81.63c6.99,1.56,14.31,0,20.05-4.26l2.31-1.72c7.21-5.36,16.76-6.36,24.92-2.62l2.62,1.2c6.51,2.98,13.99,2.98,20.5,0Z"/>
      <path class="cls-3" d="M255.28,17.97l2.76-1.27c7.57-3.47,16.43-2.54,23.11,2.43l2.44,1.81c5.33,3.96,12.11,5.4,18.59,3.95l2.97-.66c8.13-1.82,16.6.93,22.1,7.18l2.01,2.28c4.39,4.98,10.73,7.8,17.36,7.73l3.04-.03c8.33-.09,16.04,4.36,20.12,11.62l1.49,2.65c3.26,5.78,8.87,9.86,15.38,11.17l2.98.6c8.16,1.64,14.78,7.6,17.27,15.55l.91,2.9c1.98,6.33,6.63,11.49,12.72,14.12l2.79,1.21c7.64,3.3,12.88,10.51,13.66,18.8l.28,3.03c.62,6.61,4.09,12.62,9.5,16.46l2.48,1.76c6.79,4.82,10.41,12.96,9.45,21.23l-.35,3.02c-.77,6.59,1.38,13.19,5.87,18.08l2.06,2.24c5.64,6.13,7.49,14.84,4.83,22.73l-.97,2.88c-2.12,6.29-1.39,13.19,1.99,18.9l1.55,2.62c4.24,7.16,4.24,16.07,0,23.24l-1.55,2.62c-3.38,5.71-4.11,12.61-1.99,18.9l.97,2.88c2.66,7.89.81,16.6-4.83,22.73l-2.06,2.24c-4.5,4.88-6.64,11.48-5.87,18.08l.35,3.02c.96,8.27-2.66,16.41-9.45,21.23l-2.48,1.76c-5.41,3.84-8.88,9.85-9.5,16.46l-.28,3.03c-.78,8.29-6.02,15.5-13.66,18.8l-2.79,1.21c-6.09,2.63-10.74,7.79-12.72,14.12l-.91,2.9c-2.49,7.95-9.11,13.91-17.27,15.55l-2.98.6c-6.51,1.31-12.12,5.39-15.38,11.17l-1.49,2.65c-4.08,7.26-11.8,11.71-20.12,11.62l-3.04-.03c-6.64-.07-12.98,2.75-17.36,7.73l-2.01,2.28c-5.5,6.25-13.97,9-22.1,7.18l-2.97-.66c-6.48-1.45-13.26,0-18.59,3.95l-2.44,1.81c-6.68,4.97-15.54,5.9-23.11,2.43l-2.76-1.27c-6.03-2.77-12.97-2.77-19.01,0l-2.76,1.27c-7.57,3.47-16.43,2.54-23.11-2.43l-2.44-1.81c-5.33-3.96-12.11-5.4-18.59-3.95l-2.97.66c-8.13,1.82-16.6-.93-22.1-7.18l-2.01-2.28c-4.39-4.98-10.73-7.8-17.36-7.73l-3.04.03c-8.33.09-16.04-4.36-20.12-11.62l-1.49-2.65c-3.26-5.78-8.87-9.86-15.38-11.17l-2.98-.6c-8.16-1.64-14.78-7.6-17.27-15.55l-.91-2.9c-1.98-6.33-6.63-11.49-12.72-14.12l-2.79-1.21c-7.64-3.3-12.88-10.51-13.66-18.8l-.28-3.03c-.62-6.61-4.09-12.62-9.5-16.46l-2.48-1.76c-6.79-4.82-10.41-12.96-9.45-21.23l.35-3.02c.77-6.59-1.38-13.19-5.87-18.08l-2.06-2.24c-5.64-6.13-7.49-14.84-4.83-22.73l.97-2.88c2.12-6.29,1.39-13.19-1.99-18.9l-1.55-2.62c-4.24-7.16-4.24-16.07,0-23.24l1.55-2.62c3.38-5.71,4.11-12.61,1.99-18.9l-.97-2.88c-2.66-7.89-.81-16.6,4.83-22.73l2.06-2.24c4.5-4.88,6.64-11.48,5.87-18.08l-.35-3.02c-.96-8.27,2.66-16.41,9.45-21.23l2.48-1.76c5.41-3.84,8.88-9.85,9.5-16.46l.28-3.03c.78-8.29,6.02-15.5,13.66-18.8l2.79-1.21c6.09-2.63,10.74-7.79,12.72-14.12l.91-2.9c2.49-7.95,9.11-13.91,17.27-15.55l2.98-.6c6.51-1.31,12.12-5.39,15.38-11.17l1.49-2.65c4.08-7.26,11.8-11.71,20.12-11.62l3.04.03c6.64.07,12.98-2.75,17.36-7.73l2.01-2.28c5.5-6.25,13.97-9,22.1-7.18l2.97.66c6.48,1.45,13.26,0,18.59-3.95l2.44-1.81c6.68-4.97,15.54-5.9,23.11-2.43l2.76,1.27c6.03,2.77,12.97,2.77,19.01,0Z"/>
      <g>
        <g>
          <g>
            <path class="cls-1" d="M270.67,82.14c-1.73-1.16-3.71-1.76-5.76-2.11-4.76-.82-9.54-.34-14.31.5-10.05,1.77-19.93,4.31-29.69,7.44-10.5,3.36-20.78,7.39-30.82,12.05-14.74,6.84-28.81,14.88-42.07,24.41-9.55,6.87-18.6,14.35-26.81,22.81-17.6,18.12-17.12,18.1-24.33,27.61,0,0,0,0,0,0,0,0,0,0,0,0-.4-.41-.76-.85-1.12-1.28,0,0,0,.02-.01.03-5.17-6.1-6.54-13.81-5.61-22.89,3.07-28.45,25.36-36.3,32.84-32.32,9.48,5.07,2,19.51-15.25,18.2,0,0-3.89.83-4.68,2.12-.97,1.78.34,2.98,4.36,3.29,17.25,1.31,35.08-18.91,18.89-27.38-11.96-6.32-50.31,2.37-56.67,39.01-2.72,15.11,2.4,29.24,12.89,39.05-21.29,28.91-33.21,57.79-27.19,79.71,10.79,39.14,74.83,19.51,83.53-37.54,4.08-25.8-8.79-44.11-29.89-52.52-2.43-.79-4.66-1.85-6.46-3.2.13-.14.27-.29.41-.43,0,0,0,0-.02-.01,10.66-11.97,11.87-13.27,17.57-18.62,9.86-9.26,18.93-16.06,29.33-22.86,11.49-7.5,23.46-14.09,35.9-19.77,10.68-4.88,21.6-9.03,32.88-12.13,8.03-2.21,16.16-3.8,24.4-4.46,8.99-.72,17.85-.25,26.4,2.44.63.2,1.01.11,1.32-.5,1.67-3.3,3.29-6.63,3.84-10.3.63-4.21-.22-7.86-3.87-10.31ZM118.06,235.23c-1.68,50.85-46.29,64.23-56.27,32.19-5.62-18.49,6.07-45.23,25.66-70.62,3.54,2.25,7.3,4.47,11.45,5.93,15.67,5.98,19.74,17.02,19.17,32.49Z"/>
            <path class="cls-1" d="M242.18,212.67c8.42,1.97,18.59-3.32,28.23-15.29,5.74-7.18,7.7-8.41,6.54-4.27-.33,1.22-2.24,5.01-5.94,9.54-8.62,10.65-20.94,15.57-30.82,13.13-6.63,9.64-13.84,18.21-21.65,25.71-15.82,15.25-28.51,16.97-29.34-8.78-4.28,5.55-8.85,10.68-13.7,15.39-19.62,18.87-34.31,17.39-27.81-32.33,1.33-10.93,4.19-33.05,6.62-50.67,4.22-30.72,12.69-30.39,22.24-26.73,1.72.67,2.97,1.41,2.97,1.41-.98,5.75-7.1,44.45-12.61,88.43-2.73,21.17.21,22.35,7.2,15.91,7.84-7.26,12.3-21.47,18.24-49.43,1.13-8.57,2.31-18.77,3.89-29.51,4.19-30.95,12.66-30.62,22.21-26.96,1.74.9,2.97,1.41,2.97,1.41-.96,5.98-5.96,37.98-11.48,81.96-2.73,21.17.21,22.35,7.2,15.91,5.28-5.01,9.97-13.19,14.31-26.44-2.59-2.17-4.62-5.58-6.24-9.53-7.65-19.81-1.71-68.28,16.18-75.69,17.69-7.15,25.8,4.43,21.8,30.92-3.35,21.96-10.87,40.14-21.01,55.91ZM233.23,206.12c2.56-8.32,4.94-18.24,7.52-30.53,6.87-34.16,5.25-46.27-.34-44.01-10.56,3.95-17.47,52.11-10.7,68.32.98,2.41,2.16,4.56,3.52,6.22Z"/>
            <path class="cls-1" d="M288.72,205.99c3.74,22.5,18.37,29.58,29.91,21.98,9.81-6.4,18.24-18.65,27.15-47.3,2.74-8.81,4.17-10.66,4.67-6.31.13,1.15-.32,5.41-2.04,10.8-8.15,25.03-15.14,39.63-30.65,49.47-26.2,16.61-57.12,2.25-49-53.79,8.44-59.35,55.73-73.84,69.03-55.83,12.81,17.85-19.02,63.07-49.06,80.97ZM288.14,200.95c23.39-16.65,37.56-56.59,29.19-70.46-9.22-15.13-20.82.17-28.19,48.39-1.39,8.37-1.49,15.62-.99,22.07Z"/>
            <path class="cls-1" d="M359.05,190.29c1.83,26.29,16.21,35.28,28.42,27.34,9.78-6.63,18.22-18.88,27.12-47.53,2.97-8.85,4.17-10.66,4.67-6.31.16,1.37-.32,5.41-2.04,10.8-7.92,24.99-15.14,39.63-30.65,49.47-26.2,16.61-54.82,1.89-46.7-54.14,8.34-58.16,55.48-71.93,66.03-57.47,10.58,14.69-18.18,54.08-46.84,77.83ZM359.09,184.45c26.85-23.24,35.08-57.84,29.3-67.44-6.63-10.87-20.69,3.41-27.91,50.91-.93,6.2-1.51,11.42-1.39,16.53Z"/>
            <path class="cls-1" d="M419.44,108.04c1.15-.18,2.28-.58,2.78-2.29,2.96-23.3,2.73-31.43,2.73-31.43,0,0,.69-.11,1.58-.48,14.49-4.32,20.32,3.64,17.42,27.4-.15,2.82.8,2.91,3.1,2.55l1.15-.18c8.52-1.31,9.72-1.03,8.72.52-.99,1.55-4.8,3.07-8.71,3.67l-2.07.32c-2.3.35-3.2.72-3.62,3.12-2.36,16.22-8.7,59.15-11.08,77.24-2.73,21.17,5.37,20.39,9.32,11.86,4.94-10.08,7.12-17.65,12.49-36.19,2.74-8.81,4.17-10.66,4.66-6.31.16,1.37-.55,5.45-2.04,10.8-4.66,16.57-6.57,22.46-12.42,34.78-11.24,24.57-37.73,22.35-31.2-27.15,2.86-22.12,5.81-37.26,8.42-57.48l.48-4.04c-.06-2.56-.77-2.68-2.62-2.4l-1.15.18c-8.52,1.31-9.72,1.03-8.73-.52.99-1.55,4.8-3.07,8.71-3.67l2.07-.32Z"/>
            <path class="cls-1" d="M360.41,353.12l-5.89,27.36-5.81.88-6.86-16.2-3.62,17.79-5.88.89-10.75-24.83,6.05-.92,6.78,16.13,3.46-17.69,6.19-.94,6.67,16.07,3.57-17.63,6.09-.93Z"/>
            <path class="cls-1" d="M380.27,350.1l.66,5.81-12.35,1.88.51,4.48,10.31-1.57.61,5.43-10.31,1.57.5,4.48,12.35-1.88.66,5.82-18.02,2.74-2.93-26.02,18.02-2.74Z"/>
            <path class="cls-1" d="M400.82,346.97l.66,5.81-12.35,1.88.51,4.48,10.31-1.57.61,5.43-10.31,1.57.5,4.48,12.35-1.88.66,5.82-18.02,2.74-2.93-26.02,18.02-2.74Z"/>
            <path class="cls-1" d="M418.22,354.99l11.57,14.04-7.37,1.12-7.65-9.77-3.49,5.51.66,5.85-5.67.86-2.93-26.02,5.67-.86,1.29,11.44,7.7-12.81,7.13-1.08-6.91,11.71Z"/>
            <path class="cls-1" d="M69.97,343.1c-12.69,3.08-21.54,16.67-23.57,30.34-2.46,16.56,6.75,37.54,34.11,30.52,24.95-6.66,28.43-35.8,26.06-56.51-24.05,4.64-35.03,14.41-30.31,25.92,4.11,9.53,21.73,8.14,17.91-7.08,0,0,0-1.69.51-2.15.7-.48,2.04-.31,2.42,1.32,4.05,15.56-15.8,23.88-23.66,9.66-5.48-9.89-1.18-33.51,41.53-41.95,19.8-3.79,24.85-12.47,22.87-19.89-2.81-9.73-13.69-9-18.45,3.96,0,0-.97,1.47-1.71,1.58-.95-.04-1.47-1.28-.9-2.87,4.78-12.78,20.15-17.21,23.92-4.05,3.34,12.66-3.09,25.88-21.81,32.52,2.13,23.57-10.22,56.15-40.66,64.4-36.11,9.88-50.79-11.02-47.83-31.42,2.47-18.07,16.34-29.05,29.13-34.59-14.11-2.73-22.67-14.77-19.85-31.39,4.9-28.23,41.23-42.84,58.75-33.49,19.89,10.31,5.21,40.6-16.4,40.16-3.22-.07-4.28-1.04-3.66-2.26.62-1.22,3.73-2.08,3.73-2.08,21.6.45,27.94-25.18,13.65-32.77-13.9-7.46-35.8,4.37-39.33,28.06-2.62,16.78,4.99,30.47,20.79,28.05,2.97-.46,6.57,2.94-2.07,5.02-1.84.47-3.51.73-5.18.98Z"/>
            <path class="cls-1" d="M228.59,276.94c-4.53,6.72-12.53,9.45-16.8,5.22-5.34-5.39-1.01-13.77,5.23-13.79,9.25-.1,14.76-11.49,8.77-17.53-9.21-9.5-32.39,11-40.84,66.12-6.48,42.59,10.75,61.02,21.37,54.68,8.15-4.83,15.47-15.17,22.66-38.3,2.21-7.11,3.36-8.61,3.77-5.1.13,1.11-.26,4.37-1.65,8.72-6.58,20.21-12.74,32.44-25.69,39.89-19.86,11.52-44.5-5.59-36.91-58.32,9.13-64.07,47.99-81.33,60.47-69.7,6.36,5.99,4.74,19.97-.38,28.1Z"/>
            <path class="cls-1" d="M264.68,275.16c-12.18.93-18.21,17.66-21.79,47.57-4.27,35.47-.71,45.09,6.12,43.66,5.72-1.25,10.75-18.4,14.39-41.17-2.46-1.69-4.97-3.75-6.81-6.67-9.72-13.94-7.25-33.7,7.02-39.47,11.74-4.81,22.03,4.14,16.69,40.16l-.67,4.06c2.85-1.57,5.96-4.11,9.09-8.17,4.82-5.82,6.41-6.82,5.46-3.47-.27.98-1.99,4.07-4.79,7.7-3.31,4.08-6.82,6.51-10.47,7.63-6,26.89-20.69,42.32-31.42,44.35-10.36,1.97-27.13-5.81-21.25-46.98,4.57-31.19,18.33-51.37,38.61-52.6,5.99-.54,3.02,3.3-.18,3.41ZM264.07,321.18c4.12-28.49,4.36-39.63-1.09-37.66-8.52,3.19-11.53,21.53-3.22,33.05,1.35,1.86,2.65,3.36,4.31,4.61Z"/>
            <path class="cls-1" d="M361.76,322.36c1.48,21.23,13.08,28.48,22.94,22.07,7.9-5.35,14.71-15.24,21.9-38.37,2.4-7.14,3.36-8.61,3.77-5.1.13,1.11-.26,4.37-1.65,8.72-6.39,20.18-12.23,31.99-24.74,39.93-21.15,13.41-44.25,1.53-37.7-43.7,6.73-46.95,44.79-58.07,53.31-46.39,8.54,11.86-14.67,43.66-37.82,62.83ZM361.79,317.65c21.68-18.76,28.32-46.69,23.65-54.45-5.35-8.78-16.7,2.75-22.53,41.1-.75,5.01-1.22,9.22-1.12,13.35Z"/>
            <path class="cls-1" d="M419.35,313.51c1.48,21.23,13.09,28.48,22.94,22.07,7.9-5.35,14.71-15.24,21.9-38.37,2.4-7.14,3.36-8.61,3.77-5.1.13,1.11-.26,4.37-1.65,8.72-6.39,20.18-12.23,31.99-24.74,39.93-21.15,13.41-44.25,1.53-37.7-43.7,6.73-46.95,44.79-58.07,53.31-46.39,8.54,11.86-14.67,43.66-37.82,62.83ZM419.38,308.8c21.68-18.76,28.32-46.69,23.65-54.45-5.35-8.78-16.7,2.75-22.53,41.1-.75,5.01-1.22,9.22-1.12,13.35Z"/>
            <path class="cls-1" d="M372.61,223.77c-8.68-11.46-40.09-1.75-47.37,43.79-.39,1.57-.95,1.65-2.62,1.91l-1.67.26c-3.16.49-6.23,1.71-7.03,2.96-.8,1.25.17,1.48,7.04.42l.93-.14c2.04-.31,2.44-.19,2.09,3.44l-12.33,80.75c-6.5,42.4-21.1,48.6-26.78,41.94-.21-.25-.41-.51-.59-.76-.79,1.11-1.6,2.13-2.42,3.08.1.12.19.25.29.37,7.91,9.7,37.65,10.21,45.96-46.2l12.14-80.72.19-.03c.61-4.61.96-4.85,3.37-5.22l1.67-.26c3.16-.49,6.23-1.71,7.03-2.96.8-1.25-.17-1.48-7.04-.42l-.93.14c-2.23.34-2.62.21-2.12-3.63,6.48-34.31,21.01-44.44,27.19-36.73,5.3,6.71.14,14.47-9.11,14.57-6.24.02-10.57,8.4-5.23,13.79,4.26,4.24,12.27,1.5,16.61-5.19,5.31-8.15,5.84-18.4.72-25.14Z"/>
            <path class="cls-1" d="M342.14,228.45c-8.68-11.46-40.09-1.75-47.37,43.79-.39,1.57-.95,1.65-2.62,1.91l-1.67.26c-3.16.49-6.23,1.71-7.03,2.96-.8,1.25.17,1.48,7.04.42l.93-.14c2.04-.31,2.44-.19,2.09,3.44l-1.33,8.74s-.07-.03-.11-.04l-10.96,71.76c-6.49,42.31-21.06,48.5-26.72,41.85-5-5.8-1.46-14.42,8.02-14,5.71.44,10.06-7.74,4.93-12.97-4.26-4.23-11.28-1.27-15.44,5.19-4.99,7.53-5.68,17.96-.23,24.45,7.9,9.68,37.58,10.19,45.86-46.11l8.05-53.49s.09.05.13.07l4.07-27.03.19-.03c.61-4.61.96-4.85,3.37-5.22l1.67-.26c.6-.09,1.2-.21,1.78-.35-3.08.31-3.47-.05-2.88-.98.65-1.01,2.79-2.01,5.26-2.61-1.05.11-2.42.29-4.17.56l-.93.14c-2.23.34-2.62.21-2.12-3.63,6.48-34.31,21.01-44.44,27.19-36.73.37.47.69.95.96,1.43.82-.97,1.66-1.88,2.51-2.73-.15-.23-.31-.45-.48-.67Z"/>
          </g>
          <path class="cls-1" d="M270.67,82.14c-1.73-1.16-3.71-1.76-5.76-2.11-4.76-.82-9.54-.34-14.31.5-10.05,1.77-19.93,4.31-29.69,7.44-10.5,3.36-20.78,7.39-30.82,12.05-14.74,6.84-28.81,14.88-42.07,24.41-9.55,6.87-18.6,14.35-26.81,22.81-17.6,18.12-17.12,18.1-24.33,27.61,0,0,0,0,0,0,0,0,0,0,0,0-.4-.41-.76-.85-1.12-1.28,0,0,0,.02-.01.03-5.17-6.1-6.54-13.81-5.61-22.89,3.07-28.45,25.36-36.3,32.84-32.32,9.48,5.07,2,19.51-15.25,18.2,0,0-3.89.83-4.68,2.12-.97,1.78.34,2.98,4.36,3.29,17.25,1.31,35.08-18.91,18.89-27.38-11.96-6.32-50.31,2.37-56.67,39.01-2.72,15.11,2.4,29.24,12.89,39.05-21.29,28.91-33.21,57.79-27.19,79.71,10.79,39.14,74.83,19.51,83.53-37.54,4.08-25.8-8.79-44.11-29.89-52.52-2.43-.79-4.66-1.85-6.46-3.2.13-.14.27-.29.41-.43,0,0,0,0-.02-.01,10.66-11.97,11.87-13.27,17.57-18.62,9.86-9.26,18.93-16.06,29.33-22.86,11.49-7.5,23.46-14.09,35.9-19.77,10.68-4.88,21.6-9.03,32.88-12.13,8.03-2.21,16.16-3.8,24.4-4.46,8.99-.72,17.85-.25,26.4,2.44.63.2,1.01.11,1.32-.5,1.67-3.3,3.29-6.63,3.84-10.3.63-4.21-.22-7.86-3.87-10.31ZM118.06,235.23c-1.68,50.85-46.29,64.23-56.27,32.19-5.62-18.49,6.07-45.23,25.66-70.62,3.54,2.25,7.3,4.47,11.45,5.93,15.67,5.98,19.74,17.02,19.17,32.49Z"/>
          <path class="cls-1" d="M242.18,212.67c8.42,1.97,18.59-3.32,28.23-15.29,5.74-7.18,7.7-8.41,6.54-4.27-.33,1.22-2.24,5.01-5.94,9.54-8.62,10.65-20.94,15.57-30.82,13.13-6.63,9.64-13.84,18.21-21.65,25.71-15.82,15.25-28.51,16.97-29.34-8.78-4.28,5.55-8.85,10.68-13.7,15.39-19.62,18.87-34.31,17.39-27.81-32.33,1.33-10.93,4.19-33.05,6.62-50.67,4.22-30.72,12.69-30.39,22.24-26.73,1.72.67,2.97,1.41,2.97,1.41-.98,5.75-7.1,44.45-12.61,88.43-2.73,21.17.21,22.35,7.2,15.91,7.84-7.26,12.3-21.47,18.24-49.43,1.13-8.57,2.31-18.77,3.89-29.51,4.19-30.95,12.66-30.62,22.21-26.96,1.74.9,2.97,1.41,2.97,1.41-.96,5.98-5.96,37.98-11.48,81.96-2.73,21.17.21,22.35,7.2,15.91,5.28-5.01,9.97-13.19,14.31-26.44-2.59-2.17-4.62-5.58-6.24-9.53-7.65-19.81-1.71-68.28,16.18-75.69,17.69-7.15,25.8,4.43,21.8,30.92-3.35,21.96-10.87,40.14-21.01,55.91ZM233.23,206.12c2.56-8.32,4.94-18.24,7.52-30.53,6.87-34.16,5.25-46.27-.34-44.01-10.56,3.95-17.47,52.11-10.7,68.32.98,2.41,2.16,4.56,3.52,6.22Z"/>
          <path class="cls-1" d="M288.72,205.99c3.74,22.5,18.37,29.58,29.91,21.98,9.81-6.4,18.24-18.65,27.15-47.3,2.74-8.81,4.17-10.66,4.67-6.31.13,1.15-.32,5.41-2.04,10.8-8.15,25.03-15.14,39.63-30.65,49.47-26.2,16.61-57.12,2.25-49-53.79,8.44-59.35,55.73-73.84,69.03-55.83,12.81,17.85-19.02,63.07-49.06,80.97ZM288.14,200.95c23.39-16.65,37.56-56.59,29.19-70.46-9.22-15.13-20.82.17-28.19,48.39-1.39,8.37-1.49,15.62-.99,22.07Z"/>
          <path class="cls-1" d="M359.05,190.29c1.83,26.29,16.21,35.28,28.42,27.34,9.78-6.63,18.22-18.88,27.12-47.53,2.97-8.85,4.17-10.66,4.67-6.31.16,1.37-.32,5.41-2.04,10.8-7.92,24.99-15.14,39.63-30.65,49.47-26.2,16.61-54.82,1.89-46.7-54.14,8.34-58.16,55.48-71.93,66.03-57.47,10.58,14.69-18.18,54.08-46.84,77.83ZM359.09,184.45c26.85-23.24,35.08-57.84,29.3-67.44-6.63-10.87-20.69,3.41-27.91,50.91-.93,6.2-1.51,11.42-1.39,16.53Z"/>
          <path class="cls-1" d="M419.44,108.04c1.15-.18,2.28-.58,2.78-2.29,2.96-23.3,2.73-31.43,2.73-31.43,0,0,.69-.11,1.58-.48,14.49-4.32,20.32,3.64,17.42,27.4-.15,2.82.8,2.91,3.1,2.55l1.15-.18c8.52-1.31,9.72-1.03,8.72.52-.99,1.55-4.8,3.07-8.71,3.67l-2.07.32c-2.3.35-3.2.72-3.62,3.12-2.36,16.22-8.7,59.15-11.08,77.24-2.73,21.17,5.37,20.39,9.32,11.86,4.94-10.08,7.12-17.65,12.49-36.19,2.74-8.81,4.17-10.66,4.66-6.31.16,1.37-.55,5.45-2.04,10.8-4.66,16.57-6.57,22.46-12.42,34.78-11.24,24.57-37.73,22.35-31.2-27.15,2.86-22.12,5.81-37.26,8.42-57.48l.48-4.04c-.06-2.56-.77-2.68-2.62-2.4l-1.15.18c-8.52,1.31-9.72,1.03-8.73-.52.99-1.55,4.8-3.07,8.71-3.67l2.07-.32Z"/>
          <path class="cls-1" d="M69.97,343.1c-12.69,3.08-21.54,16.67-23.57,30.34-2.46,16.56,6.75,37.54,34.11,30.52,24.95-6.66,28.43-35.8,26.06-56.51-24.05,4.64-35.03,14.41-30.31,25.92,4.11,9.53,21.73,8.14,17.91-7.08,0,0,0-1.69.51-2.15.7-.48,2.04-.31,2.42,1.32,4.05,15.56-15.8,23.88-23.66,9.66-5.48-9.89-1.18-33.51,41.53-41.95,19.8-3.79,24.85-12.47,22.87-19.89-2.81-9.73-13.69-9-18.45,3.96,0,0-.97,1.47-1.71,1.58-.95-.04-1.47-1.28-.9-2.87,4.78-12.78,20.15-17.21,23.92-4.05,3.34,12.66-3.09,25.88-21.81,32.52,2.13,23.57-10.22,56.15-40.66,64.4-36.11,9.88-50.79-11.02-47.83-31.42,2.47-18.07,16.34-29.05,29.13-34.59-14.11-2.73-22.67-14.77-19.85-31.39,4.9-28.23,41.23-42.84,58.75-33.49,19.89,10.31,5.21,40.6-16.4,40.16-3.22-.07-4.28-1.04-3.66-2.26.62-1.22,3.73-2.08,3.73-2.08,21.6.45,27.94-25.18,13.65-32.77-13.9-7.46-35.8,4.37-39.33,28.06-2.62,16.78,4.99,30.47,20.79,28.05,2.97-.46,6.57,2.94-2.07,5.02-1.84.47-3.51.73-5.18.98Z"/>
          <path class="cls-1" d="M228.59,276.94c-4.53,6.72-12.53,9.45-16.8,5.22-5.34-5.39-1.01-13.77,5.23-13.79,9.25-.1,14.76-11.49,8.77-17.53-9.21-9.5-32.39,11-40.84,66.12-6.48,42.59,10.75,61.02,21.37,54.68,8.15-4.83,15.47-15.17,22.66-38.3,2.21-7.11,3.36-8.61,3.77-5.1.13,1.11-.26,4.37-1.65,8.72-6.58,20.21-12.74,32.44-25.69,39.89-19.86,11.52-44.5-5.59-36.91-58.32,9.13-64.07,47.99-81.33,60.47-69.7,6.36,5.99,4.74,19.97-.38,28.1Z"/>
          <path class="cls-1" d="M264.68,275.16c-12.18.93-18.21,17.66-21.79,47.57-4.27,35.47-.71,45.09,6.12,43.66,5.72-1.25,10.75-18.4,14.39-41.17-2.46-1.69-4.97-3.75-6.81-6.67-9.72-13.94-7.25-33.7,7.02-39.47,11.74-4.81,22.03,4.14,16.69,40.16l-.67,4.06c2.85-1.57,5.96-4.11,9.09-8.17,4.82-5.82,6.41-6.82,5.46-3.47-.27.98-1.99,4.07-4.79,7.7-3.31,4.08-6.82,6.51-10.47,7.63-6,26.89-20.69,42.32-31.42,44.35-10.36,1.97-27.13-5.81-21.25-46.98,4.57-31.19,18.33-51.37,38.61-52.6,5.99-.54,3.02,3.3-.18,3.41ZM264.07,321.18c4.12-28.49,4.36-39.63-1.09-37.66-8.52,3.19-11.53,21.53-3.22,33.05,1.35,1.86,2.65,3.36,4.31,4.61Z"/>
          <path class="cls-1" d="M361.76,322.36c1.48,21.23,13.08,28.48,22.94,22.07,7.9-5.35,14.71-15.24,21.9-38.37,2.4-7.14,3.36-8.61,3.77-5.1.13,1.11-.26,4.37-1.65,8.72-6.39,20.18-12.23,31.99-24.74,39.93-21.15,13.41-44.25,1.53-37.7-43.7,6.73-46.95,44.79-58.07,53.31-46.39,8.54,11.86-14.67,43.66-37.82,62.83ZM361.79,317.65c21.68-18.76,28.32-46.69,23.65-54.45-5.35-8.78-16.7,2.75-22.53,41.1-.75,5.01-1.22,9.22-1.12,13.35Z"/>
          <path class="cls-1" d="M419.35,313.51c1.48,21.23,13.09,28.48,22.94,22.07,7.9-5.35,14.71-15.24,21.9-38.37,2.4-7.14,3.36-8.61,3.77-5.1.13,1.11-.26,4.37-1.65,8.72-6.39,20.18-12.23,31.99-24.74,39.93-21.15,13.41-44.25,1.53-37.7-43.7,6.73-46.95,44.79-58.07,53.31-46.39,8.54,11.86-14.67,43.66-37.82,62.83ZM419.38,308.8c21.68-18.76,28.32-46.69,23.65-54.45-5.35-8.78-16.7,2.75-22.53,41.1-.75,5.01-1.22,9.22-1.12,13.35Z"/>
          <path class="cls-1" d="M372.61,223.77c-8.68-11.46-40.09-1.75-47.37,43.79-.39,1.57-.95,1.65-2.62,1.91l-1.67.26c-3.16.49-6.23,1.71-7.03,2.96-.8,1.25.17,1.48,7.04.42l.93-.14c2.04-.31,2.44-.19,2.09,3.44l-12.33,80.75c-6.5,42.4-21.1,48.6-26.78,41.94-.21-.25-.41-.51-.59-.76-.79,1.11-1.6,2.13-2.42,3.08.1.12.19.25.29.37,7.91,9.7,37.65,10.21,45.96-46.2l12.14-80.72.19-.03c.61-4.61.96-4.85,3.37-5.22l1.67-.26c3.16-.49,6.23-1.71,7.03-2.96.8-1.25-.17-1.48-7.04-.42l-.93.14c-2.23.34-2.62.21-2.12-3.63,6.48-34.31,21.01-44.44,27.19-36.73,5.3,6.71.14,14.47-9.11,14.57-6.24.02-10.57,8.4-5.23,13.79,4.26,4.24,12.27,1.5,16.61-5.19,5.31-8.15,5.84-18.4.72-25.14Z"/>
          <path class="cls-1" d="M342.14,228.45c-8.68-11.46-40.09-1.75-47.37,43.79-.39,1.57-.95,1.65-2.62,1.91l-1.67.26c-3.16.49-6.23,1.71-7.03,2.96-.8,1.25.17,1.48,7.04.42l.93-.14c2.04-.31,2.44-.19,2.09,3.44l-1.33,8.74s-.07-.03-.11-.04l-10.96,71.76c-6.49,42.31-21.06,48.5-26.72,41.85-5-5.8-1.46-14.42,8.02-14,5.71.44,10.06-7.74,4.93-12.97-4.26-4.23-11.28-1.27-15.44,5.19-4.99,7.53-5.68,17.96-.23,24.45,7.9,9.68,37.58,10.19,45.86-46.11l8.05-53.49s.09.05.13.07l4.07-27.03.19-.03c.61-4.61.96-4.85,3.37-5.22l1.67-.26c.6-.09,1.2-.21,1.78-.35-3.08.31-3.47-.05-2.88-.98.65-1.01,2.79-2.01,5.26-2.61-1.05.11-2.42.29-4.17.56l-.93.14c-2.23.34-2.62.21-2.12-3.63,6.48-34.31,21.01-44.44,27.19-36.73.37.47.69.95.96,1.43.82-.97,1.66-1.88,2.51-2.73-.15-.23-.31-.45-.48-.67Z"/>
        </g>
        <g>
          <path class="cls-2" d="M266.18,77.83c-1.73-1.16-3.71-1.76-5.76-2.11-4.76-.82-9.54-.34-14.31.5-10.05,1.77-19.93,4.31-29.69,7.44-10.5,3.36-20.78,7.39-30.82,12.05-14.74,6.84-28.81,14.88-42.07,24.41-9.55,6.87-18.6,14.35-26.81,22.81-17.6,18.12-17.12,18.1-24.33,27.61,0,0,0,0,0,0,0,0,0,0,0,0-.4-.41-.76-.85-1.12-1.28,0,0,0,.02-.01.03-5.17-6.1-6.54-13.81-5.61-22.89,3.07-28.45,25.36-36.3,32.84-32.32,9.48,5.07,2,19.51-15.25,18.2,0,0-3.89.83-4.68,2.12-.97,1.78.34,2.98,4.36,3.29,17.25,1.31,35.08-18.91,18.89-27.38-11.96-6.32-50.31,2.37-56.67,39.01-2.72,15.11,2.4,29.24,12.89,39.05-21.29,28.91-33.21,57.79-27.19,79.71,10.79,39.14,74.83,19.51,83.53-37.54,4.08-25.8-8.79-44.11-29.89-52.52-2.43-.79-4.66-1.85-6.46-3.2.13-.14.27-.29.41-.43,0,0,0,0-.02-.01,10.66-11.97,11.87-13.27,17.57-18.62,9.86-9.26,18.93-16.06,29.33-22.86,11.49-7.5,23.46-14.09,35.9-19.77,10.68-4.88,21.6-9.03,32.88-12.13,8.03-2.21,16.16-3.8,24.4-4.46,8.99-.72,17.85-.25,26.4,2.44.63.2,1.01.11,1.32-.5,1.67-3.3,3.29-6.63,3.84-10.3.63-4.21-.22-7.86-3.87-10.31ZM113.58,230.92c-1.68,50.85-46.29,64.23-56.27,32.19-5.62-18.49,6.07-45.23,25.66-70.62,3.54,2.25,7.3,4.47,11.45,5.93,15.67,5.98,19.74,17.02,19.17,32.49Z"/>
          <path class="cls-2" d="M237.69,208.36c8.42,1.97,18.59-3.32,28.23-15.29,5.74-7.18,7.7-8.41,6.54-4.27-.33,1.22-2.24,5.01-5.94,9.54-8.62,10.65-20.94,15.57-30.82,13.13-6.63,9.64-13.84,18.21-21.65,25.71-15.82,15.25-28.51,16.97-29.34-8.78-4.28,5.55-8.85,10.68-13.7,15.39-19.62,18.87-34.31,17.39-27.81-32.33,1.33-10.93,4.19-33.05,6.62-50.67,4.22-30.72,12.69-30.39,22.24-26.73,1.72.67,2.97,1.41,2.97,1.41-.98,5.75-7.1,44.45-12.61,88.43-2.73,21.17.21,22.35,7.2,15.91,7.84-7.26,12.3-21.47,18.24-49.43,1.13-8.57,2.31-18.77,3.89-29.51,4.19-30.95,12.66-30.62,22.21-26.96,1.74.9,2.97,1.41,2.97,1.41-.96,5.98-5.96,37.98-11.48,81.96-2.73,21.17.21,22.35,7.2,15.91,5.28-5.01,9.97-13.19,14.31-26.44-2.59-2.17-4.62-5.58-6.24-9.53-7.65-19.81-1.71-68.28,16.18-75.69,17.69-7.15,25.8,4.43,21.8,30.92-3.35,21.96-10.87,40.14-21.01,55.91ZM228.75,201.81c2.56-8.32,4.94-18.24,7.52-30.53,6.87-34.16,5.25-46.27-.34-44.01-10.56,3.95-17.47,52.11-10.7,68.32.98,2.41,2.16,4.56,3.52,6.22Z"/>
          <path class="cls-2" d="M284.23,201.68c3.74,22.5,18.37,29.58,29.91,21.98,9.81-6.4,18.24-18.65,27.15-47.3,2.74-8.81,4.17-10.66,4.67-6.31.13,1.15-.32,5.41-2.04,10.8-8.15,25.03-15.14,39.63-30.65,49.47-26.2,16.61-57.12,2.25-49-53.79,8.44-59.35,55.73-73.84,69.03-55.83,12.81,17.85-19.02,63.07-49.06,80.97ZM283.66,196.64c23.39-16.65,37.56-56.59,29.19-70.46-9.22-15.13-20.82.17-28.19,48.39-1.39,8.37-1.49,15.62-.99,22.07Z"/>
          <path class="cls-2" d="M354.56,185.98c1.83,26.29,16.21,35.28,28.42,27.34,9.78-6.63,18.22-18.88,27.12-47.53,2.97-8.85,4.17-10.66,4.67-6.31.16,1.37-.32,5.41-2.04,10.8-7.92,24.99-15.14,39.63-30.65,49.47-26.2,16.61-54.82,1.89-46.7-54.14,8.34-58.16,55.48-71.93,66.03-57.47,10.58,14.69-18.18,54.08-46.84,77.83ZM354.6,180.15c26.85-23.24,35.08-57.84,29.3-67.44-6.63-10.87-20.69,3.41-27.91,50.91-.93,6.2-1.51,11.42-1.39,16.53Z"/>
          <path class="cls-2" d="M414.95,103.73c1.15-.18,2.28-.58,2.78-2.29,2.96-23.3,2.73-31.43,2.73-31.43,0,0,.69-.11,1.58-.48,14.49-4.32,20.32,3.64,17.42,27.4-.15,2.82.8,2.91,3.1,2.55l1.15-.18c8.52-1.31,9.72-1.03,8.72.52-.99,1.55-4.8,3.07-8.71,3.67l-2.07.32c-2.3.35-3.2.72-3.62,3.12-2.36,16.22-8.7,59.15-11.08,77.24-2.73,21.17,5.37,20.39,9.32,11.86,4.94-10.08,7.12-17.65,12.49-36.19,2.74-8.81,4.17-10.66,4.66-6.31.16,1.37-.55,5.45-2.04,10.8-4.66,16.57-6.57,22.46-12.42,34.78-11.24,24.57-37.73,22.35-31.2-27.15,2.86-22.12,5.81-37.26,8.42-57.48l.48-4.04c-.06-2.56-.77-2.68-2.62-2.4l-1.15.18c-8.52,1.31-9.72,1.03-8.73-.52.99-1.55,4.8-3.07,8.71-3.67l2.07-.32Z"/>
          <path class="cls-2" d="M355.92,348.81l-5.89,27.36-5.81.88-6.86-16.2-3.62,17.79-5.88.89-10.75-24.83,6.05-.92,6.78,16.13,3.46-17.69,6.19-.94,6.67,16.07,3.57-17.63,6.09-.93Z"/>
          <path class="cls-2" d="M375.78,345.79l.66,5.81-12.35,1.88.51,4.48,10.31-1.57.61,5.43-10.31,1.57.5,4.48,12.35-1.88.66,5.82-18.02,2.74-2.93-26.02,18.02-2.74Z"/>
          <path class="cls-2" d="M396.33,342.67l.66,5.81-12.35,1.88.51,4.48,10.31-1.57.61,5.43-10.31,1.57.5,4.48,12.35-1.88.66,5.82-18.02,2.74-2.93-26.02,18.02-2.74Z"/>
          <path class="cls-2" d="M413.73,350.68l11.57,14.04-7.37,1.12-7.65-9.77-3.49,5.51.66,5.85-5.67.86-2.93-26.02,5.67-.86,1.29,11.44,7.7-12.81,7.13-1.08-6.91,11.71Z"/>
          <path class="cls-2" d="M65.48,338.79c-12.69,3.08-21.54,16.67-23.57,30.34-2.46,16.56,6.75,37.54,34.11,30.52,24.95-6.66,28.43-35.8,26.06-56.51-24.05,4.64-35.03,14.41-30.31,25.92,4.11,9.53,21.73,8.14,17.91-7.08,0,0,0-1.69.51-2.15.7-.48,2.04-.31,2.42,1.32,4.05,15.56-15.8,23.88-23.66,9.66-5.48-9.89-1.18-33.51,41.53-41.95,19.8-3.79,24.85-12.47,22.87-19.89-2.81-9.73-13.69-9-18.45,3.96,0,0-.97,1.47-1.71,1.58-.95-.04-1.47-1.28-.9-2.87,4.78-12.78,20.15-17.21,23.92-4.05,3.34,12.66-3.09,25.88-21.81,32.52,2.13,23.57-10.22,56.15-40.66,64.4-36.11,9.88-50.79-11.02-47.83-31.42,2.47-18.07,16.34-29.05,29.13-34.59-14.11-2.73-22.67-14.77-19.85-31.39,4.9-28.23,41.23-42.84,58.75-33.49,19.89,10.31,5.21,40.6-16.4,40.16-3.22-.07-4.28-1.04-3.66-2.26.62-1.22,3.73-2.08,3.73-2.08,21.6.45,27.94-25.18,13.65-32.77-13.9-7.46-35.8,4.37-39.33,28.06-2.62,16.78,4.99,30.47,20.79,28.05,2.97-.46,6.57,2.94-2.07,5.02-1.84.47-3.51.73-5.18.98Z"/>
          <path class="cls-2" d="M224.1,272.64c-4.53,6.72-12.53,9.45-16.8,5.22-5.34-5.39-1.01-13.77,5.23-13.79,9.25-.1,14.76-11.49,8.77-17.53-9.21-9.5-32.39,11-40.84,66.12-6.48,42.59,10.75,61.02,21.37,54.68,8.15-4.83,15.47-15.17,22.66-38.3,2.21-7.11,3.36-8.61,3.77-5.1.13,1.11-.26,4.37-1.65,8.72-6.58,20.21-12.74,32.44-25.69,39.89-19.86,11.52-44.5-5.59-36.91-58.32,9.13-64.07,47.99-81.33,60.47-69.7,6.36,5.99,4.74,19.97-.38,28.1Z"/>
          <path class="cls-2" d="M260.19,270.86c-12.18.93-18.21,17.66-21.79,47.57-4.27,35.47-.71,45.09,6.12,43.66,5.72-1.25,10.75-18.4,14.39-41.17-2.46-1.69-4.97-3.75-6.81-6.67-9.72-13.94-7.25-33.7,7.02-39.47,11.74-4.81,22.03,4.14,16.69,40.16l-.67,4.06c2.85-1.57,5.96-4.11,9.09-8.17,4.82-5.82,6.41-6.82,5.46-3.47-.27.98-1.99,4.07-4.79,7.7-3.31,4.08-6.82,6.51-10.47,7.63-6,26.89-20.69,42.32-31.42,44.35-10.36,1.97-27.13-5.81-21.25-46.98,4.57-31.19,18.33-51.37,38.61-52.6,5.99-.54,3.02,3.3-.18,3.41ZM259.59,316.87c4.12-28.49,4.36-39.63-1.09-37.66-8.52,3.19-11.53,21.53-3.22,33.05,1.35,1.86,2.65,3.36,4.31,4.61Z"/>
          <path class="cls-2" d="M357.27,318.05c1.48,21.23,13.08,28.48,22.94,22.07,7.9-5.35,14.71-15.24,21.9-38.37,2.4-7.14,3.36-8.61,3.77-5.1.13,1.11-.26,4.37-1.65,8.72-6.39,20.18-12.23,31.99-24.74,39.93-21.15,13.41-44.25,1.53-37.7-43.7,6.73-46.95,44.79-58.07,53.31-46.39,8.54,11.86-14.67,43.66-37.82,62.83ZM357.3,313.34c21.68-18.76,28.32-46.69,23.65-54.45-5.35-8.78-16.7,2.75-22.53,41.1-.75,5.01-1.22,9.22-1.12,13.35Z"/>
          <path class="cls-2" d="M414.86,309.2c1.48,21.23,13.09,28.48,22.94,22.07,7.9-5.35,14.71-15.24,21.9-38.37,2.4-7.14,3.36-8.61,3.77-5.1.13,1.11-.26,4.37-1.65,8.72-6.39,20.18-12.23,31.99-24.74,39.93-21.15,13.41-44.25,1.53-37.7-43.7,6.73-46.95,44.79-58.07,53.31-46.39,8.54,11.86-14.67,43.66-37.82,62.83ZM414.89,304.49c21.68-18.76,28.32-46.69,23.65-54.45-5.35-8.78-16.7,2.75-22.53,41.1-.75,5.01-1.22,9.22-1.12,13.35Z"/>
          <path class="cls-2" d="M368.13,219.46c-8.68-11.46-40.09-1.75-47.37,43.79-.39,1.57-.95,1.65-2.62,1.91l-1.67.26c-3.16.49-6.23,1.71-7.03,2.96-.8,1.25.17,1.48,7.04.42l.93-.14c2.04-.31,2.44-.19,2.09,3.44l-12.33,80.75c-6.5,42.4-21.1,48.6-26.78,41.94-.21-.25-.41-.51-.59-.76-.79,1.11-1.6,2.13-2.42,3.08.1.12.19.25.29.37,7.91,9.7,37.65,10.21,45.96-46.2l12.14-80.72.19-.03c.61-4.61.96-4.85,3.37-5.22l1.67-.26c3.16-.49,6.23-1.71,7.03-2.96.8-1.25-.17-1.48-7.04-.42l-.93.14c-2.23.34-2.62.21-2.12-3.63,6.48-34.31,21.01-44.44,27.19-36.73,5.3,6.71.14,14.47-9.11,14.57-6.24.02-10.57,8.4-5.23,13.79,4.26,4.24,12.27,1.5,16.61-5.19,5.31-8.15,5.84-18.4.72-25.14Z"/>
          <path class="cls-2" d="M337.66,224.14c-8.68-11.46-40.09-1.75-47.37,43.79-.39,1.57-.95,1.65-2.62,1.91l-1.67.26c-3.16.49-6.23,1.71-7.03,2.96-.8,1.25.17,1.48,7.04.42l.93-.14c2.04-.31,2.44-.19,2.09,3.44l-1.33,8.74s-.07-.03-.11-.04l-10.96,71.76c-6.49,42.31-21.06,48.5-26.72,41.85-5-5.8-1.46-14.42,8.02-14,5.71.44,10.06-7.74,4.93-12.97-4.26-4.23-11.28-1.27-15.44,5.19-4.99,7.53-5.68,17.96-.23,24.45,7.9,9.68,37.58,10.19,45.86-46.11l8.05-53.49s.09.05.13.07l4.07-27.03.19-.03c.61-4.61.96-4.85,3.37-5.22l1.67-.26c.6-.09,1.2-.21,1.78-.35-3.08.31-3.47-.05-2.88-.98.65-1.01,2.79-2.01,5.26-2.61-1.05.11-2.42.29-4.17.56l-.93.14c-2.23.34-2.62.21-2.12-3.63,6.48-34.31,21.01-44.44,27.19-36.73.37.47.69.95.96,1.43.82-.97,1.66-1.88,2.51-2.73-.15-.23-.31-.45-.48-.67Z"/>
        </g>
      </g>
    </g>
  </g>
</svg>