<?xml version="1.0" encoding="UTF-8"?>
<svg id="Camada_2" data-name="Camada 2" xmlns="http://www.w3.org/2000/svg" viewBox="0 0 437.94 338.62">
  <defs>
    <style>
      .cls-1 {
        fill: #3d1308;
      }
    </style>
  </defs>
  <g id="Camada_1-2" data-name="Camada 1">
    <g>
      <path class="cls-1" d="M240.63,9.42c-1.73-1.16-3.71-1.76-5.76-2.11-4.76-.82-9.54-.34-14.31.5-10.05,1.77-19.93,4.31-29.69,7.44-10.5,3.36-20.78,7.39-30.82,12.05-14.74,6.84-28.81,14.88-42.07,24.41-9.55,6.87-18.6,14.35-26.81,22.81-17.6,18.12-17.12,18.1-24.33,27.61,0,0,0,0,0,0,0,0,0,0,0,0-.4-.41-.76-.85-1.12-1.28,0,0,0,.02-.01.03-5.17-6.1-6.54-13.81-5.61-22.89,3.07-28.45,25.36-36.3,32.84-32.32,9.48,5.07,2,19.51-15.25,18.2,0,0-3.89.83-4.68,2.12-.97,1.78.34,2.98,4.36,3.29,17.25,1.31,35.08-18.91,18.89-27.38-11.96-6.32-50.31,2.37-56.67,39.01-2.72,15.11,2.4,29.24,12.89,39.05-21.29,28.91-33.21,57.79-27.19,79.71,10.79,39.14,74.83,19.51,83.53-37.54,4.08-25.8-8.79-44.11-29.89-52.52-2.43-.79-4.66-1.85-6.46-3.2.13-.14.27-.29.41-.43,0,0,0,0-.02-.01,10.66-11.97,11.87-13.27,17.57-18.62,9.86-9.26,18.93-16.06,29.33-22.86,11.49-7.5,23.46-14.09,35.9-19.77,10.68-4.88,21.6-9.03,32.88-12.13,8.03-2.21,16.16-3.8,24.4-4.46,8.99-.72,17.85-.25,26.4,2.44.63.2,1.01.11,1.32-.5,1.67-3.3,3.29-6.63,3.84-10.3.63-4.21-.22-7.86-3.87-10.31ZM88.02,162.51c-1.68,50.85-46.29,64.23-56.27,32.19-5.62-18.49,6.07-45.23,25.66-70.62,3.54,2.25,7.3,4.47,11.45,5.93,15.67,5.98,19.74,17.02,19.17,32.49Z"/>
      <path class="cls-1" d="M212.14,139.95c8.42,1.97,18.59-3.32,28.23-15.29,5.74-7.18,7.7-8.41,6.54-4.27-.33,1.22-2.24,5.01-5.94,9.54-8.62,10.65-20.94,15.57-30.82,13.13-6.63,9.64-13.84,18.21-21.65,25.71-15.82,15.25-28.51,16.97-29.34-8.78-4.28,5.55-8.85,10.68-13.7,15.39-19.62,18.87-34.31,17.39-27.81-32.33,1.33-10.93,4.19-33.05,6.62-50.67,4.22-30.72,12.69-30.39,22.24-26.73,1.72.67,2.97,1.41,2.97,1.41-.98,5.75-7.1,44.45-12.61,88.43-2.73,21.17.21,22.35,7.2,15.91,7.84-7.26,12.3-21.47,18.24-49.43,1.13-8.57,2.31-18.77,3.89-29.51,4.19-30.95,12.66-30.62,22.21-26.96,1.74.9,2.97,1.41,2.97,1.41-.96,5.98-5.96,37.98-11.48,81.96-2.73,21.17.21,22.35,7.2,15.91,5.28-5.01,9.97-13.19,14.31-26.44-2.59-2.17-4.62-5.58-6.24-9.53-7.65-19.81-1.71-68.28,16.18-75.69,17.69-7.15,25.8,4.43,21.8,30.92-3.35,21.96-10.87,40.14-21.01,55.91ZM203.19,133.39c2.56-8.32,4.94-18.24,7.52-30.53,6.87-34.16,5.25-46.27-.34-44.01-10.56,3.95-17.47,52.11-10.7,68.32.98,2.41,2.16,4.56,3.52,6.22Z"/>
      <path class="cls-1" d="M258.68,133.26c3.74,22.5,18.37,29.58,29.91,21.98,9.81-6.4,18.24-18.65,27.15-47.3,2.74-8.81,4.17-10.66,4.67-6.31.13,1.15-.32,5.41-2.04,10.8-8.15,25.03-15.14,39.63-30.65,49.47-26.2,16.61-57.12,2.25-49-53.79,8.44-59.35,55.73-73.84,69.03-55.83,12.81,17.85-19.02,63.07-49.06,80.97ZM258.1,128.22c23.39-16.65,37.56-56.59,29.19-70.46-9.22-15.13-20.82.17-28.19,48.39-1.39,8.37-1.49,15.62-.99,22.07Z"/>
      <path class="cls-1" d="M329.01,117.56c1.83,26.29,16.21,35.28,28.42,27.34,9.78-6.63,18.22-18.88,27.12-47.53,2.97-8.85,4.17-10.66,4.67-6.31.16,1.37-.32,5.41-2.04,10.8-7.92,24.99-15.14,39.63-30.65,49.47-26.2,16.61-54.82,1.89-46.7-54.14,8.34-58.16,55.48-71.93,66.03-57.47,10.58,14.69-18.18,54.08-46.84,77.83ZM329.05,111.73c26.85-23.24,35.08-57.84,29.3-67.44-6.63-10.87-20.69,3.41-27.91,50.91-.93,6.2-1.51,11.42-1.39,16.53Z"/>
      <path class="cls-1" d="M389.4,35.32c1.15-.18,2.28-.58,2.78-2.29,2.96-23.3,2.73-31.43,2.73-31.43,0,0,.69-.11,1.58-.48,14.49-4.32,20.32,3.64,17.42,27.4-.15,2.82.8,2.91,3.1,2.55l1.15-.18c8.52-1.31,9.72-1.03,8.72.52-.99,1.55-4.8,3.07-8.71,3.67l-2.07.32c-2.3.35-3.2.72-3.62,3.12-2.36,16.22-8.7,59.15-11.08,77.24-2.73,21.17,5.37,20.39,9.32,11.86,4.94-10.08,7.12-17.65,12.49-36.19,2.74-8.81,4.17-10.66,4.66-6.31.16,1.37-.55,5.45-2.04,10.8-4.66,16.57-6.57,22.46-12.42,34.78-11.24,24.57-37.73,22.35-31.2-27.15,2.86-22.12,5.81-37.26,8.42-57.48l.48-4.04c-.06-2.56-.77-2.68-2.62-2.4l-1.15.18c-8.52,1.31-9.72,1.03-8.73-.52.99-1.55,4.8-3.07,8.71-3.67l2.07-.32Z"/>
      <path class="cls-1" d="M330.37,280.4l-5.89,27.36-5.81.88-6.86-16.2-3.62,17.79-5.88.89-10.75-24.83,6.05-.92,6.78,16.13,3.46-17.69,6.19-.94,6.67,16.07,3.57-17.63,6.09-.93Z"/>
      <path class="cls-1" d="M350.23,277.38l.66,5.81-12.35,1.88.51,4.48,10.31-1.57.61,5.43-10.31,1.57.5,4.48,12.35-1.88.66,5.82-18.02,2.74-2.93-26.02,18.02-2.74Z"/>
      <path class="cls-1" d="M370.78,274.25l.66,5.81-12.35,1.88.51,4.48,10.31-1.57.61,5.43-10.31,1.57.5,4.48,12.35-1.88.66,5.82-18.02,2.74-2.93-26.02,18.02-2.74Z"/>
      <path class="cls-1" d="M388.18,282.26l11.57,14.04-7.37,1.12-7.65-9.77-3.49,5.51.66,5.85-5.67.86-2.93-26.02,5.67-.86,1.29,11.44,7.7-12.81,7.13-1.08-6.91,11.71Z"/>
      <path class="cls-1" d="M39.93,270.37c-12.69,3.08-21.54,16.67-23.57,30.34-2.46,16.56,6.75,37.54,34.11,30.52,24.95-6.66,28.43-35.8,26.06-56.51-24.05,4.64-35.03,14.41-30.31,25.92,4.11,9.53,21.73,8.14,17.91-7.08,0,0,0-1.69.51-2.15.7-.48,2.04-.31,2.42,1.32,4.05,15.56-15.8,23.88-23.66,9.66-5.48-9.89-1.18-33.51,41.53-41.95,19.8-3.79,24.85-12.47,22.87-19.89-2.81-9.73-13.69-9-18.45,3.96,0,0-.97,1.47-1.71,1.58-.95-.04-1.47-1.28-.9-2.87,4.78-12.78,20.15-17.21,23.92-4.05,3.34,12.66-3.09,25.88-21.81,32.52,2.13,23.57-10.22,56.15-40.66,64.4-36.11,9.88-50.79-11.02-47.83-31.42,2.47-18.07,16.34-29.05,29.13-34.59-14.11-2.73-22.67-14.77-19.85-31.39,4.9-28.23,41.23-42.84,58.75-33.49,19.89,10.31,5.21,40.6-16.4,40.16-3.22-.07-4.28-1.04-3.66-2.26.62-1.22,3.73-2.08,3.73-2.08,21.6.45,27.94-25.18,13.65-32.77-13.9-7.46-35.8,4.37-39.33,28.06-2.62,16.78,4.99,30.47,20.79,28.05,2.97-.46,6.57,2.94-2.07,5.02-1.84.47-3.51.73-5.18.98Z"/>
      <path class="cls-1" d="M198.55,204.22c-4.53,6.72-12.53,9.45-16.8,5.22-5.34-5.39-1.01-13.77,5.23-13.79,9.25-.1,14.76-11.49,8.77-17.53-9.21-9.5-32.39,11-40.84,66.12-6.48,42.59,10.75,61.02,21.37,54.68,8.15-4.83,15.47-15.17,22.66-38.3,2.21-7.11,3.36-8.61,3.77-5.1.13,1.11-.26,4.37-1.65,8.72-6.58,20.21-12.74,32.44-25.69,39.89-19.86,11.52-44.5-5.59-36.91-58.32,9.13-64.07,47.99-81.33,60.47-69.7,6.36,5.99,4.74,19.97-.38,28.1Z"/>
      <path class="cls-1" d="M234.64,202.44c-12.18.93-18.21,17.66-21.79,47.57-4.27,35.47-.71,45.09,6.12,43.66,5.72-1.25,10.75-18.4,14.39-41.17-2.46-1.69-4.97-3.75-6.81-6.67-9.72-13.94-7.25-33.7,7.02-39.47,11.74-4.81,22.03,4.14,16.69,40.16l-.67,4.06c2.85-1.57,5.96-4.11,9.09-8.17,4.82-5.82,6.41-6.82,5.46-3.47-.27.98-1.99,4.07-4.79,7.7-3.31,4.08-6.82,6.51-10.47,7.63-6,26.89-20.69,42.32-31.42,44.35-10.36,1.97-27.13-5.81-21.25-46.98,4.57-31.19,18.33-51.37,38.61-52.6,5.99-.54,3.02,3.3-.18,3.41ZM234.04,248.45c4.12-28.49,4.36-39.63-1.09-37.66-8.52,3.19-11.53,21.53-3.22,33.05,1.35,1.86,2.65,3.36,4.31,4.61Z"/>
      <path class="cls-1" d="M331.72,249.63c1.48,21.23,13.08,28.48,22.94,22.07,7.9-5.35,14.71-15.24,21.9-38.37,2.4-7.14,3.36-8.61,3.77-5.1.13,1.11-.26,4.37-1.65,8.72-6.39,20.18-12.23,31.99-24.74,39.93-21.15,13.41-44.25,1.53-37.7-43.7,6.73-46.95,44.79-58.07,53.31-46.39,8.54,11.86-14.67,43.66-37.82,62.83ZM331.75,244.92c21.68-18.76,28.32-46.69,23.65-54.45-5.35-8.78-16.7,2.75-22.53,41.1-.75,5.01-1.22,9.22-1.12,13.35Z"/>
      <path class="cls-1" d="M389.31,240.78c1.48,21.23,13.09,28.48,22.94,22.07,7.9-5.35,14.71-15.24,21.9-38.37,2.4-7.14,3.36-8.61,3.77-5.1.13,1.11-.26,4.37-1.65,8.72-6.39,20.18-12.23,31.99-24.74,39.93-21.15,13.41-44.25,1.53-37.7-43.7,6.73-46.95,44.79-58.07,53.31-46.39,8.54,11.86-14.67,43.66-37.82,62.83ZM389.34,236.07c21.68-18.76,28.32-46.69,23.65-54.45-5.35-8.78-16.7,2.75-22.53,41.1-.75,5.01-1.22,9.22-1.12,13.35Z"/>
      <path class="cls-1" d="M342.58,151.04c-8.68-11.46-40.09-1.75-47.37,43.79-.39,1.57-.95,1.65-2.62,1.91l-1.67.26c-3.16.49-6.23,1.71-7.03,2.96-.8,1.25.17,1.48,7.04.42l.93-.14c2.04-.31,2.44-.19,2.09,3.44l-12.33,80.75c-6.5,42.4-21.1,48.6-26.78,41.94-.21-.25-.41-.51-.59-.76-.79,1.11-1.6,2.13-2.42,3.08.1.12.19.25.29.37,7.91,9.7,37.65,10.21,45.96-46.2l12.14-80.72.19-.03c.61-4.61.96-4.85,3.37-5.22l1.67-.26c3.16-.49,6.23-1.71,7.03-2.96.8-1.25-.17-1.48-7.04-.42l-.93.14c-2.23.34-2.62.21-2.12-3.63,6.48-34.31,21.01-44.44,27.19-36.73,5.3,6.71.14,14.47-9.11,14.57-6.24.02-10.57,8.4-5.23,13.79,4.26,4.24,12.27,1.5,16.61-5.19,5.31-8.15,5.84-18.4.72-25.14Z"/>
      <path class="cls-1" d="M312.11,155.72c-8.68-11.46-40.09-1.75-47.37,43.79-.39,1.57-.95,1.65-2.62,1.91l-1.67.26c-3.16.49-6.23,1.71-7.03,2.96-.8,1.25.17,1.48,7.04.42l.93-.14c2.04-.31,2.44-.19,2.09,3.44l-1.33,8.74s-.07-.03-.11-.04l-10.96,71.76c-6.49,42.31-21.06,48.5-26.72,41.85-5-5.8-1.46-14.42,8.02-14,5.71.44,10.06-7.74,4.93-12.97-4.26-4.23-11.28-1.27-15.44,5.19-4.99,7.53-5.68,17.96-.23,24.45,7.9,9.68,37.58,10.19,45.86-46.11l8.05-53.49s.09.05.13.07l4.07-27.03.19-.03c.61-4.61.96-4.85,3.37-5.22l1.67-.26c.6-.09,1.2-.21,1.78-.35-3.08.31-3.47-.05-2.88-.98.65-1.01,2.79-2.01,5.26-2.61-1.05.11-2.42.29-4.17.56l-.93.14c-2.23.34-2.62.21-2.12-3.63,6.48-34.31,21.01-44.44,27.19-36.73.37.47.69.95.96,1.43.82-.97,1.66-1.88,2.51-2.73-.15-.23-.31-.45-.48-.67Z"/>
    </g>
  </g>
</svg>