<?xml version="1.0" encoding="UTF-8"?>
<svg id="Camada_2" data-name="Camada 2" xmlns="http://www.w3.org/2000/svg" viewBox="0 0 255.15 253.84">
  <defs>
    <style>
      .cls-1 {
        fill: #f5e1be;
      }

      .cls-2 {
        fill: #381610;
      }
    </style>
  </defs>
  <g id="Camada_1-2" data-name="Camada 1">
    <path class="cls-2" d="M130.92,3.39l5.79-2.65c2.67-1.22,5.79-.9,8.15.86l5.11,3.8c1.88,1.4,4.27,1.91,6.56,1.39l6.22-1.39c2.87-.64,5.85.33,7.79,2.53l4.21,4.78c1.55,1.76,3.78,2.75,6.12,2.73l6.37-.07c2.94-.03,5.66,1.54,7.1,4.1l3.12,5.55c1.15,2.04,3.13,3.48,5.42,3.94l6.25,1.26c2.88.58,5.21,2.68,6.09,5.48l1.9,6.08c.7,2.23,2.34,4.05,4.49,4.98l5.85,2.53c2.7,1.16,4.54,3.71,4.82,6.63l.6,6.34c.22,2.33,1.44,4.45,3.35,5.81l5.19,3.69c2.39,1.7,3.67,4.57,3.33,7.49l-.74,6.33c-.27,2.33.49,4.65,2.07,6.38l4.31,4.69c1.99,2.16,2.64,5.23,1.7,8.02l-2.03,6.04c-.75,2.22-.49,4.65.7,6.67l3.25,5.48c1.5,2.53,1.5,5.67,0,8.19l-3.25,5.48c-1.19,2.01-1.45,4.45-.7,6.67l2.03,6.04c.94,2.78.28,5.86-1.7,8.02l-4.31,4.69c-1.59,1.72-2.34,4.05-2.07,6.38l.74,6.33c.34,2.92-.94,5.79-3.33,7.49l-5.19,3.69c-1.91,1.36-3.13,3.47-3.35,5.81l-.6,6.34c-.27,2.92-2.12,5.46-4.82,6.63l-5.85,2.53c-2.15.93-3.79,2.75-4.49,4.98l-1.9,6.08c-.88,2.8-3.21,4.9-6.09,5.48l-6.25,1.26c-2.29.46-4.27,1.9-5.42,3.94l-3.12,5.55c-1.44,2.56-4.16,4.13-7.1,4.1l-6.37-.07c-2.34-.03-4.58.97-6.12,2.73l-4.21,4.78c-1.94,2.2-4.93,3.17-7.79,2.53l-6.22-1.39c-2.28-.51-4.68,0-6.56,1.39l-5.11,3.8c-2.36,1.75-5.48,2.08-8.15.86l-5.79-2.65c-2.13-.98-4.58-.98-6.7,0l-5.79,2.65c-2.67,1.22-5.79.9-8.15-.86l-5.11-3.8c-1.88-1.4-4.27-1.91-6.56-1.39l-6.22,1.39c-2.87.64-5.85-.33-7.79-2.53l-4.21-4.78c-1.55-1.76-3.78-2.75-6.12-2.73l-6.37.07c-2.94.03-5.66-1.54-7.1-4.1l-3.12-5.55c-1.15-2.04-3.13-3.48-5.42-3.94l-6.25-1.26c-2.88-.58-5.21-2.68-6.09-5.48l-1.9-6.08c-.7-2.23-2.34-4.05-4.49-4.98l-5.85-2.53c-2.7-1.16-4.54-3.71-4.82-6.63l-.6-6.34c-.22-2.33-1.44-4.45-3.35-5.81l-5.19-3.69c-2.39-1.7-3.67-4.57-3.33-7.49l.74-6.33c.27-2.33-.49-4.65-2.07-6.38l-4.31-4.69c-1.99-2.16-2.64-5.23-1.7-8.02l2.03-6.04c.75-2.22.49-4.65-.7-6.67l-3.25-5.48c-1.5-2.53-1.5-5.67,0-8.19l3.25-5.48c1.19-2.01,1.45-4.45.7-6.67l-2.03-6.04c-.94-2.78-.28-5.86,1.7-8.02l4.31-4.69c1.59-1.72,2.34-4.05,2.07-6.38l-.74-6.33c-.34-2.92.94-5.79,3.33-7.49l5.19-3.69c1.91-1.36,3.13-3.47,3.35-5.81l.6-6.34c.27-2.92,2.12-5.46,4.82-6.63l5.85-2.53c2.15-.93,3.79-2.75,4.49-4.98l1.9-6.08c.88-2.8,3.21-4.9,6.09-5.48l6.25-1.26c2.29-.46,4.27-1.9,5.42-3.94l3.12-5.55c1.44-2.56,4.16-4.13,7.1-4.1l6.37.07c2.34.03,4.58-.97,6.12-2.73l4.21-4.78c1.94-2.2,4.93-3.17,7.79-2.53l6.22,1.39c2.28.51,4.68,0,6.56-1.39l5.11-3.8c2.36-1.75,5.48-2.08,8.15-.86l5.79,2.65c2.13.98,4.58.98,6.7,0Z"/>
    <g>
      <g>
        <path class="cls-1" d="M140.08,34.58c-1-.67-2.14-1.02-3.33-1.22-2.75-.47-5.51-.2-8.26.29-5.8,1.02-11.51,2.49-17.15,4.29-6.07,1.94-12,4.26-17.8,6.96-8.51,3.95-16.64,8.59-24.29,14.1-5.52,3.97-10.74,8.29-15.48,13.17-10.16,10.46-9.89,10.45-14.05,15.95,0,0,0,0,0,0,0,0,0,0,0,0-.23-.24-.44-.49-.65-.74,0,0,0,.01,0,.02-2.99-3.53-3.78-7.98-3.24-13.22,1.77-16.43,14.65-20.96,18.96-18.66,5.47,2.93,1.15,11.27-8.81,10.51,0,0-2.24.48-2.7,1.22-.56,1.03.2,1.72,2.52,1.9,9.96.76,20.26-10.92,10.91-15.81-6.91-3.65-29.06,1.37-32.72,22.53-1.57,8.72,1.39,16.88,7.45,22.55-12.29,16.7-19.18,33.37-15.7,46.03,6.23,22.6,43.21,11.27,48.24-21.68,2.35-14.9-5.07-25.47-17.26-30.33-1.4-.46-2.69-1.07-3.73-1.85.08-.08.16-.17.24-.25,0,0,0,0,0,0,6.16-6.91,6.85-7.66,10.15-10.75,5.69-5.35,10.93-9.28,16.94-13.2,6.63-4.33,13.55-8.14,20.73-11.42,6.17-2.82,12.48-5.21,18.99-7.01,4.64-1.28,9.33-2.19,14.09-2.57,5.19-.42,10.31-.15,15.24,1.41.36.11.58.07.76-.29.96-1.91,1.9-3.83,2.22-5.95.36-2.43-.13-4.54-2.24-5.96ZM51.96,122.99c-.97,29.36-26.73,37.09-32.5,18.59-3.25-10.68,3.51-26.12,14.82-40.78,2.04,1.3,4.22,2.58,6.61,3.43,9.05,3.46,11.4,9.83,11.07,18.76Z"/>
        <path class="cls-1" d="M123.63,109.96c4.86,1.14,10.74-1.92,16.3-8.83,3.31-4.14,4.45-4.86,3.78-2.46-.19.7-1.29,2.89-3.43,5.51-4.98,6.15-12.09,8.99-17.8,7.58-3.83,5.57-8,10.52-12.5,14.84-9.14,8.81-16.46,9.8-16.94-5.07-2.47,3.21-5.11,6.17-7.91,8.89-11.33,10.9-19.81,10.04-16.06-18.67.77-6.31,2.42-19.08,3.82-29.26,2.44-17.74,7.33-17.55,12.84-15.44.99.39,1.72.81,1.72.81-.57,3.32-4.1,25.67-7.28,51.07-1.58,12.22.12,12.91,4.16,9.19,4.52-4.2,7.1-12.4,10.53-28.54.65-4.95,1.33-10.84,2.25-17.04,2.42-17.87,7.31-17.68,12.83-15.57,1.01.52,1.72.81,1.72.81-.55,3.45-3.44,21.93-6.63,47.33-1.58,12.22.12,12.91,4.16,9.19,3.05-2.89,5.76-7.62,8.26-15.27-1.5-1.25-2.67-3.23-3.6-5.5-4.42-11.44-.99-39.43,9.34-43.71,10.21-4.13,14.9,2.56,12.59,17.86-1.93,12.68-6.28,23.18-12.13,32.29ZM118.46,106.18c1.48-4.8,2.85-10.54,4.34-17.63,3.97-19.73,3.03-26.72-.2-25.41-6.1,2.28-10.09,30.09-6.18,39.45.57,1.39,1.25,2.64,2.03,3.59Z"/>
        <path class="cls-1" d="M150.51,106.1c2.16,13,10.61,17.08,17.27,12.69,5.66-3.7,10.54-10.77,15.68-27.31,1.58-5.09,2.41-6.16,2.69-3.64.08.66-.18,3.12-1.18,6.24-4.7,14.45-8.75,22.88-17.7,28.57-15.13,9.59-32.99,1.3-28.3-31.06,4.88-34.27,32.18-42.64,39.86-32.24,7.4,10.31-10.99,36.42-28.33,46.76ZM150.17,103.19c13.51-9.61,21.69-32.68,16.85-40.69-5.33-8.74-12.03.1-16.28,27.95-.8,4.83-.86,9.02-.57,12.74Z"/>
        <path class="cls-1" d="M191.12,97.03c1.06,15.18,9.36,20.37,16.41,15.79,5.65-3.83,10.52-10.91,15.66-27.45,1.72-5.11,2.41-6.16,2.69-3.64.09.79-.18,3.12-1.18,6.24-4.57,14.43-8.75,22.88-17.7,28.57-15.13,9.59-31.66,1.09-26.97-31.26,4.82-33.59,32.04-41.54,38.13-33.19,6.11,8.49-10.5,31.23-27.05,44.95ZM191.14,93.66c15.51-13.42,20.26-33.4,16.92-38.95-3.83-6.28-11.95,1.97-16.12,29.4-.54,3.58-.87,6.6-.8,9.55Z"/>
        <path class="cls-1" d="M226,49.54c.66-.1,1.31-.34,1.61-1.32,1.71-13.46,1.58-18.15,1.58-18.15,0,0,.4-.06.92-.28,8.37-2.5,11.74,2.1,10.06,15.82-.08,1.63.46,1.68,1.79,1.48l.66-.1c4.92-.76,5.61-.59,5.04.3-.57.9-2.77,1.77-5.03,2.12l-1.2.18c-1.33.2-1.85.42-2.09,1.8-1.36,9.36-5.02,34.16-6.4,44.6-1.58,12.22,3.1,11.77,5.38,6.85,2.85-5.82,4.11-10.19,7.21-20.9,1.58-5.09,2.41-6.16,2.69-3.64.09.79-.32,3.15-1.18,6.24-2.69,9.57-3.79,12.97-7.17,20.08-6.49,14.19-21.79,12.91-18.02-15.68,1.65-12.77,3.36-21.52,4.86-33.19l.27-2.33c-.03-1.48-.45-1.55-1.51-1.38l-.66.1c-4.92.76-5.61.59-5.04-.3.57-.9,2.77-1.77,5.03-2.12l1.2-.18Z"/>
        <path class="cls-1" d="M24.18,185.28c-7.33,1.78-12.44,9.63-13.61,17.52-1.42,9.56,3.9,21.68,19.7,17.62,14.41-3.84,16.42-20.67,15.05-32.63-13.89,2.68-20.23,8.32-17.5,14.97,2.38,5.5,12.55,4.7,10.34-4.09,0,0,0-.98.3-1.24.4-.28,1.18-.18,1.4.76,2.34,8.99-9.12,13.79-13.66,5.58-3.16-5.71-.68-19.35,23.98-24.22,11.43-2.19,14.35-7.2,13.21-11.48-1.62-5.62-7.91-5.2-10.66,2.29,0,0-.56.85-.99.91-.55-.02-.85-.74-.52-1.66,2.76-7.38,11.64-9.94,13.82-2.34,1.93,7.31-1.79,14.95-12.59,18.78,1.23,13.61-5.9,32.42-23.48,37.19-20.86,5.7-29.33-6.36-27.62-18.15,1.43-10.44,9.44-16.77,16.82-19.97-8.15-1.57-13.09-8.53-11.46-18.13,2.83-16.3,23.81-24.74,33.93-19.34,11.49,5.95,3.01,23.45-9.47,23.19-1.86-.04-2.47-.6-2.11-1.31.36-.71,2.16-1.2,2.16-1.2,12.48.26,16.13-14.54,7.88-18.93-8.03-4.31-20.67,2.52-22.71,16.2-1.51,9.69,2.88,17.6,12,16.2,1.72-.26,3.8,1.7-1.2,2.9-1.06.27-2.03.42-2.99.57Z"/>
        <path class="cls-1" d="M115.78,147.08c-2.61,3.88-7.24,5.46-9.7,3.01-3.09-3.11-.58-7.95,3.02-7.96,5.34-.06,8.52-6.63,5.07-10.12-5.32-5.49-18.71,6.35-23.59,38.18-3.74,24.59,6.21,35.24,12.34,31.58,4.7-2.79,8.93-8.76,13.09-22.12,1.28-4.11,1.94-4.97,2.18-2.94.07.64-.15,2.52-.95,5.04-3.8,11.67-7.36,18.74-14.84,23.04-11.47,6.65-25.7-3.23-21.32-33.68,5.27-37,27.71-46.97,34.92-40.25,3.67,3.46,2.74,11.53-.22,16.23Z"/>
        <path class="cls-1" d="M136.62,146.05c-7.04.54-10.52,10.2-12.58,27.47-2.46,20.48-.41,26.04,3.54,25.21,3.3-.72,6.21-10.63,8.31-23.77-1.42-.98-2.87-2.17-3.93-3.85-5.61-8.05-4.19-19.46,4.06-22.79,6.78-2.78,12.72,2.39,9.64,23.19l-.39,2.34c1.64-.9,3.44-2.38,5.25-4.72,2.78-3.36,3.7-3.94,3.16-2.01-.15.57-1.15,2.35-2.77,4.45-1.91,2.36-3.94,3.76-6.05,4.41-3.47,15.53-11.95,24.44-18.14,25.61-5.98,1.14-15.67-3.35-12.27-27.13,2.64-18.01,10.59-29.67,22.29-30.38,3.46-.31,1.75,1.91-.1,1.97ZM136.27,172.62c2.38-16.45,2.52-22.88-.63-21.75-4.92,1.84-6.66,12.43-1.86,19.09.78,1.08,1.53,1.94,2.49,2.66Z"/>
        <path class="cls-1" d="M192.69,173.3c.85,12.26,7.56,16.45,13.25,12.75,4.56-3.09,8.49-8.8,12.64-22.16,1.38-4.13,1.94-4.97,2.18-2.94.07.64-.15,2.52-.95,5.04-3.69,11.65-7.06,18.47-14.29,23.06-12.22,7.75-25.56.88-21.77-25.24,3.89-27.12,25.86-33.53,30.78-26.79,4.93,6.85-8.47,25.21-21.84,36.28ZM192.7,170.58c12.52-10.83,16.35-26.96,13.66-31.44-3.09-5.07-9.64,1.59-13.01,23.73-.43,2.89-.7,5.32-.65,7.71Z"/>
        <path class="cls-1" d="M225.95,168.19c.85,12.26,7.56,16.45,13.25,12.75,4.56-3.09,8.49-8.8,12.64-22.16,1.38-4.13,1.94-4.97,2.17-2.94.07.64-.15,2.52-.95,5.04-3.69,11.65-7.06,18.47-14.29,23.06-12.22,7.75-25.56.88-21.77-25.24,3.89-27.12,25.86-33.53,30.78-26.79,4.93,6.85-8.47,25.21-21.84,36.28ZM225.96,165.47c12.52-10.83,16.35-26.96,13.66-31.44-3.09-5.07-9.64,1.59-13.01,23.73-.43,2.89-.7,5.32-.65,7.71Z"/>
        <path class="cls-1" d="M198.95,116.37c-5.01-6.62-23.15-1.01-27.35,25.29-.22.9-.55.95-1.51,1.1l-.97.15c-1.82.28-3.6.99-4.06,1.71-.46.72.1.85,4.07.24l.54-.08c1.18-.18,1.41-.11,1.21,1.99l-7.12,46.63c-3.75,24.49-12.19,28.06-15.47,24.22-.12-.14-.24-.29-.34-.44-.46.64-.92,1.23-1.4,1.78.06.07.11.14.17.21,4.57,5.6,21.74,5.9,26.54-26.68l7.01-46.61.11-.02c.35-2.66.55-2.8,1.95-3.02l.97-.15c1.82-.28,3.6-.99,4.06-1.71.46-.72-.1-.85-4.07-.24l-.54.08c-1.29.2-1.51.12-1.22-2.09,3.74-19.81,12.13-25.66,15.7-21.21,3.06,3.88.08,8.36-5.26,8.42-3.6,0-6.11,4.85-3.02,7.96,2.46,2.45,7.09.87,9.59-3,3.06-4.71,3.37-10.63.42-14.52Z"/>
        <path class="cls-1" d="M181.36,119.07c-5.01-6.62-23.15-1.01-27.35,25.29-.22.9-.55.95-1.51,1.1l-.97.15c-1.82.28-3.6.99-4.06,1.71-.46.72.1.85,4.07.24l.54-.08c1.18-.18,1.41-.11,1.21,1.99l-.77,5.05s-.04-.01-.06-.02l-6.33,41.44c-3.75,24.44-12.16,28.01-15.43,24.17-2.89-3.35-.84-8.33,4.63-8.09,3.3.25,5.81-4.47,2.85-7.49-2.46-2.44-6.51-.73-8.92,3-2.88,4.35-3.28,10.37-.13,14.12,4.56,5.59,21.7,5.89,26.48-26.63l4.65-30.89s.05.03.08.04l2.35-15.61.11-.02c.35-2.66.55-2.8,1.95-3.02l.97-.15c.35-.05.69-.12,1.03-.2-1.78.18-2.01-.03-1.66-.57.38-.59,1.61-1.16,3.04-1.51-.61.06-1.4.17-2.41.32l-.54.08c-1.29.2-1.51.12-1.22-2.09,3.74-19.81,12.13-25.66,15.7-21.21.22.27.4.55.56.83.48-.56.96-1.08,1.45-1.58-.09-.13-.18-.26-.28-.39Z"/>
      </g>
      <path class="cls-1" d="M140.08,34.58c-1-.67-2.14-1.02-3.33-1.22-2.75-.47-5.51-.2-8.26.29-5.8,1.02-11.51,2.49-17.15,4.29-6.07,1.94-12,4.26-17.8,6.96-8.51,3.95-16.64,8.59-24.29,14.1-5.52,3.97-10.74,8.29-15.48,13.17-10.16,10.46-9.89,10.45-14.05,15.95,0,0,0,0,0,0,0,0,0,0,0,0-.23-.24-.44-.49-.65-.74,0,0,0,.01,0,.02-2.99-3.53-3.78-7.98-3.24-13.22,1.77-16.43,14.65-20.96,18.96-18.66,5.47,2.93,1.15,11.27-8.81,10.51,0,0-2.24.48-2.7,1.22-.56,1.03.2,1.72,2.52,1.9,9.96.76,20.26-10.92,10.91-15.81-6.91-3.65-29.06,1.37-32.72,22.53-1.57,8.72,1.39,16.88,7.45,22.55-12.29,16.7-19.18,33.37-15.7,46.03,6.23,22.6,43.21,11.27,48.24-21.68,2.35-14.9-5.07-25.47-17.26-30.33-1.4-.46-2.69-1.07-3.73-1.85.08-.08.16-.17.24-.25,0,0,0,0,0,0,6.16-6.91,6.85-7.66,10.15-10.75,5.69-5.35,10.93-9.28,16.94-13.2,6.63-4.33,13.55-8.14,20.73-11.42,6.17-2.82,12.48-5.21,18.99-7.01,4.64-1.28,9.33-2.19,14.09-2.57,5.19-.42,10.31-.15,15.24,1.41.36.11.58.07.76-.29.96-1.91,1.9-3.83,2.22-5.95.36-2.43-.13-4.54-2.24-5.96ZM51.96,122.99c-.97,29.36-26.73,37.09-32.5,18.59-3.25-10.68,3.51-26.12,14.82-40.78,2.04,1.3,4.22,2.58,6.61,3.43,9.05,3.46,11.4,9.83,11.07,18.76Z"/>
      <path class="cls-1" d="M123.63,109.96c4.86,1.14,10.74-1.92,16.3-8.83,3.31-4.14,4.45-4.86,3.78-2.46-.19.7-1.29,2.89-3.43,5.51-4.98,6.15-12.09,8.99-17.8,7.58-3.83,5.57-8,10.52-12.5,14.84-9.14,8.81-16.46,9.8-16.94-5.07-2.47,3.21-5.11,6.17-7.91,8.89-11.33,10.9-19.81,10.04-16.06-18.67.77-6.31,2.42-19.08,3.82-29.26,2.44-17.74,7.33-17.55,12.84-15.44.99.39,1.72.81,1.72.81-.57,3.32-4.1,25.67-7.28,51.07-1.58,12.22.12,12.91,4.16,9.19,4.52-4.2,7.1-12.4,10.53-28.54.65-4.95,1.33-10.84,2.25-17.04,2.42-17.87,7.31-17.68,12.83-15.57,1.01.52,1.72.81,1.72.81-.55,3.45-3.44,21.93-6.63,47.33-1.58,12.22.12,12.91,4.16,9.19,3.05-2.89,5.76-7.62,8.26-15.27-1.5-1.25-2.67-3.23-3.6-5.5-4.42-11.44-.99-39.43,9.34-43.71,10.21-4.13,14.9,2.56,12.59,17.86-1.93,12.68-6.28,23.18-12.13,32.29ZM118.46,106.18c1.48-4.8,2.85-10.54,4.34-17.63,3.97-19.73,3.03-26.72-.2-25.41-6.1,2.28-10.09,30.09-6.18,39.45.57,1.39,1.25,2.64,2.03,3.59Z"/>
      <path class="cls-1" d="M150.51,106.1c2.16,13,10.61,17.08,17.27,12.69,5.66-3.7,10.54-10.77,15.68-27.31,1.58-5.09,2.41-6.16,2.69-3.64.08.66-.18,3.12-1.18,6.24-4.7,14.45-8.75,22.88-17.7,28.57-15.13,9.59-32.99,1.3-28.3-31.06,4.88-34.27,32.18-42.64,39.86-32.24,7.4,10.31-10.99,36.42-28.33,46.76ZM150.17,103.19c13.51-9.61,21.69-32.68,16.85-40.69-5.33-8.74-12.03.1-16.28,27.95-.8,4.83-.86,9.02-.57,12.74Z"/>
      <path class="cls-1" d="M191.12,97.03c1.06,15.18,9.36,20.37,16.41,15.79,5.65-3.83,10.52-10.91,15.66-27.45,1.72-5.11,2.41-6.16,2.69-3.64.09.79-.18,3.12-1.18,6.24-4.57,14.43-8.75,22.88-17.7,28.57-15.13,9.59-31.66,1.09-26.97-31.26,4.82-33.59,32.04-41.54,38.13-33.19,6.11,8.49-10.5,31.23-27.05,44.95ZM191.14,93.66c15.51-13.42,20.26-33.4,16.92-38.95-3.83-6.28-11.95,1.97-16.12,29.4-.54,3.58-.87,6.6-.8,9.55Z"/>
      <path class="cls-1" d="M226,49.54c.66-.1,1.31-.34,1.61-1.32,1.71-13.46,1.58-18.15,1.58-18.15,0,0,.4-.06.92-.28,8.37-2.5,11.74,2.1,10.06,15.82-.08,1.63.46,1.68,1.79,1.48l.66-.1c4.92-.76,5.61-.59,5.04.3-.57.9-2.77,1.77-5.03,2.12l-1.2.18c-1.33.2-1.85.42-2.09,1.8-1.36,9.36-5.02,34.16-6.4,44.6-1.58,12.22,3.1,11.77,5.38,6.85,2.85-5.82,4.11-10.19,7.21-20.9,1.58-5.09,2.41-6.16,2.69-3.64.09.79-.32,3.15-1.18,6.24-2.69,9.57-3.79,12.97-7.17,20.08-6.49,14.19-21.79,12.91-18.02-15.68,1.65-12.77,3.36-21.52,4.86-33.19l.27-2.33c-.03-1.48-.45-1.55-1.51-1.38l-.66.1c-4.92.76-5.61.59-5.04-.3.57-.9,2.77-1.77,5.03-2.12l1.2-.18Z"/>
      <path class="cls-1" d="M24.18,185.28c-7.33,1.78-12.44,9.63-13.61,17.52-1.42,9.56,3.9,21.68,19.7,17.62,14.41-3.84,16.42-20.67,15.05-32.63-13.89,2.68-20.23,8.32-17.5,14.97,2.38,5.5,12.55,4.7,10.34-4.09,0,0,0-.98.3-1.24.4-.28,1.18-.18,1.4.76,2.34,8.99-9.12,13.79-13.66,5.58-3.16-5.71-.68-19.35,23.98-24.22,11.43-2.19,14.35-7.2,13.21-11.48-1.62-5.62-7.91-5.2-10.66,2.29,0,0-.56.85-.99.91-.55-.02-.85-.74-.52-1.66,2.76-7.38,11.64-9.94,13.82-2.34,1.93,7.31-1.79,14.95-12.59,18.78,1.23,13.61-5.9,32.42-23.48,37.19-20.86,5.7-29.33-6.36-27.62-18.15,1.43-10.44,9.44-16.77,16.82-19.97-8.15-1.57-13.09-8.53-11.46-18.13,2.83-16.3,23.81-24.74,33.93-19.34,11.49,5.95,3.01,23.45-9.47,23.19-1.86-.04-2.47-.6-2.11-1.31.36-.71,2.16-1.2,2.16-1.2,12.48.26,16.13-14.54,7.88-18.93-8.03-4.31-20.67,2.52-22.71,16.2-1.51,9.69,2.88,17.6,12,16.2,1.72-.26,3.8,1.7-1.2,2.9-1.06.27-2.03.42-2.99.57Z"/>
      <path class="cls-1" d="M115.78,147.08c-2.61,3.88-7.24,5.46-9.7,3.01-3.09-3.11-.58-7.95,3.02-7.96,5.34-.06,8.52-6.63,5.07-10.12-5.32-5.49-18.71,6.35-23.59,38.18-3.74,24.59,6.21,35.24,12.34,31.58,4.7-2.79,8.93-8.76,13.09-22.12,1.28-4.11,1.94-4.97,2.18-2.94.07.64-.15,2.52-.95,5.04-3.8,11.67-7.36,18.74-14.84,23.04-11.47,6.65-25.7-3.23-21.32-33.68,5.27-37,27.71-46.97,34.92-40.25,3.67,3.46,2.74,11.53-.22,16.23Z"/>
      <path class="cls-1" d="M136.62,146.05c-7.04.54-10.52,10.2-12.58,27.47-2.46,20.48-.41,26.04,3.54,25.21,3.3-.72,6.21-10.63,8.31-23.77-1.42-.98-2.87-2.17-3.93-3.85-5.61-8.05-4.19-19.46,4.06-22.79,6.78-2.78,12.72,2.39,9.64,23.19l-.39,2.34c1.64-.9,3.44-2.38,5.25-4.72,2.78-3.36,3.7-3.94,3.16-2.01-.15.57-1.15,2.35-2.77,4.45-1.91,2.36-3.94,3.76-6.05,4.41-3.47,15.53-11.95,24.44-18.14,25.61-5.98,1.14-15.67-3.35-12.27-27.13,2.64-18.01,10.59-29.67,22.29-30.38,3.46-.31,1.75,1.91-.1,1.97ZM136.27,172.62c2.38-16.45,2.52-22.88-.63-21.75-4.92,1.84-6.66,12.43-1.86,19.09.78,1.08,1.53,1.94,2.49,2.66Z"/>
      <path class="cls-1" d="M192.69,173.3c.85,12.26,7.56,16.45,13.25,12.75,4.56-3.09,8.49-8.8,12.64-22.16,1.38-4.13,1.94-4.97,2.18-2.94.07.64-.15,2.52-.95,5.04-3.69,11.65-7.06,18.47-14.29,23.06-12.22,7.75-25.56.88-21.77-25.24,3.89-27.12,25.86-33.53,30.78-26.79,4.93,6.85-8.47,25.21-21.84,36.28ZM192.7,170.58c12.52-10.83,16.35-26.96,13.66-31.44-3.09-5.07-9.64,1.59-13.01,23.73-.43,2.89-.7,5.32-.65,7.71Z"/>
      <path class="cls-1" d="M225.95,168.19c.85,12.26,7.56,16.45,13.25,12.75,4.56-3.09,8.49-8.8,12.64-22.16,1.38-4.13,1.94-4.97,2.17-2.94.07.64-.15,2.52-.95,5.04-3.69,11.65-7.06,18.47-14.29,23.06-12.22,7.75-25.56.88-21.77-25.24,3.89-27.12,25.86-33.53,30.78-26.79,4.93,6.85-8.47,25.21-21.84,36.28ZM225.96,165.47c12.52-10.83,16.35-26.96,13.66-31.44-3.09-5.07-9.64,1.59-13.01,23.73-.43,2.89-.7,5.32-.65,7.71Z"/>
      <path class="cls-1" d="M198.95,116.37c-5.01-6.62-23.15-1.01-27.35,25.29-.22.9-.55.95-1.51,1.1l-.97.15c-1.82.28-3.6.99-4.06,1.71-.46.72.1.85,4.07.24l.54-.08c1.18-.18,1.41-.11,1.21,1.99l-7.12,46.63c-3.75,24.49-12.19,28.06-15.47,24.22-.12-.14-.24-.29-.34-.44-.46.64-.92,1.23-1.4,1.78.06.07.11.14.17.21,4.57,5.6,21.74,5.9,26.54-26.68l7.01-46.61.11-.02c.35-2.66.55-2.8,1.95-3.02l.97-.15c1.82-.28,3.6-.99,4.06-1.71.46-.72-.1-.85-4.07-.24l-.54.08c-1.29.2-1.51.12-1.22-2.09,3.74-19.81,12.13-25.66,15.7-21.21,3.06,3.88.08,8.36-5.26,8.42-3.6,0-6.11,4.85-3.02,7.96,2.46,2.45,7.09.87,9.59-3,3.06-4.71,3.37-10.63.42-14.52Z"/>
      <path class="cls-1" d="M181.36,119.07c-5.01-6.62-23.15-1.01-27.35,25.29-.22.9-.55.95-1.51,1.1l-.97.15c-1.82.28-3.6.99-4.06,1.71-.46.72.1.85,4.07.24l.54-.08c1.18-.18,1.41-.11,1.21,1.99l-.77,5.05s-.04-.01-.06-.02l-6.33,41.44c-3.75,24.44-12.16,28.01-15.43,24.17-2.89-3.35-.84-8.33,4.63-8.09,3.3.25,5.81-4.47,2.85-7.49-2.46-2.44-6.51-.73-8.92,3-2.88,4.35-3.28,10.37-.13,14.12,4.56,5.59,21.7,5.89,26.48-26.63l4.65-30.89s.05.03.08.04l2.35-15.61.11-.02c.35-2.66.55-2.8,1.95-3.02l.97-.15c.35-.05.69-.12,1.03-.2-1.78.18-2.01-.03-1.66-.57.38-.59,1.61-1.16,3.04-1.51-.61.06-1.4.17-2.41.32l-.54.08c-1.29.2-1.51.12-1.22-2.09,3.74-19.81,12.13-25.66,15.7-21.21.22.27.4.55.56.83.48-.56.96-1.08,1.45-1.58-.09-.13-.18-.26-.28-.39Z"/>
    </g>
  </g>
</svg>
