<?xml version="1.0" encoding="UTF-8"?>
<svg id="Camada_2" data-name="Camada 2" xmlns="http://www.w3.org/2000/svg" viewBox="0 0 864.45 654.57">
  <defs>
    <style>
      .cls-1, .cls-2 {
        fill: #6a2c15;
      }

      .cls-3 {
        fill: #391305;
      }

      .cls-2, .cls-4 {
        fill-rule: evenodd;
      }

      .cls-5 {
        fill: #f8e4c1;
      }

      .cls-4 {
        fill: #3d1308;
      }
    </style>
  </defs>
  <g id="_1b" data-name="1b">
    <path class="cls-1" d="M136.68,2.38l-14.36,14.39L15.93,123.17l-14.04,14.04c-2.52,2.52-2.52,6.6,0,9.12l100.33,100.33c2.52,2.52,6.6,2.52,9.12,0l14.04-14.04,15.43-15.43,71.33-71.33,19.64-19.64,14.39-14.39L136.68,2.38Z"/>
  </g>
  <g id="_1a" data-name="1a">
    <path class="cls-3" d="M136.68,2.38v624.49c0,3.56,2.89,6.45,6.45,6.45h141.89c3.56,0,6.45-2.89,6.45-6.45V8.83c0-3.56-2.89-6.45-6.45-6.45h-148.34Z"/>
  </g>
  <g id="circulo_1" data-name="circulo 1">
    <path class="cls-1" d="M551.82,9.72l17.92-8.21c5.48-2.51,11.89-1.84,16.72,1.76l15.82,11.76c3.85,2.87,8.77,3.91,13.45,2.86l19.24-4.31c5.88-1.32,12.01.67,15.99,5.2l13.03,14.79c3.17,3.6,7.76,5.65,12.56,5.59l19.71-.22c6.02-.07,11.61,3.16,14.56,8.41l9.67,17.18c2.36,4.19,6.42,7.14,11.13,8.08l19.33,3.89c5.91,1.19,10.7,5.5,12.49,11.25l5.89,18.81c1.43,4.58,4.79,8.31,9.2,10.22l18.1,7.82c5.53,2.39,9.32,7.6,9.88,13.6l1.85,19.63c.45,4.78,2.96,9.13,6.88,11.91l16.07,11.41c4.91,3.49,7.53,9.38,6.84,15.36l-2.27,19.58c-.55,4.77,1,9.55,4.25,13.08l13.35,14.5c4.08,4.43,5.42,10.74,3.5,16.45l-6.3,18.68c-1.53,4.55-1.01,9.54,1.44,13.68l10.04,16.96c3.07,5.18,3.07,11.63,0,16.81l-10.04,16.96c-2.45,4.13-2.97,9.13-1.44,13.68l6.3,18.68c1.92,5.71.58,12.01-3.5,16.45l-13.35,14.5c-3.25,3.53-4.8,8.31-4.25,13.08l2.27,19.58c.7,5.98-1.93,11.87-6.84,15.36l-16.07,11.41c-3.92,2.78-6.43,7.13-6.88,11.91l-1.85,19.63c-.56,6-4.35,11.21-9.88,13.6l-18.1,7.82c-4.41,1.91-7.77,5.64-9.2,10.22l-5.89,18.81c-1.8,5.75-6.59,10.06-12.49,11.25l-19.33,3.89c-4.71.95-8.77,3.9-11.13,8.08l-9.67,17.18c-2.96,5.25-8.54,8.47-14.56,8.41l-19.71-.22c-4.8-.05-9.39,1.99-12.56,5.59l-13.03,14.79c-3.98,4.52-10.11,6.51-15.99,5.2l-19.24-4.31c-4.69-1.05-9.6,0-13.45,2.86l-15.82,11.76c-4.84,3.59-11.24,4.27-16.72,1.76l-17.92-8.21c-4.37-2-9.39-2-13.75,0l-17.92,8.21c-5.48,2.51-11.89,1.84-16.72-1.76l-15.82-11.76c-3.85-2.87-8.77-3.91-13.45-2.86l-19.24,4.31c-5.88,1.32-12.01-.67-15.99-5.2l-13.03-14.79c-3.17-3.6-7.76-5.65-12.56-5.59l-19.71.22c-6.02.07-11.61-3.16-14.56-8.41l-9.67-17.18c-2.36-4.19-6.42-7.14-11.13-8.08l-19.33-3.89c-5.91-1.19-10.7-5.5-12.49-11.25l-5.89-18.81c-1.43-4.58-4.79-8.31-9.2-10.22l-18.1-7.82c-5.53-2.39-9.32-7.6-9.88-13.6l-1.85-19.63c-.45-4.78-2.96-9.13-6.88-11.91l-16.07-11.41c-4.91-3.49-7.53-9.38-6.84-15.36l2.27-19.58c.55-4.77-1-9.55-4.25-13.08l-13.35-14.5c-4.08-4.43-5.42-10.74-3.5-16.45l6.3-18.68c1.53-4.55,1.01-9.54-1.44-13.68l-10.04-16.96c-3.07-5.18-3.07-11.63,0-16.81l10.04-16.96c2.45-4.13,2.97-9.13,1.44-13.68l-6.3-18.68c-1.92-5.71-.58-12.01,3.5-16.45l13.35-14.5c3.25-3.53,4.8-8.31,4.25-13.08l-2.27-19.58c-.7-5.98,1.93-11.87,6.84-15.36l16.07-11.41c3.92-2.78,6.43-7.13,6.88-11.91l1.85-19.63c.56-6,4.35-11.21,9.88-13.6l18.1-7.82c4.41-1.91,7.77-5.64,9.2-10.22l5.89-18.81c1.8-5.75,6.59-10.06,12.49-11.25l19.33-3.89c4.71-.95,8.77-3.9,11.13-8.08l9.67-17.18c2.96-5.25,8.54-8.47,14.56-8.41l19.71.22c4.8.05,9.39-1.99,12.56-5.59l13.03-14.79c3.98-4.52,10.11-6.51,15.99-5.2l19.24,4.31c4.69,1.05,9.6,0,13.45-2.86l15.82-11.76c4.84-3.59,11.24-4.27,16.72-1.76l17.92,8.21c4.37,2,9.39,2,13.75,0Z"/>
  </g>
  <g id="circulo_2" data-name="circulo 2">
    <path class="cls-3" d="M551.31,28.25l17.05-7.81c5.08-2.33,11.02-1.7,15.5,1.63l15.05,11.19c3.57,2.66,8.13,3.62,12.47,2.65l18.3-4.1c5.45-1.22,11.13.63,14.83,4.82l12.39,14.07c2.94,3.34,7.2,5.24,11.65,5.19l18.75-.21c5.59-.06,10.76,2.93,13.5,7.79l9.2,16.34c2.18,3.88,5.95,6.62,10.32,7.5l18.38,3.7c5.48,1.1,9.92,5.1,11.59,10.43l5.6,17.9c1.33,4.25,4.44,7.71,8.53,9.48l17.21,7.44c5.13,2.22,8.64,7.05,9.16,12.61l1.76,18.67c.42,4.43,2.74,8.47,6.38,11.04l15.29,10.86c4.55,3.23,6.99,8.69,6.34,14.24l-2.16,18.63c-.51,4.42.92,8.85,3.94,12.13l12.7,13.8c3.78,4.11,5.03,9.96,3.24,15.25l-5.99,17.77c-1.42,4.22-.94,8.85,1.33,12.68l9.55,16.14c2.85,4.81,2.85,10.78,0,15.59l-9.55,16.14c-2.27,3.83-2.76,8.46-1.33,12.68l5.99,17.77c1.78,5.29.54,11.14-3.24,15.25l-12.7,13.8c-3.02,3.28-4.45,7.7-3.94,12.13l2.16,18.63c.64,5.55-1.79,11.01-6.34,14.24l-15.29,10.86c-3.63,2.58-5.96,6.61-6.38,11.04l-1.76,18.67c-.52,5.56-4.04,10.4-9.16,12.61l-17.21,7.44c-4.09,1.77-7.2,5.23-8.53,9.48l-5.6,17.9c-1.67,5.33-6.11,9.33-11.59,10.43l-18.38,3.7c-4.37.88-8.13,3.61-10.32,7.5l-9.2,16.34c-2.74,4.87-7.92,7.86-13.5,7.79l-18.75-.21c-4.45-.05-8.71,1.84-11.65,5.19l-12.39,14.07c-3.69,4.19-9.38,6.04-14.83,4.82l-18.3-4.1c-4.35-.97-8.9,0-12.47,2.65l-15.05,11.19c-4.48,3.33-10.43,3.96-15.5,1.63l-17.05-7.81c-4.05-1.86-8.7-1.86-12.75,0l-17.05,7.81c-5.08,2.33-11.02,1.7-15.5-1.63l-15.05-11.19c-3.57-2.66-8.13-3.62-12.47-2.65l-18.3,4.1c-5.45,1.22-11.13-.63-14.83-4.82l-12.39-14.07c-2.94-3.34-7.2-5.24-11.65-5.19l-18.75.21c-5.59.06-10.76-2.93-13.5-7.79l-9.2-16.34c-2.18-3.88-5.95-6.62-10.32-7.5l-18.38-3.7c-5.48-1.1-9.92-5.1-11.59-10.43l-5.6-17.9c-1.33-4.25-4.44-7.71-8.53-9.48l-17.21-7.44c-5.13-2.22-8.64-7.05-9.16-12.61l-1.76-18.67c-.42-4.43-2.74-8.47-6.38-11.04l-15.29-10.86c-4.55-3.23-6.99-8.69-6.34-14.24l2.16-18.63c.51-4.42-.92-8.85-3.94-12.13l-12.7-13.8c-3.78-4.11-5.03-9.96-3.24-15.25l5.99-17.77c1.42-4.22.94-8.85-1.33-12.68l-9.55-16.14c-2.85-4.81-2.85-10.78,0-15.59l9.55-16.14c2.27-3.83,2.76-8.46,1.33-12.68l-5.99-17.77c-1.78-5.29-.54-11.14,3.24-15.25l12.7-13.8c3.02-3.28,4.45-7.7,3.94-12.13l-2.16-18.63c-.64-5.55,1.79-11.01,6.34-14.24l15.29-10.86c3.63-2.58,5.96-6.61,6.38-11.04l1.76-18.67c.52-5.56,4.04-10.4,9.16-12.61l17.21-7.44c4.09-1.77,7.2-5.23,8.53-9.48l5.6-17.9c1.67-5.33,6.11-9.33,11.59-10.43l18.38-3.7c4.37-.88,8.13-3.61,10.32-7.5l9.2-16.34c2.74-4.87,7.92-7.86,13.5-7.79l18.75.21c4.45.05,8.71-1.84,11.65-5.19l12.39-14.07c3.69-4.19,9.38-6.04,14.83-4.82l18.3,4.1c4.35.97,8.9,0,12.47-2.65l15.05-11.19c4.48-3.33,10.43-3.96,15.5-1.63l17.05,7.81c4.05,1.86,8.7,1.86,12.75,0Z"/>
  </g>
  <g id="week_2" data-name="week 2">
    <g>
      <path class="cls-1" d="M693.17,458.3l-8.23,35.15-7.51,1.01-8.47-21.05-5.09,22.86-7.6,1.02-13.29-32.27,7.83-1.05,8.37,20.96,4.87-22.73,8.01-1.07,8.23,20.88,5.02-22.65,7.87-1.05Z"/>
      <path class="cls-1" d="M718.42,453.98l.85,7.5-15.93,2.42.65,5.78,13.29-2.02.79,7.01-13.29,2.02.65,5.77,15.93-2.42.85,7.5-23.24,3.54-3.79-33.56,23.24-3.54Z"/>
      <path class="cls-1" d="M744.93,449.95l.85,7.5-15.93,2.42.65,5.78,13.29-2.02.79,7.01-13.29,2.02.65,5.77,15.93-2.42.85,7.5-23.24,3.54-3.79-33.56,23.24-3.54Z"/>
      <path class="cls-1" d="M767.38,460.28l14.93,18.11-9.5,1.45-9.86-12.61-4.51,7.11.85,7.55-7.32,1.11-3.79-33.56,7.32-1.11,1.66,14.76,9.94-16.52,9.19-1.4-8.92,15.11Z"/>
    </g>
  </g>
  <g id="coffee_2" data-name="coffee 2">
    <g>
      <path class="cls-1" d="M522.76,359.61c-5.84,8.67-16.17,12.19-21.67,6.73-6.89-6.95-1.3-17.77,6.75-17.79,11.93-.13,19.04-14.82,11.32-22.62-11.89-12.25-41.79,14.19-52.69,85.29-8.36,54.93,13.87,78.71,27.57,70.54,10.51-6.23,19.96-19.57,29.23-49.4,2.85-9.18,4.34-11.11,4.86-6.57.16,1.43-.33,5.63-2.13,11.25-8.48,26.06-16.43,41.85-33.14,51.46-25.62,14.86-57.4-7.21-47.61-75.23,11.77-82.65,61.9-104.91,78.01-89.91,8.2,7.72,6.11,25.76-.49,36.25Z"/>
      <path class="cls-1" d="M569.32,357.32c-15.71,1.2-23.49,22.79-28.11,61.37-5.5,45.76-.91,58.16,7.9,56.32,7.38-1.62,13.87-23.74,18.56-53.1-3.18-2.18-6.41-4.84-8.79-8.6-12.54-17.98-9.36-43.47,9.06-50.91,15.14-6.21,28.41,5.35,21.53,51.8l-.87,5.23c3.67-2.02,7.69-5.31,11.72-10.54,6.21-7.51,8.26-8.79,7.05-4.48-.34,1.27-2.57,5.25-6.18,9.93-4.28,5.27-8.8,8.39-13.51,9.84-7.74,34.69-26.68,54.59-40.53,57.21-13.37,2.54-35-7.49-27.41-60.61,5.89-40.23,23.64-66.26,49.8-67.85,7.72-.7,3.9,4.26-.23,4.4ZM568.54,416.67c5.31-36.74,5.62-51.12-1.4-48.58-10.99,4.12-14.87,27.77-4.15,42.64,1.74,2.4,3.42,4.33,5.56,5.94Z"/>
      <path class="cls-1" d="M694.55,418.19c1.91,27.38,16.88,36.73,29.59,28.47,10.19-6.91,18.97-19.66,28.24-49.49,3.09-9.21,4.34-11.11,4.86-6.57.16,1.43-.33,5.63-2.13,11.25-8.24,26.03-15.77,41.26-31.91,51.51-27.29,17.3-57.08,1.97-48.63-56.38,8.69-60.57,57.77-74.91,68.76-59.84,11.01,15.3-18.93,56.31-48.78,81.05ZM694.58,412.12c27.96-24.2,36.53-60.23,30.51-70.23-6.9-11.32-21.54,3.55-29.06,53.02-.97,6.46-1.57,11.89-1.45,17.22Z"/>
      <path class="cls-1" d="M768.84,406.78c1.91,27.38,16.88,36.73,29.59,28.47,10.18-6.91,18.97-19.66,28.24-49.49,3.09-9.21,4.34-11.11,4.86-6.57.16,1.43-.33,5.63-2.13,11.25-8.24,26.03-15.77,41.26-31.91,51.51-27.29,17.3-57.08,1.97-48.63-56.38,8.69-60.57,57.77-74.91,68.76-59.84,11.01,15.3-18.93,56.31-48.78,81.05ZM768.88,400.7c27.96-24.2,36.53-60.23,30.51-70.23-6.9-11.32-21.54,3.55-29.06,53.02-.97,6.46-1.57,11.89-1.45,17.22Z"/>
      <path class="cls-1" d="M708.55,291.02c-11.2-14.79-51.71-2.25-61.1,56.48-.5,2.02-1.22,2.13-3.38,2.46l-2.16.33c-4.07.63-8.04,2.21-9.07,3.82-1.03,1.62.22,1.91,9.09.55l1.2-.18c2.64-.4,3.14-.24,2.7,4.44l-15.9,104.16c-8.38,54.7-27.22,62.69-34.55,54.1-.28-.32-.53-.65-.76-.99-1.02,1.43-2.06,2.75-3.12,3.97.12.16.25.32.38.47,10.21,12.51,48.57,13.17,59.28-59.6l15.66-104.12.24-.04c.78-5.95,1.24-6.26,4.35-6.74l2.16-.33c4.07-.63,8.04-2.21,9.07-3.82,1.03-1.62-.22-1.91-9.09-.55l-1.2.18c-2.88.44-3.38.28-2.73-4.68,8.36-44.25,27.1-57.33,35.07-47.38,6.84,8.66.18,18.66-11.75,18.8-8.05.02-13.64,10.83-6.75,17.79,5.5,5.47,15.83,1.94,21.43-6.69,6.85-10.52,7.53-23.73.93-32.43Z"/>
      <path class="cls-1" d="M669.25,297.06c-11.2-14.79-51.71-2.25-61.1,56.48-.5,2.02-1.22,2.13-3.38,2.46l-2.16.33c-4.07.63-8.04,2.21-9.07,3.82-1.03,1.62.22,1.91,9.09.55l1.2-.18c2.64-.4,3.14-.24,2.7,4.44l-1.72,11.28s-.09-.03-.14-.05l-14.13,92.57c-8.37,54.58-27.17,62.56-34.47,53.99-6.45-7.49-1.88-18.61,10.35-18.06,7.37.56,12.97-9.99,6.36-16.72-5.49-5.46-14.55-1.64-19.92,6.69-6.43,9.71-7.33,23.17-.29,31.54,10.19,12.49,48.47,13.15,59.16-59.48l10.38-68.99c.06.03.12.06.17.09l5.24-34.87.24-.04c.78-5.95,1.24-6.26,4.35-6.74l2.16-.33c.77-.12,1.55-.27,2.29-.45-3.98.4-4.48-.07-3.71-1.27.84-1.31,3.6-2.59,6.78-3.37-1.36.14-3.12.38-5.37.72l-1.2.18c-2.88.44-3.38.28-2.73-4.68,8.36-44.25,27.11-57.33,35.07-47.38.48.61.89,1.23,1.24,1.85,1.06-1.25,2.14-2.42,3.23-3.52-.2-.29-.4-.58-.62-.86Z"/>
    </g>
  </g>
  <g id="_2" data-name="&amp;amp; 2">
    <path class="cls-1" d="M318.16,444.95c-16.37,3.97-27.78,21.5-30.4,39.14-3.17,21.36,8.7,48.43,44,39.36,32.19-8.59,36.67-46.17,33.62-72.89-31.02,5.98-45.19,18.59-39.1,33.44,5.31,12.29,28.03,10.5,23.1-9.13,0,0,0-2.18.66-2.77.9-.62,2.64-.41,3.12,1.71,5.22,20.08-20.38,30.81-30.52,12.46-7.07-12.75-1.52-43.22,53.57-54.11,25.53-4.89,32.06-16.09,29.5-25.65-3.63-12.55-17.67-11.61-23.8,5.11,0,0-1.25,1.89-2.21,2.04-1.23-.05-1.9-1.65-1.15-3.71,6.16-16.48,26-22.2,30.86-5.23,4.3,16.33-3.99,33.39-28.13,41.95,2.74,30.41-13.19,72.43-52.45,83.07-46.59,12.74-65.52-14.21-61.7-40.53,3.19-23.31,21.08-37.47,37.58-44.61-18.2-3.52-29.25-19.06-25.6-40.49,6.33-36.41,53.19-55.27,75.78-43.2,25.66,13.29,6.72,52.38-21.15,51.8-4.16-.09-5.52-1.34-4.72-2.92.79-1.58,4.81-2.68,4.81-2.68,27.87.57,36.04-32.48,17.61-42.27-17.93-9.63-46.18,5.64-50.73,36.2-3.38,21.64,6.44,39.31,26.81,36.18,3.84-.59,8.48,3.8-2.67,6.48-2.37.61-4.53.94-6.68,1.27Z"/>
  </g>
  <g id="sweet_2" data-name="sweet 2">
    <g>
      <path class="cls-1" d="M577.05,108.33c-2.23-1.49-4.78-2.27-7.44-2.73-6.14-1.05-12.31-.44-18.45.64-12.96,2.28-25.71,5.56-38.3,9.59-13.55,4.34-26.8,9.53-39.76,15.54-19.01,8.83-37.16,19.19-54.26,31.49-12.32,8.86-23.99,18.51-34.59,29.42-22.7,23.37-22.08,23.35-31.38,35.62,0,0,0,0,0,0,0,0,0,0,0,0-.52-.53-.98-1.09-1.44-1.65,0,.01-.01.02-.01.03-6.67-7.87-8.44-17.82-7.23-29.53,3.96-36.69,32.71-46.82,42.36-41.69,12.23,6.54,2.57,25.17-19.67,23.47,0,0-5.01,1.07-6.03,2.73-1.25,2.3.44,3.84,5.62,4.25,22.25,1.69,45.25-24.39,24.36-35.32-15.43-8.15-64.9,3.05-73.1,50.32-3.51,19.49,3.1,37.72,16.63,50.37-27.46,37.3-42.84,74.54-35.08,102.82,13.92,50.49,96.52,25.17,107.75-48.43,5.26-33.29-11.33-56.9-38.55-67.75-3.14-1.02-6.01-2.38-8.33-4.13.17-.19.35-.37.53-.56,0,0-.01-.01-.02-.02,13.75-15.44,15.31-17.11,22.66-24.02,12.72-11.94,24.42-20.72,37.83-29.48,14.82-9.68,30.26-18.17,46.3-25.5,13.78-6.29,27.87-11.64,42.41-15.65,10.36-2.85,20.84-4.9,31.47-5.75,11.59-.93,23.02-.33,34.05,3.15.81.26,1.3.15,1.71-.65,2.15-4.26,4.24-8.55,4.95-13.29.81-5.43-.28-10.14-5-13.3ZM380.19,305.81c-2.17,65.59-59.71,82.85-72.59,41.52-7.26-23.85,7.83-58.34,33.09-91.09,4.56,2.91,9.42,5.77,14.77,7.65,20.22,7.72,25.47,21.95,24.73,41.91Z"/>
      <path class="cls-1" d="M540.3,276.7c10.86,2.54,23.98-4.29,36.41-19.73,7.4-9.26,9.94-10.85,8.43-5.51-.43,1.57-2.89,6.46-7.66,12.3-11.12,13.74-27.01,20.09-39.75,16.93-8.55,12.44-17.86,23.49-27.93,33.16-20.41,19.67-36.77,21.89-37.85-11.33-5.53,7.16-11.42,13.78-17.67,19.86-25.31,24.34-44.26,22.44-35.88-41.7,1.71-14.1,5.4-42.63,8.54-65.37,5.44-39.63,16.37-39.2,28.69-34.48,2.21.86,3.83,1.82,3.83,1.82-1.27,7.41-9.16,57.34-16.27,114.07-3.53,27.31.27,28.83,9.29,20.52,10.11-9.37,15.87-27.7,23.53-63.76,1.46-11.05,2.97-24.21,5.02-38.06,5.41-39.92,16.33-39.5,28.65-34.77,2.25,1.16,3.83,1.82,3.83,1.82-1.23,7.71-7.69,49-14.81,105.72-3.53,27.31.27,28.83,9.29,20.53,6.81-6.46,12.86-17.01,18.46-34.11-3.34-2.79-5.96-7.2-8.05-12.3-9.87-25.55-2.21-88.07,20.87-97.63,22.81-9.22,33.28,5.71,28.12,39.89-4.32,28.33-14.02,51.77-27.1,72.13ZM528.76,268.25c3.3-10.73,6.37-23.53,9.7-39.38,8.86-44.06,6.78-59.68-.44-56.77-13.62,5.1-22.53,67.21-13.8,88.13,1.26,3.11,2.79,5.89,4.54,8.02Z"/>
      <path class="cls-1" d="M600.33,268.08c4.83,29.03,23.69,38.16,38.58,28.36,12.65-8.26,23.53-24.06,35.02-61.01,3.53-11.37,5.38-13.76,6.02-8.14.17,1.48-.41,6.98-2.64,13.94-10.51,32.29-19.54,51.12-39.53,63.81-33.8,21.43-73.68,2.9-63.21-69.38,10.89-76.55,71.89-95.24,89.04-72.02,16.53,23.02-24.54,81.35-63.29,104.45ZM599.59,261.58c30.17-21.47,48.45-73,37.65-90.89-11.9-19.52-26.86.22-36.37,62.42-1.79,10.8-1.93,20.14-1.28,28.46Z"/>
      <path class="cls-1" d="M691.06,247.83c2.36,33.92,20.91,45.5,36.65,35.27,12.62-8.55,23.5-24.36,34.99-61.31,3.83-11.41,5.38-13.76,6.02-8.14.2,1.77-.41,6.98-2.64,13.94-10.21,32.24-19.54,51.12-39.53,63.81-33.8,21.43-70.71,2.44-60.24-69.84,10.76-75.03,71.57-92.79,85.18-74.13,13.65,18.95-23.45,69.76-60.43,100.4ZM691.1,240.31c34.64-29.98,45.25-74.61,37.79-87-8.55-14.02-26.69,4.4-36,65.67-1.2,8-1.94,14.73-1.79,21.33Z"/>
      <path class="cls-1" d="M768.95,141.74c1.48-.23,2.94-.75,3.59-2.96,3.82-30.06,3.53-40.54,3.53-40.54,0,0,.89-.14,2.04-.61,18.7-5.58,26.21,4.69,22.47,35.34-.19,3.64,1.03,3.75,4,3.29l1.48-.23c10.98-1.69,12.54-1.32,11.25.68-1.28,2-6.19,3.96-11.24,4.73l-2.67.41c-2.97.46-4.12.93-4.68,4.03-3.05,20.92-11.22,76.3-14.3,99.63-3.53,27.31,6.93,26.3,12.02,15.29,6.37-13.01,9.18-22.76,16.11-46.68,3.53-11.37,5.38-13.76,6.02-8.14.2,1.77-.71,7.03-2.64,13.94-6.02,21.37-8.47,28.97-16.02,44.86-14.5,31.7-48.67,28.83-40.25-35.02,3.69-28.53,7.5-48.06,10.86-74.14l.61-5.21c-.07-3.3-1-3.46-3.37-3.09l-1.48.23c-10.98,1.69-12.54,1.32-11.26-.68,1.28-2,6.19-3.96,11.24-4.73l2.67-.41Z"/>
    </g>
  </g>
  <g id="_2b" data-name="2b">
    <path class="cls-4" d="M586.82,534.54l68.4,44.64v68.93c0,5.12-5.68,8.2-9.97,5.4l-58.42-38.13v-80.84Z"/>
  </g>
  <g id="_2a" data-name="2a">
    <path class="cls-2" d="M586.82,534.54h261.66c5.42,0,8.42,6.28,5.02,10.5l-54.87,67.94c-1.22,1.52-3.07,2.4-5.02,2.4h-206.79v-80.84Z"/>
  </g>
  <g id="anos">
    <g>
      <path class="cls-5" d="M650.95,592.08c-2.34,0-4.41-.44-6.23-1.31-1.82-.88-3.24-2.09-4.26-3.63-1.02-1.54-1.53-3.32-1.53-5.32,0-3.17,1.2-5.62,3.6-7.35,2.4-1.73,5.75-2.6,10.05-2.6,2.59,0,5.09.31,7.51.94v-1.63c0-1.67-.53-2.91-1.6-3.72-1.07-.81-2.64-1.22-4.73-1.22-1.29,0-2.74.21-4.35.63-1.61.42-3.5,1.08-5.67,2l-3.63-7.45c2.71-1.21,5.33-2.12,7.86-2.72,2.52-.6,5.06-.91,7.61-.91,4.59,0,8.16,1.09,10.71,3.28,2.55,2.19,3.82,5.27,3.82,9.23v21.21h-10.02v-2c-1.34.92-2.75,1.58-4.23,1.97-1.48.4-3.12.59-4.92.59ZM648.57,581.63c0,1.04.46,1.86,1.38,2.44.92.58,2.19.88,3.82.88,1.21,0,2.35-.13,3.41-.38s2.04-.65,2.91-1.19v-4.25c-.96-.25-1.94-.44-2.94-.56-1-.12-2.03-.19-3.07-.19-1.75,0-3.11.28-4.07.84-.96.56-1.44,1.37-1.44,2.41Z"/>
      <path class="cls-5" d="M676.13,591.51v-33.1h10.14v2.25c2.51-1.92,5.47-2.88,8.89-2.88,2.59,0,4.87.56,6.86,1.69,1.98,1.13,3.54,2.69,4.67,4.69,1.13,2,1.69,4.32,1.69,6.95v20.4h-10.14v-19.02c0-1.84-.54-3.29-1.63-4.38-1.09-1.08-2.55-1.63-4.38-1.63-1.3,0-2.43.23-3.41.69-.98.46-1.83,1.11-2.54,1.94v22.4h-10.14Z"/>
      <path class="cls-5" d="M730.85,592.14c-3.38,0-6.43-.76-9.14-2.28-2.71-1.52-4.86-3.58-6.45-6.16-1.59-2.59-2.38-5.48-2.38-8.7s.79-6.12,2.38-8.73c1.59-2.61,3.74-4.67,6.45-6.2,2.71-1.52,5.76-2.28,9.14-2.28s6.43.76,9.14,2.28c2.71,1.52,4.86,3.59,6.45,6.2,1.59,2.61,2.38,5.52,2.38,8.73s-.79,6.11-2.38,8.7c-1.59,2.59-3.74,4.64-6.45,6.16-2.71,1.52-5.76,2.28-9.14,2.28ZM730.85,583.38c1.54,0,2.92-.38,4.13-1.13,1.21-.75,2.17-1.76,2.88-3.03.71-1.27,1.06-2.68,1.06-4.22s-.35-3.01-1.06-4.29c-.71-1.27-1.68-2.28-2.91-3.03-1.23-.75-2.6-1.13-4.1-1.13s-2.87.38-4.1,1.13c-1.23.75-2.2,1.76-2.91,3.03-.71,1.27-1.06,2.7-1.06,4.29s.35,2.95,1.06,4.22c.71,1.27,1.68,2.28,2.91,3.03,1.23.75,2.6,1.13,4.1,1.13Z"/>
      <path class="cls-5" d="M766.67,592.14c-3.13,0-6.03-.37-8.7-1.09-2.67-.73-4.99-1.8-6.95-3.22l4.82-6.82c2.09,1.25,3.99,2.16,5.7,2.72,1.71.56,3.4.84,5.07.84s2.99-.24,3.98-.72c.98-.48,1.47-1.11,1.47-1.91,0-.63-.27-1.14-.81-1.53-.54-.4-1.4-.68-2.57-.84l-6.58-1c-3.3-.5-5.81-1.6-7.55-3.28-1.73-1.69-2.6-3.89-2.6-6.6,0-2.25.57-4.18,1.72-5.79,1.15-1.61,2.79-2.84,4.92-3.69,2.13-.85,4.67-1.28,7.64-1.28,2.42,0,4.82.33,7.2,1,2.38.67,4.59,1.67,6.64,3l-4.82,6.51c-1.8-1.04-3.51-1.8-5.13-2.28-1.63-.48-3.26-.72-4.88-.72-1.3,0-2.34.22-3.13.66-.79.44-1.19,1.01-1.19,1.72,0,.67.29,1.2.88,1.6.58.4,1.59.7,3.01.91l6.57,1c3.26.46,5.77,1.53,7.55,3.22,1.77,1.69,2.66,3.83,2.66,6.41,0,2.17-.65,4.09-1.94,5.76-1.3,1.67-3.06,2.99-5.29,3.97-2.23.98-4.79,1.47-7.67,1.47Z"/>
    </g>
  </g>
  <g id="week">
    <g>
      <path class="cls-5" d="M693.17,458.3l-8.23,35.15-7.51,1.01-8.47-21.05-5.09,22.86-7.6,1.02-13.29-32.27,7.83-1.05,8.37,20.96,4.87-22.73,8.01-1.07,8.23,20.88,5.02-22.65,7.87-1.05Z"/>
      <path class="cls-5" d="M718.42,453.98l.85,7.5-15.93,2.42.65,5.78,13.29-2.02.79,7.01-13.29,2.02.65,5.77,15.93-2.42.85,7.5-23.24,3.54-3.79-33.56,23.24-3.54Z"/>
      <path class="cls-5" d="M744.93,449.95l.85,7.5-15.93,2.42.65,5.78,13.29-2.02.79,7.01-13.29,2.02.65,5.77,15.93-2.42.85,7.5-23.24,3.54-3.79-33.56,23.24-3.54Z"/>
      <path class="cls-5" d="M767.38,460.28l14.93,18.11-9.5,1.45-9.86-12.61-4.51,7.11.85,7.55-7.32,1.11-3.79-33.56,7.32-1.11,1.66,14.76,9.94-16.52,9.19-1.4-8.92,15.11Z"/>
    </g>
  </g>
  <g id="coffee">
    <g>
      <path class="cls-5" d="M516.97,354.05c-5.84,8.67-16.17,12.19-21.67,6.73-6.89-6.95-1.3-17.77,6.75-17.79,11.93-.13,19.04-14.82,11.32-22.62-11.89-12.25-41.79,14.19-52.69,85.29-8.36,54.93,13.87,78.71,27.57,70.54,10.51-6.23,19.96-19.57,29.23-49.4,2.85-9.18,4.34-11.11,4.86-6.57.16,1.43-.33,5.63-2.13,11.25-8.48,26.06-16.43,41.85-33.14,51.46-25.62,14.86-57.4-7.21-47.61-75.23,11.77-82.65,61.9-104.91,78.01-89.91,8.2,7.72,6.11,25.76-.49,36.25Z"/>
      <path class="cls-5" d="M563.53,351.76c-15.71,1.2-23.49,22.79-28.11,61.37-5.5,45.76-.91,58.16,7.9,56.32,7.38-1.62,13.87-23.74,18.56-53.1-3.18-2.18-6.41-4.84-8.79-8.6-12.54-17.98-9.36-43.47,9.06-50.91,15.14-6.21,28.41,5.35,21.53,51.8l-.87,5.23c3.67-2.02,7.69-5.31,11.72-10.54,6.21-7.51,8.26-8.79,7.05-4.48-.34,1.27-2.57,5.25-6.18,9.93-4.28,5.27-8.8,8.39-13.51,9.84-7.74,34.69-26.68,54.59-40.53,57.21-13.37,2.54-35-7.49-27.41-60.61,5.89-40.23,23.64-66.26,49.8-67.85,7.72-.7,3.9,4.26-.23,4.4ZM562.75,411.11c5.31-36.74,5.62-51.12-1.4-48.58-10.99,4.12-14.87,27.77-4.15,42.64,1.74,2.4,3.42,4.33,5.56,5.94Z"/>
      <path class="cls-5" d="M688.76,412.63c1.91,27.38,16.88,36.73,29.59,28.47,10.19-6.91,18.97-19.66,28.24-49.49,3.09-9.21,4.34-11.11,4.86-6.57.16,1.43-.33,5.63-2.13,11.25-8.24,26.03-15.77,41.26-31.91,51.51-27.29,17.3-57.08,1.97-48.63-56.38,8.69-60.57,57.77-74.91,68.76-59.84,11.01,15.3-18.93,56.31-48.78,81.05ZM688.79,406.56c27.96-24.2,36.53-60.23,30.51-70.23-6.9-11.32-21.54,3.55-29.06,53.02-.97,6.46-1.57,11.89-1.45,17.22Z"/>
      <path class="cls-5" d="M763.05,401.22c1.91,27.38,16.88,36.73,29.59,28.47,10.18-6.91,18.97-19.66,28.24-49.49,3.09-9.21,4.34-11.11,4.86-6.57.16,1.43-.33,5.63-2.13,11.25-8.24,26.03-15.77,41.26-31.91,51.51-27.29,17.3-57.08,1.97-48.63-56.38,8.69-60.57,57.77-74.91,68.76-59.84,11.01,15.3-18.93,56.31-48.78,81.05ZM763.09,395.14c27.96-24.2,36.53-60.23,30.51-70.23-6.9-11.32-21.54,3.55-29.06,53.02-.97,6.46-1.57,11.89-1.45,17.22Z"/>
      <path class="cls-5" d="M702.76,285.46c-11.2-14.79-51.71-2.25-61.1,56.48-.5,2.02-1.22,2.13-3.38,2.46l-2.16.33c-4.07.63-8.04,2.21-9.07,3.82-1.03,1.62.22,1.91,9.09.55l1.2-.18c2.64-.4,3.14-.24,2.7,4.44l-15.9,104.16c-8.38,54.7-27.22,62.69-34.55,54.1-.28-.32-.53-.65-.76-.99-1.02,1.43-2.06,2.75-3.12,3.97.12.16.25.32.38.47,10.21,12.51,48.57,13.17,59.28-59.6l15.66-104.12.24-.04c.78-5.95,1.24-6.26,4.35-6.74l2.16-.33c4.07-.63,8.04-2.21,9.07-3.82,1.03-1.62-.22-1.91-9.09-.55l-1.2.18c-2.88.44-3.38.28-2.73-4.68,8.36-44.25,27.1-57.33,35.07-47.38,6.84,8.66.18,18.66-11.75,18.8-8.05.02-13.64,10.83-6.75,17.79,5.5,5.47,15.83,1.94,21.43-6.69,6.85-10.52,7.53-23.73.93-32.43Z"/>
      <path class="cls-5" d="M663.46,291.5c-11.2-14.79-51.71-2.25-61.1,56.48-.5,2.02-1.22,2.13-3.38,2.46l-2.16.33c-4.07.63-8.04,2.21-9.07,3.82-1.03,1.62.22,1.91,9.09.55l1.2-.18c2.64-.4,3.14-.24,2.7,4.44l-1.72,11.28s-.09-.03-.14-.05l-14.13,92.57c-8.37,54.58-27.17,62.56-34.47,53.99-6.45-7.49-1.88-18.61,10.35-18.06,7.37.56,12.97-9.99,6.36-16.72-5.49-5.46-14.55-1.64-19.92,6.69-6.43,9.71-7.33,23.17-.29,31.54,10.19,12.49,48.47,13.15,59.16-59.48l10.38-68.99c.06.03.12.06.17.09l5.24-34.87.24-.04c.78-5.95,1.24-6.26,4.35-6.74l2.16-.33c.77-.12,1.55-.27,2.29-.45-3.98.4-4.48-.07-3.71-1.27.84-1.31,3.6-2.59,6.78-3.37-1.36.14-3.12.38-5.37.72l-1.2.18c-2.88.44-3.38.28-2.73-4.68,8.36-44.25,27.11-57.33,35.07-47.38.48.61.89,1.23,1.24,1.85,1.06-1.25,2.14-2.42,3.23-3.52-.2-.29-.4-.58-.62-.86Z"/>
    </g>
  </g>
  <g id="_" data-name="&amp;amp;">
    <path class="cls-5" d="M312.37,439.39c-16.37,3.97-27.78,21.5-30.4,39.14-3.17,21.36,8.7,48.43,44,39.36,32.19-8.59,36.67-46.17,33.62-72.89-31.02,5.98-45.19,18.59-39.1,33.44,5.31,12.29,28.03,10.5,23.1-9.13,0,0,0-2.18.66-2.77.9-.62,2.64-.41,3.12,1.71,5.22,20.08-20.38,30.81-30.52,12.46-7.07-12.75-1.52-43.22,53.57-54.11,25.53-4.89,32.06-16.09,29.5-25.65-3.63-12.55-17.67-11.61-23.8,5.11,0,0-1.25,1.89-2.21,2.04-1.23-.05-1.9-1.65-1.15-3.71,6.16-16.48,26-22.2,30.86-5.23,4.3,16.33-3.99,33.39-28.13,41.95,2.74,30.41-13.19,72.43-52.45,83.07-46.59,12.74-65.52-14.21-61.7-40.53,3.19-23.31,21.08-37.47,37.58-44.61-18.2-3.52-29.25-19.06-25.6-40.49,6.33-36.41,53.19-55.27,75.78-43.2,25.66,13.29,6.72,52.38-21.15,51.8-4.16-.09-5.52-1.34-4.72-2.92.79-1.58,4.81-2.68,4.81-2.68,27.87.57,36.04-32.48,17.61-42.27-17.93-9.63-46.18,5.64-50.73,36.2-3.38,21.64,6.44,39.31,26.81,36.18,3.84-.59,8.48,3.8-2.67,6.48-2.37.61-4.53.94-6.68,1.27Z"/>
  </g>
  <g id="sweet">
    <g>
      <path class="cls-5" d="M571.26,102.77c-2.23-1.49-4.78-2.27-7.44-2.73-6.14-1.05-12.31-.44-18.45.64-12.96,2.28-25.71,5.56-38.3,9.59-13.55,4.34-26.8,9.53-39.76,15.54-19.01,8.83-37.16,19.19-54.26,31.49-12.32,8.86-23.99,18.51-34.59,29.42-22.7,23.37-22.08,23.35-31.38,35.62,0,0,0,0,0,0,0,0,0,0,0,0-.52-.53-.98-1.09-1.44-1.65,0,.01-.01.02-.01.03-6.67-7.87-8.44-17.82-7.23-29.53,3.96-36.69,32.71-46.82,42.36-41.69,12.23,6.54,2.57,25.17-19.67,23.47,0,0-5.01,1.07-6.03,2.73-1.25,2.3.44,3.84,5.62,4.25,22.25,1.69,45.25-24.39,24.36-35.32-15.43-8.15-64.9,3.05-73.1,50.32-3.51,19.49,3.1,37.72,16.63,50.37-27.46,37.3-42.84,74.54-35.08,102.82,13.92,50.49,96.52,25.17,107.75-48.43,5.26-33.29-11.33-56.9-38.55-67.75-3.14-1.02-6.01-2.38-8.33-4.13.17-.19.35-.37.53-.56,0,0-.01-.01-.02-.02,13.75-15.44,15.31-17.11,22.66-24.02,12.72-11.94,24.42-20.72,37.83-29.48,14.82-9.68,30.26-18.17,46.3-25.5,13.78-6.29,27.87-11.64,42.41-15.65,10.36-2.85,20.84-4.9,31.47-5.75,11.59-.93,23.02-.33,34.05,3.15.81.26,1.3.15,1.71-.65,2.15-4.26,4.24-8.55,4.95-13.29.81-5.43-.28-10.14-5-13.3ZM374.4,300.25c-2.17,65.59-59.71,82.85-72.59,41.52-7.26-23.85,7.83-58.34,33.09-91.09,4.56,2.91,9.42,5.77,14.77,7.65,20.22,7.72,25.47,21.95,24.73,41.91Z"/>
      <path class="cls-5" d="M534.51,271.15c10.86,2.54,23.98-4.29,36.41-19.73,7.4-9.26,9.94-10.85,8.43-5.51-.43,1.57-2.89,6.46-7.66,12.3-11.12,13.74-27.01,20.09-39.75,16.93-8.55,12.44-17.86,23.49-27.93,33.16-20.41,19.67-36.77,21.89-37.85-11.33-5.53,7.16-11.42,13.78-17.67,19.86-25.31,24.34-44.26,22.44-35.88-41.7,1.71-14.1,5.4-42.63,8.54-65.37,5.44-39.63,16.37-39.2,28.69-34.48,2.21.86,3.83,1.82,3.83,1.82-1.27,7.41-9.16,57.34-16.27,114.07-3.53,27.31.27,28.83,9.29,20.52,10.11-9.37,15.87-27.7,23.53-63.76,1.46-11.05,2.97-24.21,5.02-38.06,5.41-39.92,16.33-39.5,28.65-34.77,2.25,1.16,3.83,1.82,3.83,1.82-1.23,7.71-7.69,49-14.81,105.72-3.53,27.31.27,28.83,9.29,20.53,6.81-6.46,12.86-17.01,18.46-34.11-3.34-2.79-5.96-7.2-8.05-12.3-9.87-25.55-2.21-88.07,20.87-97.63,22.81-9.22,33.28,5.71,28.12,39.89-4.32,28.33-14.02,51.77-27.1,72.13ZM522.97,262.69c3.3-10.73,6.37-23.53,9.7-39.38,8.86-44.06,6.78-59.68-.44-56.77-13.62,5.1-22.53,67.21-13.8,88.13,1.26,3.11,2.79,5.89,4.54,8.02Z"/>
      <path class="cls-5" d="M594.54,262.52c4.83,29.03,23.69,38.16,38.58,28.36,12.65-8.26,23.53-24.06,35.02-61.01,3.53-11.37,5.38-13.76,6.02-8.14.17,1.48-.41,6.98-2.64,13.94-10.51,32.29-19.54,51.12-39.53,63.81-33.8,21.43-73.68,2.9-63.21-69.38,10.89-76.55,71.89-95.24,89.04-72.02,16.53,23.02-24.54,81.35-63.29,104.45ZM593.8,256.02c30.17-21.47,48.45-73,37.65-90.89-11.9-19.52-26.86.22-36.37,62.42-1.79,10.8-1.93,20.14-1.28,28.46Z"/>
      <path class="cls-5" d="M685.27,242.27c2.36,33.92,20.91,45.5,36.65,35.27,12.62-8.55,23.5-24.36,34.99-61.31,3.83-11.41,5.38-13.76,6.02-8.14.2,1.77-.41,6.98-2.64,13.94-10.21,32.24-19.54,51.12-39.53,63.81-33.8,21.43-70.71,2.44-60.24-69.84,10.76-75.03,71.57-92.79,85.18-74.13,13.65,18.95-23.45,69.76-60.43,100.4ZM685.31,234.75c34.64-29.98,45.25-74.61,37.79-87-8.55-14.02-26.69,4.4-36,65.67-1.2,8-1.94,14.73-1.79,21.33Z"/>
      <path class="cls-5" d="M763.17,136.18c1.48-.23,2.94-.75,3.59-2.96,3.82-30.06,3.53-40.54,3.53-40.54,0,0,.89-.14,2.04-.61,18.7-5.58,26.21,4.69,22.47,35.34-.19,3.64,1.03,3.75,4,3.29l1.48-.23c10.98-1.69,12.54-1.32,11.25.68-1.28,2-6.19,3.96-11.24,4.73l-2.67.41c-2.97.46-4.12.93-4.68,4.03-3.05,20.92-11.22,76.3-14.3,99.63-3.53,27.31,6.93,26.3,12.02,15.29,6.37-13.01,9.18-22.76,16.11-46.68,3.53-11.37,5.38-13.76,6.02-8.14.2,1.77-.71,7.03-2.64,13.94-6.02,21.37-8.47,28.97-16.02,44.86-14.5,31.7-48.67,28.83-40.25-35.02,3.69-28.53,7.5-48.06,10.86-74.14l.61-5.21c-.07-3.3-1-3.46-3.37-3.09l-1.48.23c-10.98,1.69-12.54,1.32-11.26-.68,1.28-2,6.19-3.96,11.24-4.73l2.67-.41Z"/>
    </g>
  </g>
</svg>