<?xml version="1.0" encoding="UTF-8"?>
<svg id="Camada_2" data-name="Camada 2" xmlns="http://www.w3.org/2000/svg" viewBox="0 0 600.76 597.73">
  <defs>
    <style>
      .cls-1 {
        fill: #6a2c15;
      }

      .cls-2 {
        fill: #f10767;
      }

      .cls-3 {
        fill: #f8e4c1;
      }

      .cls-4 {
        fill: #3d1308;
      }

      .cls-5 {
        fill: #7f0018;
      }
    </style>
  </defs>
  <g id="Camada_1-2" data-name="Camada 1">
    <g>
      <g>
        <path class="cls-1" d="M310.63,6.05l8.33-3.82c8.16-3.74,17.72-2.74,24.92,2.62l7.35,5.47c5.75,4.27,13.07,5.83,20.05,4.26l8.94-2c8.76-1.96,17.9,1.01,23.83,7.74l6.06,6.87c4.73,5.37,11.57,8.42,18.73,8.34l9.16-.1c8.98-.1,17.3,4.7,21.7,12.53l4.49,7.98c3.51,6.24,9.57,10.64,16.58,12.05l8.98,1.81c8.8,1.77,15.94,8.2,18.62,16.77l2.74,8.74c2.14,6.83,7.15,12.39,13.72,15.23l8.41,3.63c8.24,3.56,13.89,11.33,14.73,20.28l.86,9.12c.67,7.13,4.41,13.61,10.25,17.75l7.47,5.3c7.32,5.2,11.23,13.97,10.19,22.89l-1.06,9.1c-.83,7.11,1.49,14.23,6.33,19.5l6.2,6.74c6.08,6.61,8.08,16,5.21,24.51l-2.93,8.68c-2.29,6.78-1.5,14.23,2.14,20.39l4.67,7.88c4.57,7.73,4.57,17.33,0,25.06l-4.67,7.88c-3.65,6.16-4.43,13.6-2.14,20.39l2.93,8.68c2.87,8.51.87,17.91-5.21,24.51l-6.2,6.74c-4.85,5.27-7.16,12.39-6.33,19.5l1.06,9.1c1.04,8.92-2.87,17.7-10.19,22.89l-7.47,5.3c-5.84,4.14-9.58,10.63-10.25,17.75l-.86,9.12c-.84,8.94-6.49,16.71-14.73,20.28l-8.41,3.63c-6.57,2.84-11.58,8.4-13.72,15.23l-2.74,8.74c-2.68,8.57-9.82,15-18.62,16.77l-8.98,1.81c-7.02,1.41-13.07,5.81-16.58,12.05l-4.49,7.98c-4.4,7.83-12.72,12.63-21.7,12.53l-9.16-.1c-7.16-.08-14,2.97-18.73,8.34l-6.06,6.87c-5.94,6.74-15.07,9.71-23.83,7.74l-8.94-2c-6.99-1.56-14.31,0-20.05,4.26l-7.35,5.47c-7.21,5.36-16.76,6.36-24.92,2.62l-8.33-3.82c-6.51-2.98-13.99-2.98-20.5,0l-8.33,3.82c-8.16,3.74-17.72,2.74-24.92-2.62l-7.35-5.47c-5.75-4.27-13.07-5.83-20.05-4.26l-8.94,2c-8.76,1.96-17.9-1.01-23.83-7.74l-6.06-6.87c-4.73-5.37-11.57-8.42-18.73-8.34l-9.16.1c-8.98.1-17.3-4.7-21.7-12.53l-4.49-7.98c-3.51-6.24-9.57-10.64-16.58-12.05l-8.98-1.81c-8.8-1.77-15.94-8.2-18.62-16.77l-2.74-8.74c-2.14-6.83-7.15-12.39-13.72-15.23l-8.41-3.63c-8.24-3.56-13.89-11.33-14.73-20.28l-.86-9.12c-.67-7.13-4.41-13.61-10.25-17.75l-7.47-5.3c-7.32-5.2-11.23-13.97-10.19-22.89l1.06-9.1c.83-7.11-1.49-14.23-6.33-19.5l-6.2-6.74c-6.08-6.61-8.08-16-5.21-24.51l2.93-8.68c2.29-6.78,1.5-14.23-2.14-20.39l-4.67-7.88c-4.57-7.73-4.57-17.33,0-25.06l4.67-7.88c3.65-6.16,4.43-13.6,2.14-20.39l-2.93-8.68c-2.87-8.51-.87-17.91,5.21-24.51l6.2-6.74c4.85-5.27,7.16-12.39,6.33-19.5l-1.06-9.1c-1.04-8.92,2.87-17.7,10.19-22.89l7.47-5.3c5.84-4.14,9.58-10.63,10.25-17.75l.86-9.12c.84-8.94,6.49-16.71,14.73-20.28l8.41-3.63c6.57-2.84,11.58-8.4,13.72-15.23l2.74-8.74c2.68-8.57,9.82-15,18.62-16.77l8.98-1.81c7.02-1.41,13.07-5.81,16.58-12.05l4.49-7.98c4.4-7.83,12.72-12.63,21.7-12.53l9.16.1c7.16.08,14-2.97,18.73-8.34l6.06-6.87c5.94-6.74,15.07-9.71,23.83-7.74l8.94,2c6.99,1.56,14.31,0,20.05-4.26l7.35-5.47c7.21-5.36,16.76-6.36,24.92-2.62l8.33,3.82c6.51,2.98,13.99,2.98,20.5,0Z"/>
        <path class="cls-4" d="M309.88,23.69l8.13-3.73c7.57-3.47,16.43-2.54,23.11,2.43l7.18,5.33c5.33,3.96,12.11,5.4,18.59,3.95l8.73-1.95c8.13-1.82,16.6.93,22.1,7.18l5.91,6.71c4.39,4.98,10.73,7.8,17.36,7.73l8.94-.1c8.33-.09,16.04,4.36,20.12,11.62l4.39,7.79c3.26,5.78,8.87,9.86,15.38,11.17l8.77,1.76c8.16,1.64,14.78,7.6,17.27,15.55l2.67,8.53c1.98,6.33,6.63,11.49,12.72,14.12l8.21,3.55c7.64,3.3,12.88,10.51,13.66,18.8l.84,8.9c.62,6.61,4.09,12.62,9.5,16.46l7.29,5.18c6.79,4.82,10.41,12.96,9.45,21.23l-1.03,8.88c-.77,6.59,1.38,13.19,5.87,18.08l6.06,6.58c5.64,6.13,7.49,14.84,4.83,22.73l-2.86,8.47c-2.12,6.29-1.39,13.19,1.99,18.9l4.56,7.69c4.24,7.16,4.24,16.07,0,23.24l-4.56,7.69c-3.38,5.71-4.11,12.61-1.99,18.9l2.86,8.47c2.66,7.89.81,16.6-4.83,22.73l-6.06,6.58c-4.5,4.88-6.64,11.48-5.87,18.08l1.03,8.88c.96,8.27-2.66,16.41-9.45,21.23l-7.29,5.18c-5.41,3.84-8.88,9.85-9.5,16.46l-.84,8.9c-.78,8.29-6.02,15.5-13.66,18.8l-8.21,3.55c-6.09,2.63-10.74,7.79-12.72,14.12l-2.67,8.53c-2.49,7.95-9.11,13.91-17.27,15.55l-8.77,1.76c-6.51,1.31-12.12,5.39-15.38,11.17l-4.39,7.79c-4.08,7.26-11.8,11.71-20.12,11.62l-8.94-.1c-6.64-.07-12.98,2.75-17.36,7.73l-5.91,6.71c-5.5,6.25-13.97,9-22.1,7.18l-8.73-1.95c-6.48-1.45-13.26,0-18.59,3.95l-7.18,5.33c-6.68,4.97-15.54,5.9-23.11,2.43l-8.13-3.73c-6.03-2.77-12.97-2.77-19.01,0l-8.13,3.73c-7.57,3.47-16.43,2.54-23.11-2.43l-7.18-5.33c-5.33-3.96-12.11-5.4-18.59-3.95l-8.73,1.95c-8.13,1.82-16.6-.93-22.1-7.18l-5.91-6.71c-4.39-4.98-10.73-7.8-17.36-7.73l-8.94.1c-8.33.09-16.04-4.36-20.12-11.62l-4.39-7.79c-3.26-5.78-8.87-9.86-15.38-11.17l-8.77-1.76c-8.16-1.64-14.78-7.6-17.27-15.55l-2.67-8.53c-1.98-6.33-6.63-11.49-12.72-14.12l-8.21-3.55c-7.64-3.3-12.88-10.51-13.66-18.8l-.84-8.9c-.62-6.61-4.09-12.62-9.5-16.46l-7.29-5.18c-6.79-4.82-10.41-12.96-9.45-21.23l1.03-8.88c.77-6.59-1.38-13.19-5.87-18.08l-6.06-6.58c-5.64-6.13-7.49-14.84-4.83-22.73l2.86-8.47c2.12-6.29,1.39-13.19-1.99-18.9l-4.56-7.69c-4.24-7.16-4.24-16.07,0-23.24l4.56-7.69c3.38-5.71,4.11-12.61,1.99-18.9l-2.86-8.47c-2.66-7.89-.81-16.6,4.83-22.73l6.06-6.58c4.5-4.88,6.64-11.48,5.87-18.08l-1.03-8.88c-.96-8.27,2.66-16.41,9.45-21.23l7.29-5.18c5.41-3.84,8.88-9.85,9.5-16.46l.84-8.9c.78-8.29,6.02-15.5,13.66-18.8l8.21-3.55c6.09-2.63,10.74-7.79,12.72-14.12l2.67-8.53c2.49-7.95,9.11-13.91,17.27-15.55l8.77-1.76c6.51-1.31,12.12-5.39,15.38-11.17l4.39-7.79c4.08-7.26,11.8-11.71,20.12-11.62l8.94.1c6.64.07,12.98-2.75,17.36-7.73l5.91-6.71c5.5-6.25,13.97-9,22.1-7.18l8.73,1.95c6.48,1.45,13.26,0,18.59-3.95l7.18-5.33c6.68-4.97,15.54-5.9,23.11-2.43l8.13,3.73c6.03,2.77,12.97,2.77,19.01,0Z"/>
      </g>
      <g>
        <g>
          <path class="cls-2" d="M145.8,416h20.01v76.37h20.15v17.42h-40.16v-93.79Z"/>
          <path class="cls-2" d="M185.01,462.82c0-31.04,8.85-48.46,27.91-48.46s27.77,17.42,27.77,48.46-8.71,48.6-27.77,48.6-27.91-17.42-27.91-48.6Z"/>
          <path class="cls-5" d="M193.6,463c-1.42-6.71-.1-15.64,4.53-20.04,2.06-1.96,5.02-2.32,7.28-.6,4.03,3.07,5.2,7.95,6.22,13.24,2.86-7.36,8.24-18.16,15.74-20.28,3.1-.88,5.99.72,6.67,3.93.74,3.51.27,7.09-.82,10.6-4.71,15.23-15.4,30.63-25.33,43.46-5.91-9.34-12.21-19.26-14.29-30.31Z"/>
          <path class="cls-2" d="M239.87,416h20.42l8.98,69.7,9.12-69.7h20.42l-16.88,93.79h-24.91l-17.15-93.79Z"/>
          <path class="cls-2" d="M301.54,416h41.11v17.42h-21.1v21.24h18.65v17.97h-18.65v19.74h21.78v17.42h-41.79v-93.79Z"/>
          <path class="cls-2" d="M348.91,416h26c15.38,0,25.18,11.84,24.64,29.81-.54,12.93-6.13,19.6-11.84,23.14l13.75,40.84h-21.1l-9.94-35.8h-2.04v35.8h-19.47v-93.79ZM371.78,459.56c4.49,0,6.81-4.77,6.81-13.07s-2.31-12.93-6.81-12.93h-3.4v26h3.4Z"/>
          <path class="cls-2" d="M402.82,483.11h20.28c0,8.85,2.72,11.03,5.85,11.03,3.4,0,5.72-2.59,5.72-8.44,0-5.31-2.72-9.39-9.12-14.02l-6.13-4.49c-10.89-7.89-16.06-17.29-16.06-27.77,0-15.79,9.94-25.05,25.73-25.05s23.69,8.44,23.69,27.91h-20.15c0-9.8-2.59-10.62-4.63-10.62-2.99,0-4.36,3.27-4.36,8.03,0,5.99,2.86,9.53,8.3,13.34l4.22,2.86c9.53,5.99,18.79,13.48,18.79,28.59,0,18.51-12.8,26.95-26,26.95-15.93,0-26.14-8.44-26.14-28.32Z"/>
        </g>
        <g>
          <g>
            <g>
              <path class="cls-1" d="M324.99,92.61c-1.78-1.19-3.82-1.81-5.93-2.18-4.9-.84-9.82-.35-14.73.51-10.34,1.82-20.52,4.44-30.57,7.65-10.81,3.46-21.39,7.6-31.73,12.41-15.17,7.05-29.66,15.32-43.31,25.13-9.84,7.07-19.15,14.78-27.6,23.48-18.12,18.65-17.62,18.63-25.04,28.43,0,0,0,0,0,0,0,0,0,0,0,0-.41-.43-.78-.87-1.15-1.31,0,0,0,.02-.01.03-5.32-6.28-6.73-14.22-5.77-23.57,3.16-29.29,26.11-37.37,33.81-33.27,9.76,5.22,2.05,20.08-15.7,18.73,0,0-4,.85-4.81,2.18-1,1.83.35,3.07,4.49,3.39,17.75,1.35,36.11-19.47,19.44-28.19-12.32-6.51-51.8,2.44-58.34,40.16-2.8,15.55,2.47,30.1,13.27,40.2-21.91,29.77-34.19,59.49-27.99,82.06,11.11,40.29,77.03,20.09,86-38.65,4.2-26.56-9.05-45.41-30.77-54.07-2.5-.82-4.8-1.9-6.65-3.3.14-.15.28-.3.42-.44,0,0-.01,0-.02-.01,10.98-12.33,12.22-13.66,18.09-19.17,10.15-9.53,19.49-16.54,30.19-23.53,11.82-7.72,24.15-14.5,36.96-20.35,11-5.02,22.24-9.29,33.85-12.49,8.27-2.28,16.63-3.91,25.12-4.59,9.25-.74,18.37-.26,27.17,2.51.65.2,1.04.12,1.36-.52,1.72-3.4,3.39-6.83,3.95-10.61.65-4.33-.22-8.09-3.99-10.62ZM167.88,250.21c-1.73,52.35-47.66,66.12-57.93,33.14-5.79-19.03,6.25-46.56,26.41-72.7,3.64,2.32,7.52,4.61,11.79,6.11,16.13,6.16,20.32,17.52,19.73,33.45Z"/>
              <path class="cls-1" d="M295.66,226.99c8.67,2.03,19.14-3.42,29.06-15.74,5.91-7.39,7.93-8.66,6.73-4.39-.34,1.25-2.3,5.15-6.11,9.82-8.87,10.96-21.55,16.03-31.73,13.51-6.82,9.93-14.25,18.75-22.29,26.46-16.29,15.7-29.35,17.47-30.21-9.04-4.41,5.72-9.11,11-14.1,15.85-20.2,19.42-35.32,17.91-28.64-33.28,1.37-11.25,4.31-34.02,6.82-52.17,4.34-31.63,13.06-31.29,22.89-27.52,1.77.69,3.06,1.45,3.06,1.45-1.01,5.92-7.31,45.76-12.99,91.04-2.81,21.79.22,23.01,7.42,16.38,8.07-7.48,12.66-22.11,18.78-50.88,1.16-8.82,2.37-19.32,4-30.38,4.32-31.86,13.03-31.52,22.87-27.75,1.79.92,3.06,1.45,3.06,1.45-.98,6.15-6.14,39.1-11.82,84.38-2.81,21.79.22,23.01,7.42,16.38,5.44-5.16,10.26-13.58,14.73-27.22-2.67-2.23-4.76-5.75-6.43-9.81-7.87-20.39-1.76-70.29,16.65-77.92,18.21-7.36,26.56,4.56,22.44,31.83-3.44,22.61-11.19,41.32-21.63,57.56ZM286.45,220.24c2.64-8.57,5.09-18.78,7.74-31.43,7.07-35.17,5.41-47.63-.35-45.31-10.87,4.07-17.98,53.64-11.01,70.33,1.01,2.49,2.22,4.7,3.62,6.4Z"/>
              <path class="cls-1" d="M343.57,220.11c3.85,23.17,18.91,30.46,30.79,22.63,10.1-6.59,18.78-19.21,27.95-48.69,2.82-9.07,4.29-10.98,4.8-6.5.13,1.18-.33,5.57-2.1,11.12-8.39,25.77-15.59,40.8-31.55,50.93-26.98,17.1-58.8,2.31-50.45-55.37,8.69-61.1,57.38-76.01,71.07-57.48,13.19,18.37-19.58,64.93-50.51,83.36ZM342.98,214.92c24.08-17.14,38.67-58.26,30.05-72.54-9.5-15.58-21.44.17-29.03,49.82-1.43,8.62-1.54,16.08-1.02,22.72Z"/>
              <path class="cls-1" d="M415.98,203.94c1.89,27.07,16.69,36.32,29.25,28.15,10.07-6.83,18.75-19.44,27.92-48.93,3.06-9.11,4.29-10.98,4.8-6.5.16,1.42-.33,5.57-2.1,11.12-8.15,25.73-15.59,40.8-31.55,50.93-26.98,17.1-56.43,1.95-48.08-55.74,8.59-59.88,57.12-74.05,67.98-59.16,10.89,15.13-18.71,55.68-48.23,80.13ZM416.02,197.94c27.64-23.93,36.11-59.55,30.16-69.43-6.82-11.19-21.3,3.51-28.73,52.41-.96,6.39-1.55,11.76-1.43,17.02Z"/>
              <path class="cls-1" d="M478.15,119.27c1.18-.18,2.34-.6,2.86-2.36,3.05-23.99,2.81-32.35,2.81-32.35,0,0,.71-.11,1.63-.49,14.92-4.45,20.92,3.75,17.93,28.21-.15,2.9.82,2.99,3.19,2.63l1.18-.18c8.77-1.35,10.01-1.06,8.98.54-1.02,1.6-4.94,3.16-8.97,3.78l-2.13.33c-2.37.36-3.29.75-3.73,3.21-2.43,16.69-8.95,60.9-11.41,79.51-2.81,21.79,5.53,20.99,9.59,12.21,5.08-10.38,7.33-18.17,12.86-37.26,2.82-9.07,4.29-10.98,4.8-6.5.16,1.42-.56,5.61-2.1,11.12-4.8,17.06-6.76,23.12-12.79,35.8-11.58,25.3-38.84,23.01-32.12-27.95,2.94-22.77,5.98-38.36,8.67-59.17l.49-4.16c-.06-2.63-.8-2.76-2.69-2.47l-1.18.18c-8.77,1.35-10.01,1.06-8.98-.54,1.02-1.6,4.94-3.16,8.97-3.78l2.13-.33Z"/>
              <path class="cls-1" d="M417.38,371.58l-6.06,28.17-5.98.91-7.06-16.67-3.73,18.32-6.05.92-11.07-25.56,6.23-.95,6.98,16.61,3.56-18.21,6.37-.97,6.86,16.54,3.68-18.15,6.27-.95Z"/>
              <path class="cls-1" d="M437.82,368.47l.68,5.99-12.71,1.93.52,4.61,10.61-1.61.63,5.59-10.61,1.61.52,4.61,12.71-1.93.68,5.99-18.55,2.82-3.02-26.78,18.55-2.82Z"/>
              <path class="cls-1" d="M458.97,365.25l.68,5.99-12.71,1.93.52,4.61,10.61-1.61.63,5.59-10.61,1.61.52,4.61,12.71-1.93.68,5.99-18.55,2.82-3.02-26.78,18.55-2.82Z"/>
              <path class="cls-1" d="M476.89,373.5l11.92,14.45-7.58,1.15-7.87-10.06-3.6,5.68.68,6.03-5.84.89-3.02-26.78,5.84-.89,1.33,11.78,7.93-13.19,7.34-1.12-7.12,12.06Z"/>
              <path class="cls-1" d="M118.37,361.26c-13.07,3.17-22.17,17.16-24.26,31.24-2.53,17.05,6.95,38.65,35.12,31.42,25.69-6.85,29.27-36.85,26.83-58.18-24.76,4.77-36.06,14.84-31.21,26.69,4.24,9.81,22.37,8.38,18.44-7.29,0,0,0-1.74.53-2.21.72-.5,2.1-.32,2.49,1.36,4.17,16.02-16.27,24.59-24.36,9.94-5.64-10.18-1.22-34.49,42.75-43.18,20.38-3.91,25.59-12.84,23.55-20.47-2.9-10.02-14.1-9.27-19,4.08,0,0-1,1.51-1.76,1.63-.98-.04-1.51-1.32-.92-2.96,4.92-13.16,20.75-17.72,24.63-4.17,3.44,13.03-3.18,26.64-22.45,33.48,2.19,24.27-10.52,57.8-41.86,66.3-37.18,10.17-52.29-11.34-49.24-32.35,2.54-18.6,16.82-29.9,29.99-35.61-14.53-2.81-23.34-15.21-20.43-32.32,5.05-29.06,42.45-44.11,60.48-34.48,20.48,10.61,5.36,41.8-16.88,41.34-3.32-.07-4.4-1.07-3.77-2.33.63-1.26,3.84-2.14,3.84-2.14,22.24.46,28.76-25.92,14.05-33.74-14.31-7.68-36.85,4.5-40.49,28.89-2.7,17.27,5.14,31.37,21.4,28.87,3.06-.47,6.77,3.03-2.13,5.17-1.89.48-3.61.75-5.33,1.01Z"/>
              <path class="cls-1" d="M281.66,293.16c-4.66,6.92-12.9,9.73-17.29,5.37-5.5-5.55-1.04-14.18,5.38-14.2,9.52-.11,15.19-11.83,9.03-18.05-9.49-9.78-33.35,11.32-42.05,68.07-6.67,43.84,11.07,62.82,22,56.29,8.39-4.97,15.93-15.62,23.33-39.43,2.28-7.32,3.46-8.86,3.88-5.25.13,1.14-.27,4.5-1.7,8.98-6.77,20.8-13.12,33.4-26.45,41.07-20.44,11.86-45.81-5.75-38-60.04,9.4-65.96,49.41-83.73,62.26-71.76,6.54,6.16,4.88,20.56-.39,28.93Z"/>
              <path class="cls-1" d="M318.82,291.32c-12.54.96-18.75,18.19-22.43,48.98-4.39,36.52-.73,46.42,6.3,44.95,5.89-1.29,11.07-18.94,14.82-42.38-2.53-1.74-5.11-3.86-7.01-6.87-10.01-14.35-7.47-34.7,7.23-40.63,12.08-4.96,22.68,4.27,17.18,41.34l-.69,4.17c2.93-1.61,6.13-4.24,9.35-8.41,4.96-5.99,6.59-7.02,5.62-3.58-.27,1.01-2.05,4.19-4.93,7.93-3.41,4.21-7.02,6.7-10.78,7.86-6.18,27.69-21.3,43.57-32.35,45.66-10.67,2.03-27.93-5.98-21.88-48.37,4.7-32.11,18.87-52.88,39.75-54.15,6.16-.56,3.11,3.4-.18,3.52ZM318.2,338.69c4.24-29.33,4.49-40.79-1.12-38.77-8.77,3.28-11.87,22.17-3.31,34.03,1.39,1.92,2.73,3.46,4.43,4.74Z"/>
              <path class="cls-1" d="M418.76,339.91c1.52,21.85,13.47,29.32,23.62,22.72,8.13-5.51,15.14-15.69,22.54-39.5,2.47-7.35,3.46-8.86,3.88-5.25.13,1.14-.27,4.5-1.7,8.98-6.58,20.77-12.59,32.93-25.47,41.11-21.78,13.81-45.56,1.57-38.81-44.99,6.93-48.34,46.11-59.78,54.88-47.76,8.79,12.21-15.11,44.94-38.93,64.69ZM418.79,335.06c22.32-19.32,29.15-48.07,24.35-56.05-5.51-9.03-17.19,2.83-23.19,42.31-.77,5.16-1.25,9.49-1.16,13.74Z"/>
              <path class="cls-1" d="M478.06,330.8c1.52,21.85,13.47,29.32,23.62,22.72,8.13-5.51,15.14-15.69,22.54-39.5,2.47-7.35,3.46-8.86,3.88-5.25.13,1.14-.26,4.5-1.7,8.98-6.58,20.77-12.59,32.93-25.47,41.11-21.78,13.81-45.56,1.57-38.81-44.99,6.93-48.34,46.11-59.78,54.88-47.76,8.79,12.21-15.11,44.94-38.93,64.69ZM478.09,325.95c22.32-19.32,29.15-48.07,24.35-56.05-5.51-9.03-17.19,2.83-23.19,42.31-.77,5.16-1.25,9.49-1.15,13.74Z"/>
              <path class="cls-1" d="M429.94,238.41c-8.94-11.8-41.27-1.8-48.76,45.08-.4,1.61-.97,1.7-2.69,1.96l-1.72.26c-3.25.5-6.42,1.76-7.24,3.05-.83,1.29.17,1.52,7.25.44l.96-.15c2.1-.32,2.51-.19,2.16,3.54l-12.69,83.13c-6.69,43.65-21.73,50.03-27.57,43.18-.22-.26-.42-.52-.61-.79-.82,1.14-1.65,2.19-2.49,3.17.1.13.2.25.3.38,8.15,9.99,38.76,10.51,47.31-47.57l12.5-83.1.19-.03c.62-4.75.99-5,3.47-5.38l1.72-.26c3.25-.5,6.42-1.76,7.24-3.05.83-1.29-.17-1.52-7.25-.44l-.96.15c-2.29.35-2.7.22-2.18-3.73,6.67-35.32,21.63-45.75,27.99-37.82,5.46,6.91.15,14.9-9.38,15-6.42.02-10.88,8.65-5.39,14.2,4.39,4.36,12.63,1.55,17.1-5.34,5.46-8.4,6.01-18.94.74-25.88Z"/>
              <path class="cls-1" d="M398.57,243.23c-8.94-11.8-41.27-1.8-48.76,45.08-.4,1.61-.97,1.7-2.69,1.96l-1.72.26c-3.25.5-6.42,1.76-7.24,3.05-.83,1.29.17,1.52,7.25.44l.96-.15c2.1-.32,2.51-.19,2.16,3.54l-1.37,9s-.07-.03-.11-.04l-11.28,73.88c-6.68,43.56-21.68,49.93-27.51,43.09-5.15-5.98-1.5-14.85,8.26-14.42,5.88.45,10.35-7.97,5.08-13.35-4.38-4.35-11.61-1.31-15.9,5.34-5.14,7.75-5.85,18.49-.23,25.17,8.13,9.97,38.68,10.49,47.21-47.47l8.28-55.06s.09.05.14.07l4.19-27.83.19-.03c.62-4.75.99-5,3.47-5.38l1.72-.26c.62-.09,1.23-.22,1.83-.36-3.18.32-3.58-.05-2.96-1.01.67-1.04,2.87-2.07,5.41-2.69-1.08.11-2.49.3-4.29.58l-.96.15c-2.29.35-2.7.22-2.18-3.73,6.67-35.32,21.63-45.75,27.99-37.82.38.49.71.98.99,1.47.85-1,1.71-1.93,2.58-2.81-.16-.23-.32-.46-.49-.69Z"/>
            </g>
            <path class="cls-1" d="M324.99,92.61c-1.78-1.19-3.82-1.81-5.93-2.18-4.9-.84-9.82-.35-14.73.51-10.34,1.82-20.52,4.44-30.57,7.65-10.81,3.46-21.39,7.6-31.73,12.41-15.17,7.05-29.66,15.32-43.31,25.13-9.84,7.07-19.15,14.78-27.6,23.48-18.12,18.65-17.62,18.63-25.04,28.43,0,0,0,0,0,0,0,0,0,0,0,0-.41-.43-.78-.87-1.15-1.31,0,0,0,.02-.01.03-5.32-6.28-6.73-14.22-5.77-23.57,3.16-29.29,26.11-37.37,33.81-33.27,9.76,5.22,2.05,20.08-15.7,18.73,0,0-4,.85-4.81,2.18-1,1.83.35,3.07,4.49,3.39,17.75,1.35,36.11-19.47,19.44-28.19-12.32-6.51-51.8,2.44-58.34,40.16-2.8,15.55,2.47,30.1,13.27,40.2-21.91,29.77-34.19,59.49-27.99,82.06,11.11,40.29,77.03,20.09,86-38.65,4.2-26.56-9.05-45.41-30.77-54.07-2.5-.82-4.8-1.9-6.65-3.3.14-.15.28-.3.42-.44,0,0-.01,0-.02-.01,10.98-12.33,12.22-13.66,18.09-19.17,10.15-9.53,19.49-16.54,30.19-23.53,11.82-7.72,24.15-14.5,36.96-20.35,11-5.02,22.24-9.29,33.85-12.49,8.27-2.28,16.63-3.91,25.12-4.59,9.25-.74,18.37-.26,27.17,2.51.65.2,1.04.12,1.36-.52,1.72-3.4,3.39-6.83,3.95-10.61.65-4.33-.22-8.09-3.99-10.62ZM167.88,250.21c-1.73,52.35-47.66,66.12-57.93,33.14-5.79-19.03,6.25-46.56,26.41-72.7,3.64,2.32,7.52,4.61,11.79,6.11,16.13,6.16,20.32,17.52,19.73,33.45Z"/>
            <path class="cls-1" d="M295.66,226.99c8.67,2.03,19.14-3.42,29.06-15.74,5.91-7.39,7.93-8.66,6.73-4.39-.34,1.25-2.3,5.15-6.11,9.82-8.87,10.96-21.55,16.03-31.73,13.51-6.82,9.93-14.25,18.75-22.29,26.46-16.29,15.7-29.35,17.47-30.21-9.04-4.41,5.72-9.11,11-14.1,15.85-20.2,19.42-35.32,17.91-28.64-33.28,1.37-11.25,4.31-34.02,6.82-52.17,4.34-31.63,13.06-31.29,22.89-27.52,1.77.69,3.06,1.45,3.06,1.45-1.01,5.92-7.31,45.76-12.99,91.04-2.81,21.79.22,23.01,7.42,16.38,8.07-7.48,12.66-22.11,18.78-50.88,1.16-8.82,2.37-19.32,4-30.38,4.32-31.86,13.03-31.52,22.87-27.75,1.79.92,3.06,1.45,3.06,1.45-.98,6.15-6.14,39.1-11.82,84.38-2.81,21.79.22,23.01,7.42,16.38,5.44-5.16,10.26-13.58,14.73-27.22-2.67-2.23-4.76-5.75-6.43-9.81-7.87-20.39-1.76-70.29,16.65-77.92,18.21-7.36,26.56,4.56,22.44,31.83-3.44,22.61-11.19,41.32-21.63,57.56ZM286.45,220.24c2.64-8.57,5.09-18.78,7.74-31.43,7.07-35.17,5.41-47.63-.35-45.31-10.87,4.07-17.98,53.64-11.01,70.33,1.01,2.49,2.22,4.7,3.62,6.4Z"/>
            <path class="cls-1" d="M343.57,220.11c3.85,23.17,18.91,30.46,30.79,22.63,10.1-6.59,18.78-19.21,27.95-48.69,2.82-9.07,4.29-10.98,4.8-6.5.13,1.18-.33,5.57-2.1,11.12-8.39,25.77-15.59,40.8-31.55,50.93-26.98,17.1-58.8,2.31-50.45-55.37,8.69-61.1,57.38-76.01,71.07-57.48,13.19,18.37-19.58,64.93-50.51,83.36ZM342.98,214.92c24.08-17.14,38.67-58.26,30.05-72.54-9.5-15.58-21.44.17-29.03,49.82-1.43,8.62-1.54,16.08-1.02,22.72Z"/>
            <path class="cls-1" d="M415.98,203.94c1.89,27.07,16.69,36.32,29.25,28.15,10.07-6.83,18.75-19.44,27.92-48.93,3.06-9.11,4.29-10.98,4.8-6.5.16,1.42-.33,5.57-2.1,11.12-8.15,25.73-15.59,40.8-31.55,50.93-26.98,17.1-56.43,1.95-48.08-55.74,8.59-59.88,57.12-74.05,67.98-59.16,10.89,15.13-18.71,55.68-48.23,80.13ZM416.02,197.94c27.64-23.93,36.11-59.55,30.16-69.43-6.82-11.19-21.3,3.51-28.73,52.41-.96,6.39-1.55,11.76-1.43,17.02Z"/>
            <path class="cls-1" d="M478.15,119.27c1.18-.18,2.34-.6,2.86-2.36,3.05-23.99,2.81-32.35,2.81-32.35,0,0,.71-.11,1.63-.49,14.92-4.45,20.92,3.75,17.93,28.21-.15,2.9.82,2.99,3.19,2.63l1.18-.18c8.77-1.35,10.01-1.06,8.98.54-1.02,1.6-4.94,3.16-8.97,3.78l-2.13.33c-2.37.36-3.29.75-3.73,3.21-2.43,16.69-8.95,60.9-11.41,79.51-2.81,21.79,5.53,20.99,9.59,12.21,5.08-10.38,7.33-18.17,12.86-37.26,2.82-9.07,4.29-10.98,4.8-6.5.16,1.42-.56,5.61-2.1,11.12-4.8,17.06-6.76,23.12-12.79,35.8-11.58,25.3-38.84,23.01-32.12-27.95,2.94-22.77,5.98-38.36,8.67-59.17l.49-4.16c-.06-2.63-.8-2.76-2.69-2.47l-1.18.18c-8.77,1.35-10.01,1.06-8.98-.54,1.02-1.6,4.94-3.16,8.97-3.78l2.13-.33Z"/>
            <path class="cls-1" d="M118.37,361.26c-13.07,3.17-22.17,17.16-24.26,31.24-2.53,17.05,6.95,38.65,35.12,31.42,25.69-6.85,29.27-36.85,26.83-58.18-24.76,4.77-36.06,14.84-31.21,26.69,4.24,9.81,22.37,8.38,18.44-7.29,0,0,0-1.74.53-2.21.72-.5,2.1-.32,2.49,1.36,4.17,16.02-16.27,24.59-24.36,9.94-5.64-10.18-1.22-34.49,42.75-43.18,20.38-3.91,25.59-12.84,23.55-20.47-2.9-10.02-14.1-9.27-19,4.08,0,0-1,1.51-1.76,1.63-.98-.04-1.51-1.32-.92-2.96,4.92-13.16,20.75-17.72,24.63-4.17,3.44,13.03-3.18,26.64-22.45,33.48,2.19,24.27-10.52,57.8-41.86,66.3-37.18,10.17-52.29-11.34-49.24-32.35,2.54-18.6,16.82-29.9,29.99-35.61-14.53-2.81-23.34-15.21-20.43-32.32,5.05-29.06,42.45-44.11,60.48-34.48,20.48,10.61,5.36,41.8-16.88,41.34-3.32-.07-4.4-1.07-3.77-2.33.63-1.26,3.84-2.14,3.84-2.14,22.24.46,28.76-25.92,14.05-33.74-14.31-7.68-36.85,4.5-40.49,28.89-2.7,17.27,5.14,31.37,21.4,28.87,3.06-.47,6.77,3.03-2.13,5.17-1.89.48-3.61.75-5.33,1.01Z"/>
            <path class="cls-1" d="M281.66,293.16c-4.66,6.92-12.9,9.73-17.29,5.37-5.5-5.55-1.04-14.18,5.38-14.2,9.52-.11,15.19-11.83,9.03-18.05-9.49-9.78-33.35,11.32-42.05,68.07-6.67,43.84,11.07,62.82,22,56.29,8.39-4.97,15.93-15.62,23.33-39.43,2.28-7.32,3.46-8.86,3.88-5.25.13,1.14-.27,4.5-1.7,8.98-6.77,20.8-13.12,33.4-26.45,41.07-20.44,11.86-45.81-5.75-38-60.04,9.4-65.96,49.41-83.73,62.26-71.76,6.54,6.16,4.88,20.56-.39,28.93Z"/>
            <path class="cls-1" d="M318.82,291.32c-12.54.96-18.75,18.19-22.43,48.98-4.39,36.52-.73,46.42,6.3,44.95,5.89-1.29,11.07-18.94,14.82-42.38-2.53-1.74-5.11-3.86-7.01-6.87-10.01-14.35-7.47-34.7,7.23-40.63,12.08-4.96,22.68,4.27,17.18,41.34l-.69,4.17c2.93-1.61,6.13-4.24,9.35-8.41,4.96-5.99,6.59-7.02,5.62-3.58-.27,1.01-2.05,4.19-4.93,7.93-3.41,4.21-7.02,6.7-10.78,7.86-6.18,27.69-21.3,43.57-32.35,45.66-10.67,2.03-27.93-5.98-21.88-48.37,4.7-32.11,18.87-52.88,39.75-54.15,6.16-.56,3.11,3.4-.18,3.52ZM318.2,338.69c4.24-29.33,4.49-40.79-1.12-38.77-8.77,3.28-11.87,22.17-3.31,34.03,1.39,1.92,2.73,3.46,4.43,4.74Z"/>
            <path class="cls-1" d="M418.76,339.91c1.52,21.85,13.47,29.32,23.62,22.72,8.13-5.51,15.14-15.69,22.54-39.5,2.47-7.35,3.46-8.86,3.88-5.25.13,1.14-.27,4.5-1.7,8.98-6.58,20.77-12.59,32.93-25.47,41.11-21.78,13.81-45.56,1.57-38.81-44.99,6.93-48.34,46.11-59.78,54.88-47.76,8.79,12.21-15.11,44.94-38.93,64.69ZM418.79,335.06c22.32-19.32,29.15-48.07,24.35-56.05-5.51-9.03-17.19,2.83-23.19,42.31-.77,5.16-1.25,9.49-1.16,13.74Z"/>
            <path class="cls-1" d="M478.06,330.8c1.52,21.85,13.47,29.32,23.62,22.72,8.13-5.51,15.14-15.69,22.54-39.5,2.47-7.35,3.46-8.86,3.88-5.25.13,1.14-.26,4.5-1.7,8.98-6.58,20.77-12.59,32.93-25.47,41.11-21.78,13.81-45.56,1.57-38.81-44.99,6.93-48.34,46.11-59.78,54.88-47.76,8.79,12.21-15.11,44.94-38.93,64.69ZM478.09,325.95c22.32-19.32,29.15-48.07,24.35-56.05-5.51-9.03-17.19,2.83-23.19,42.31-.77,5.16-1.25,9.49-1.15,13.74Z"/>
            <path class="cls-1" d="M429.94,238.41c-8.94-11.8-41.27-1.8-48.76,45.08-.4,1.61-.97,1.7-2.69,1.96l-1.72.26c-3.25.5-6.42,1.76-7.24,3.05-.83,1.29.17,1.52,7.25.44l.96-.15c2.1-.32,2.51-.19,2.16,3.54l-12.69,83.13c-6.69,43.65-21.73,50.03-27.57,43.18-.22-.26-.42-.52-.61-.79-.82,1.14-1.65,2.19-2.49,3.17.1.13.2.25.3.38,8.15,9.99,38.76,10.51,47.31-47.57l12.5-83.1.19-.03c.62-4.75.99-5,3.47-5.38l1.72-.26c3.25-.5,6.42-1.76,7.24-3.05.83-1.29-.17-1.52-7.25-.44l-.96.15c-2.29.35-2.7.22-2.18-3.73,6.67-35.32,21.63-45.75,27.99-37.82,5.46,6.91.15,14.9-9.38,15-6.42.02-10.88,8.65-5.39,14.2,4.39,4.36,12.63,1.55,17.1-5.34,5.46-8.4,6.01-18.94.74-25.88Z"/>
            <path class="cls-1" d="M398.57,243.23c-8.94-11.8-41.27-1.8-48.76,45.08-.4,1.61-.97,1.7-2.69,1.96l-1.72.26c-3.25.5-6.42,1.76-7.24,3.05-.83,1.29.17,1.52,7.25.44l.96-.15c2.1-.32,2.51-.19,2.16,3.54l-1.37,9s-.07-.03-.11-.04l-11.28,73.88c-6.68,43.56-21.68,49.93-27.51,43.09-5.15-5.98-1.5-14.85,8.26-14.42,5.88.45,10.35-7.97,5.08-13.35-4.38-4.35-11.61-1.31-15.9,5.34-5.14,7.75-5.85,18.49-.23,25.17,8.13,9.97,38.68,10.49,47.21-47.47l8.28-55.06s.09.05.14.07l4.19-27.83.19-.03c.62-4.75.99-5,3.47-5.38l1.72-.26c.62-.09,1.23-.22,1.83-.36-3.18.32-3.58-.05-2.96-1.01.67-1.04,2.87-2.07,5.41-2.69-1.08.11-2.49.3-4.29.58l-.96.15c-2.29.35-2.7.22-2.18-3.73,6.67-35.32,21.63-45.75,27.99-37.82.38.49.71.98.99,1.47.85-1,1.71-1.93,2.58-2.81-.16-.23-.32-.46-.49-.69Z"/>
          </g>
          <g>
            <g>
              <path class="cls-3" d="M320.37,88.17c-1.78-1.19-3.82-1.81-5.93-2.18-4.9-.84-9.82-.35-14.73.51-10.34,1.82-20.52,4.44-30.57,7.65-10.81,3.46-21.39,7.6-31.73,12.41-15.17,7.05-29.66,15.32-43.31,25.13-9.84,7.07-19.15,14.78-27.6,23.48-18.12,18.65-17.62,18.63-25.04,28.43,0,0,0,0,0,0,0,0,0,0,0,0-.41-.43-.78-.87-1.15-1.31,0,0,0,.02-.01.03-5.32-6.28-6.73-14.22-5.77-23.57,3.16-29.29,26.11-37.37,33.81-33.27,9.76,5.22,2.05,20.08-15.7,18.73,0,0-4,.85-4.81,2.18-1,1.83.35,3.07,4.49,3.39,17.75,1.35,36.11-19.47,19.44-28.19-12.32-6.51-51.8,2.44-58.34,40.16-2.8,15.55,2.47,30.1,13.27,40.2-21.91,29.77-34.19,59.49-27.99,82.06,11.11,40.29,77.03,20.09,86-38.65,4.2-26.56-9.05-45.41-30.77-54.07-2.5-.82-4.8-1.9-6.65-3.3.14-.15.28-.3.42-.44,0,0-.01,0-.02-.01,10.98-12.33,12.22-13.66,18.09-19.17,10.15-9.53,19.49-16.54,30.19-23.53,11.82-7.72,24.15-14.5,36.96-20.35,11-5.02,22.24-9.29,33.85-12.49,8.27-2.28,16.63-3.91,25.12-4.59,9.25-.74,18.37-.26,27.17,2.51.65.2,1.04.12,1.36-.52,1.72-3.4,3.39-6.83,3.95-10.61.65-4.33-.22-8.09-3.99-10.62ZM163.26,245.78c-1.73,52.35-47.66,66.12-57.93,33.14-5.79-19.03,6.25-46.56,26.41-72.7,3.64,2.32,7.52,4.61,11.79,6.11,16.13,6.16,20.32,17.52,19.73,33.45Z"/>
              <path class="cls-3" d="M291.04,222.55c8.67,2.03,19.14-3.42,29.06-15.74,5.91-7.39,7.93-8.66,6.73-4.39-.34,1.25-2.3,5.15-6.11,9.82-8.87,10.96-21.55,16.03-31.73,13.51-6.82,9.93-14.25,18.75-22.29,26.46-16.29,15.7-29.35,17.47-30.21-9.04-4.41,5.72-9.11,11-14.1,15.85-20.2,19.42-35.32,17.91-28.64-33.28,1.37-11.25,4.31-34.02,6.82-52.17,4.34-31.63,13.06-31.29,22.89-27.52,1.77.69,3.06,1.45,3.06,1.45-1.01,5.92-7.31,45.76-12.99,91.04-2.81,21.79.22,23.01,7.42,16.38,8.07-7.48,12.66-22.11,18.78-50.88,1.16-8.82,2.37-19.32,4-30.38,4.32-31.86,13.03-31.52,22.87-27.75,1.79.92,3.06,1.45,3.06,1.45-.98,6.15-6.14,39.1-11.82,84.38-2.81,21.79.22,23.01,7.42,16.38,5.44-5.16,10.26-13.58,14.73-27.22-2.67-2.23-4.76-5.75-6.43-9.81-7.87-20.39-1.76-70.29,16.65-77.92,18.21-7.36,26.56,4.56,22.44,31.83-3.44,22.61-11.19,41.32-21.63,57.56ZM281.83,215.8c2.64-8.57,5.09-18.78,7.74-31.43,7.07-35.17,5.41-47.63-.35-45.31-10.87,4.07-17.98,53.64-11.01,70.33,1.01,2.49,2.22,4.7,3.62,6.4Z"/>
              <path class="cls-3" d="M338.95,215.67c3.85,23.17,18.91,30.46,30.79,22.63,10.1-6.59,18.78-19.21,27.95-48.69,2.82-9.07,4.29-10.98,4.8-6.5.13,1.18-.33,5.57-2.1,11.12-8.39,25.77-15.59,40.8-31.55,50.93-26.98,17.1-58.8,2.31-50.45-55.37,8.69-61.1,57.38-76.01,71.07-57.48,13.19,18.37-19.58,64.93-50.51,83.36ZM338.36,210.48c24.08-17.14,38.67-58.26,30.05-72.54-9.5-15.58-21.44.17-29.03,49.82-1.43,8.62-1.54,16.08-1.02,22.72Z"/>
              <path class="cls-3" d="M411.36,199.51c1.89,27.07,16.69,36.32,29.25,28.15,10.07-6.83,18.75-19.44,27.92-48.93,3.06-9.11,4.29-10.98,4.8-6.5.16,1.42-.33,5.57-2.1,11.12-8.15,25.73-15.59,40.8-31.55,50.93-26.98,17.1-56.43,1.95-48.08-55.74,8.59-59.88,57.12-74.05,67.98-59.16,10.89,15.13-18.71,55.68-48.23,80.13ZM411.4,193.5c27.64-23.93,36.11-59.55,30.16-69.43-6.82-11.19-21.3,3.51-28.73,52.41-.96,6.39-1.55,11.76-1.43,17.02Z"/>
              <path class="cls-3" d="M473.53,114.84c1.18-.18,2.34-.6,2.86-2.36,3.05-23.99,2.81-32.35,2.81-32.35,0,0,.71-.11,1.63-.49,14.92-4.45,20.92,3.75,17.93,28.21-.15,2.9.82,2.99,3.19,2.63l1.18-.18c8.77-1.35,10.01-1.06,8.98.54-1.02,1.6-4.94,3.16-8.97,3.78l-2.13.33c-2.37.36-3.29.75-3.73,3.21-2.43,16.69-8.95,60.9-11.41,79.51-2.81,21.79,5.53,20.99,9.59,12.21,5.08-10.38,7.33-18.17,12.86-37.26,2.82-9.07,4.29-10.98,4.8-6.5.16,1.42-.56,5.61-2.1,11.12-4.8,17.06-6.76,23.12-12.79,35.8-11.58,25.3-38.84,23.01-32.12-27.95,2.94-22.77,5.98-38.36,8.67-59.17l.49-4.16c-.06-2.63-.8-2.76-2.69-2.47l-1.18.18c-8.77,1.35-10.01,1.06-8.98-.54,1.02-1.6,4.94-3.16,8.97-3.78l2.13-.33Z"/>
              <path class="cls-3" d="M412.75,367.15l-6.06,28.17-5.98.91-7.06-16.67-3.73,18.32-6.05.92-11.07-25.56,6.23-.95,6.98,16.61,3.56-18.21,6.37-.97,6.86,16.54,3.68-18.15,6.27-.95Z"/>
              <path class="cls-3" d="M433.2,364.03l.68,5.99-12.71,1.93.52,4.61,10.61-1.61.63,5.59-10.61,1.61.52,4.61,12.71-1.93.68,5.99-18.55,2.82-3.02-26.78,18.55-2.82Z"/>
              <path class="cls-3" d="M454.35,360.82l.68,5.99-12.71,1.93.52,4.61,10.61-1.61.63,5.59-10.61,1.61.52,4.61,12.71-1.93.68,5.99-18.55,2.82-3.02-26.78,18.55-2.82Z"/>
              <path class="cls-3" d="M472.27,369.06l11.92,14.45-7.58,1.15-7.87-10.06-3.6,5.68.68,6.03-5.84.89-3.02-26.78,5.84-.89,1.33,11.78,7.93-13.19,7.34-1.12-7.12,12.06Z"/>
              <path class="cls-3" d="M113.75,356.82c-13.07,3.17-22.17,17.16-24.26,31.24-2.53,17.05,6.95,38.65,35.12,31.42,25.69-6.85,29.27-36.85,26.83-58.18-24.76,4.77-36.06,14.84-31.21,26.69,4.24,9.81,22.37,8.38,18.44-7.29,0,0,0-1.74.53-2.21.72-.5,2.1-.32,2.49,1.36,4.17,16.02-16.27,24.59-24.36,9.94-5.64-10.18-1.22-34.49,42.75-43.18,20.38-3.91,25.59-12.84,23.55-20.47-2.9-10.02-14.1-9.27-19,4.08,0,0-1,1.51-1.76,1.63-.98-.04-1.51-1.32-.92-2.96,4.92-13.16,20.75-17.72,24.63-4.17,3.44,13.03-3.18,26.64-22.45,33.48,2.19,24.27-10.52,57.8-41.86,66.3-37.18,10.17-52.29-11.34-49.24-32.35,2.54-18.6,16.82-29.9,29.99-35.61-14.53-2.81-23.34-15.21-20.43-32.32,5.05-29.06,42.45-44.11,60.48-34.48,20.48,10.61,5.36,41.8-16.88,41.34-3.32-.07-4.4-1.07-3.77-2.33.63-1.26,3.84-2.14,3.84-2.14,22.24.46,28.76-25.92,14.05-33.74-14.31-7.68-36.85,4.5-40.49,28.89-2.7,17.27,5.14,31.37,21.4,28.87,3.06-.47,6.77,3.03-2.13,5.17-1.89.48-3.61.75-5.33,1.01Z"/>
              <path class="cls-3" d="M277.04,288.72c-4.66,6.92-12.9,9.73-17.29,5.37-5.5-5.55-1.04-14.18,5.38-14.2,9.52-.11,15.19-11.83,9.03-18.05-9.49-9.78-33.35,11.32-42.05,68.07-6.67,43.84,11.07,62.82,22,56.29,8.39-4.97,15.93-15.62,23.33-39.43,2.28-7.32,3.46-8.86,3.88-5.25.13,1.14-.27,4.5-1.7,8.98-6.77,20.8-13.12,33.4-26.45,41.07-20.44,11.86-45.81-5.75-38-60.04,9.4-65.96,49.41-83.73,62.26-71.76,6.54,6.16,4.88,20.56-.39,28.93Z"/>
              <path class="cls-3" d="M314.2,286.89c-12.54.96-18.75,18.19-22.43,48.98-4.39,36.52-.73,46.42,6.3,44.95,5.89-1.29,11.07-18.94,14.82-42.38-2.53-1.74-5.11-3.86-7.01-6.87-10.01-14.35-7.47-34.7,7.23-40.63,12.08-4.96,22.68,4.27,17.18,41.34l-.69,4.17c2.93-1.61,6.13-4.24,9.35-8.41,4.96-5.99,6.59-7.02,5.62-3.58-.27,1.01-2.05,4.19-4.93,7.93-3.41,4.21-7.02,6.7-10.78,7.86-6.18,27.69-21.3,43.57-32.35,45.66-10.67,2.03-27.93-5.98-21.88-48.37,4.7-32.11,18.87-52.88,39.75-54.15,6.16-.56,3.11,3.4-.18,3.52ZM313.58,334.26c4.24-29.33,4.49-40.79-1.12-38.77-8.77,3.28-11.87,22.17-3.31,34.03,1.39,1.92,2.73,3.46,4.43,4.74Z"/>
              <path class="cls-3" d="M414.14,335.47c1.52,21.85,13.47,29.32,23.62,22.72,8.13-5.51,15.14-15.69,22.54-39.5,2.47-7.35,3.46-8.86,3.88-5.25.13,1.14-.27,4.5-1.7,8.98-6.58,20.77-12.59,32.93-25.47,41.11-21.78,13.81-45.56,1.57-38.81-44.99,6.93-48.34,46.11-59.78,54.88-47.76,8.79,12.21-15.11,44.94-38.93,64.69ZM414.17,330.62c22.32-19.32,29.15-48.07,24.35-56.05-5.51-9.03-17.19,2.83-23.19,42.31-.77,5.16-1.25,9.49-1.16,13.74Z"/>
              <path class="cls-3" d="M473.44,326.36c1.52,21.85,13.47,29.32,23.62,22.72,8.13-5.51,15.14-15.69,22.54-39.5,2.47-7.35,3.46-8.86,3.88-5.25.13,1.14-.26,4.5-1.7,8.98-6.58,20.77-12.59,32.93-25.47,41.11-21.78,13.81-45.56,1.57-38.81-44.99,6.93-48.34,46.11-59.78,54.88-47.76,8.79,12.21-15.11,44.94-38.93,64.69ZM473.47,321.51c22.32-19.32,29.15-48.07,24.35-56.05-5.51-9.03-17.19,2.83-23.19,42.31-.77,5.16-1.25,9.49-1.15,13.74Z"/>
              <path class="cls-3" d="M425.32,233.97c-8.94-11.8-41.27-1.8-48.76,45.08-.4,1.61-.97,1.7-2.69,1.96l-1.72.26c-3.25.5-6.42,1.76-7.24,3.05-.83,1.29.17,1.52,7.25.44l.96-.15c2.1-.32,2.51-.19,2.16,3.54l-12.69,83.13c-6.69,43.65-21.73,50.03-27.57,43.18-.22-.26-.42-.52-.61-.79-.82,1.14-1.65,2.19-2.49,3.17.1.13.2.25.3.38,8.15,9.99,38.76,10.51,47.31-47.57l12.5-83.1.19-.03c.62-4.75.99-5,3.47-5.38l1.72-.26c3.25-.5,6.42-1.76,7.24-3.05.83-1.29-.17-1.52-7.25-.44l-.96.15c-2.29.35-2.7.22-2.18-3.73,6.67-35.32,21.63-45.75,27.99-37.82,5.46,6.91.15,14.9-9.38,15-6.42.02-10.88,8.65-5.39,14.2,4.39,4.36,12.63,1.55,17.1-5.34,5.46-8.4,6.01-18.94.74-25.88Z"/>
              <path class="cls-3" d="M393.95,238.79c-8.94-11.8-41.27-1.8-48.76,45.08-.4,1.61-.97,1.7-2.69,1.96l-1.72.26c-3.25.5-6.42,1.76-7.24,3.05-.83,1.29.17,1.52,7.25.44l.96-.15c2.1-.32,2.51-.19,2.16,3.54l-1.37,9s-.07-.03-.11-.04l-11.28,73.88c-6.68,43.56-21.68,49.93-27.51,43.09-5.15-5.98-1.5-14.85,8.26-14.42,5.88.45,10.35-7.97,5.08-13.35-4.38-4.35-11.61-1.31-15.9,5.34-5.14,7.75-5.85,18.49-.23,25.17,8.13,9.97,38.68,10.49,47.21-47.47l8.28-55.06s.09.05.14.07l4.19-27.83.19-.03c.62-4.75.99-5,3.47-5.38l1.72-.26c.62-.09,1.23-.22,1.83-.36-3.18.32-3.58-.05-2.96-1.01.67-1.04,2.87-2.07,5.41-2.69-1.08.11-2.49.3-4.29.58l-.96.15c-2.29.35-2.7.22-2.18-3.73,6.67-35.32,21.63-45.75,27.99-37.82.38.49.71.98.99,1.47.85-1,1.71-1.93,2.58-2.81-.16-.23-.32-.46-.49-.69Z"/>
            </g>
            <path class="cls-3" d="M320.37,88.17c-1.78-1.19-3.82-1.81-5.93-2.18-4.9-.84-9.82-.35-14.73.51-10.34,1.82-20.52,4.44-30.57,7.65-10.81,3.46-21.39,7.6-31.73,12.41-15.17,7.05-29.66,15.32-43.31,25.13-9.84,7.07-19.15,14.78-27.6,23.48-18.12,18.65-17.62,18.63-25.04,28.43,0,0,0,0,0,0,0,0,0,0,0,0-.41-.43-.78-.87-1.15-1.31,0,0,0,.02-.01.03-5.32-6.28-6.73-14.22-5.77-23.57,3.16-29.29,26.11-37.37,33.81-33.27,9.76,5.22,2.05,20.08-15.7,18.73,0,0-4,.85-4.81,2.18-1,1.83.35,3.07,4.49,3.39,17.75,1.35,36.11-19.47,19.44-28.19-12.32-6.51-51.8,2.44-58.34,40.16-2.8,15.55,2.47,30.1,13.27,40.2-21.91,29.77-34.19,59.49-27.99,82.06,11.11,40.29,77.03,20.09,86-38.65,4.2-26.56-9.05-45.41-30.77-54.07-2.5-.82-4.8-1.9-6.65-3.3.14-.15.28-.3.42-.44,0,0-.01,0-.02-.01,10.98-12.33,12.22-13.66,18.09-19.17,10.15-9.53,19.49-16.54,30.19-23.53,11.82-7.72,24.15-14.5,36.96-20.35,11-5.02,22.24-9.29,33.85-12.49,8.27-2.28,16.63-3.91,25.12-4.59,9.25-.74,18.37-.26,27.17,2.51.65.2,1.04.12,1.36-.52,1.72-3.4,3.39-6.83,3.95-10.61.65-4.33-.22-8.09-3.99-10.62ZM163.26,245.78c-1.73,52.35-47.66,66.12-57.93,33.14-5.79-19.03,6.25-46.56,26.41-72.7,3.64,2.32,7.52,4.61,11.79,6.11,16.13,6.16,20.32,17.52,19.73,33.45Z"/>
            <path class="cls-3" d="M291.04,222.55c8.67,2.03,19.14-3.42,29.06-15.74,5.91-7.39,7.93-8.66,6.73-4.39-.34,1.25-2.3,5.15-6.11,9.82-8.87,10.96-21.55,16.03-31.73,13.51-6.82,9.93-14.25,18.75-22.29,26.46-16.29,15.7-29.35,17.47-30.21-9.04-4.41,5.72-9.11,11-14.1,15.85-20.2,19.42-35.32,17.91-28.64-33.28,1.37-11.25,4.31-34.02,6.82-52.17,4.34-31.63,13.06-31.29,22.89-27.52,1.77.69,3.06,1.45,3.06,1.45-1.01,5.92-7.31,45.76-12.99,91.04-2.81,21.79.22,23.01,7.42,16.38,8.07-7.48,12.66-22.11,18.78-50.88,1.16-8.82,2.37-19.32,4-30.38,4.32-31.86,13.03-31.52,22.87-27.75,1.79.92,3.06,1.45,3.06,1.45-.98,6.15-6.14,39.1-11.82,84.38-2.81,21.79.22,23.01,7.42,16.38,5.44-5.16,10.26-13.58,14.73-27.22-2.67-2.23-4.76-5.75-6.43-9.81-7.87-20.39-1.76-70.29,16.65-77.92,18.21-7.36,26.56,4.56,22.44,31.83-3.44,22.61-11.19,41.32-21.63,57.56ZM281.83,215.8c2.64-8.57,5.09-18.78,7.74-31.43,7.07-35.17,5.41-47.63-.35-45.31-10.87,4.07-17.98,53.64-11.01,70.33,1.01,2.49,2.22,4.7,3.62,6.4Z"/>
            <path class="cls-3" d="M338.95,215.67c3.85,23.17,18.91,30.46,30.79,22.63,10.1-6.59,18.78-19.21,27.95-48.69,2.82-9.07,4.29-10.98,4.8-6.5.13,1.18-.33,5.57-2.1,11.12-8.39,25.77-15.59,40.8-31.55,50.93-26.98,17.1-58.8,2.31-50.45-55.37,8.69-61.1,57.38-76.01,71.07-57.48,13.19,18.37-19.58,64.93-50.51,83.36ZM338.36,210.48c24.08-17.14,38.67-58.26,30.05-72.54-9.5-15.58-21.44.17-29.03,49.82-1.43,8.62-1.54,16.08-1.02,22.72Z"/>
            <path class="cls-3" d="M411.36,199.51c1.89,27.07,16.69,36.32,29.25,28.15,10.07-6.83,18.75-19.44,27.92-48.93,3.06-9.11,4.29-10.98,4.8-6.5.16,1.42-.33,5.57-2.1,11.12-8.15,25.73-15.59,40.8-31.55,50.93-26.98,17.1-56.43,1.95-48.08-55.74,8.59-59.88,57.12-74.05,67.98-59.16,10.89,15.13-18.71,55.68-48.23,80.13ZM411.4,193.5c27.64-23.93,36.11-59.55,30.16-69.43-6.82-11.19-21.3,3.51-28.73,52.41-.96,6.39-1.55,11.76-1.43,17.02Z"/>
            <path class="cls-3" d="M473.53,114.84c1.18-.18,2.34-.6,2.86-2.36,3.05-23.99,2.81-32.35,2.81-32.35,0,0,.71-.11,1.63-.49,14.92-4.45,20.92,3.75,17.93,28.21-.15,2.9.82,2.99,3.19,2.63l1.18-.18c8.77-1.35,10.01-1.06,8.98.54-1.02,1.6-4.94,3.16-8.97,3.78l-2.13.33c-2.37.36-3.29.75-3.73,3.21-2.43,16.69-8.95,60.9-11.41,79.51-2.81,21.79,5.53,20.99,9.59,12.21,5.08-10.38,7.33-18.17,12.86-37.26,2.82-9.07,4.29-10.98,4.8-6.5.16,1.42-.56,5.61-2.1,11.12-4.8,17.06-6.76,23.12-12.79,35.8-11.58,25.3-38.84,23.01-32.12-27.95,2.94-22.77,5.98-38.36,8.67-59.17l.49-4.16c-.06-2.63-.8-2.76-2.69-2.47l-1.18.18c-8.77,1.35-10.01,1.06-8.98-.54,1.02-1.6,4.94-3.16,8.97-3.78l2.13-.33Z"/>
            <path class="cls-3" d="M113.75,356.82c-13.07,3.17-22.17,17.16-24.26,31.24-2.53,17.05,6.95,38.65,35.12,31.42,25.69-6.85,29.27-36.85,26.83-58.18-24.76,4.77-36.06,14.84-31.21,26.69,4.24,9.81,22.37,8.38,18.44-7.29,0,0,0-1.74.53-2.21.72-.5,2.1-.32,2.49,1.36,4.17,16.02-16.27,24.59-24.36,9.94-5.64-10.18-1.22-34.49,42.75-43.18,20.38-3.91,25.59-12.84,23.55-20.47-2.9-10.02-14.1-9.27-19,4.08,0,0-1,1.51-1.76,1.63-.98-.04-1.51-1.32-.92-2.96,4.92-13.16,20.75-17.72,24.63-4.17,3.44,13.03-3.18,26.64-22.45,33.48,2.19,24.27-10.52,57.8-41.86,66.3-37.18,10.17-52.29-11.34-49.24-32.35,2.54-18.6,16.82-29.9,29.99-35.61-14.53-2.81-23.34-15.21-20.43-32.32,5.05-29.06,42.45-44.11,60.48-34.48,20.48,10.61,5.36,41.8-16.88,41.34-3.32-.07-4.4-1.07-3.77-2.33.63-1.26,3.84-2.14,3.84-2.14,22.24.46,28.76-25.92,14.05-33.74-14.31-7.68-36.85,4.5-40.49,28.89-2.7,17.27,5.14,31.37,21.4,28.87,3.06-.47,6.77,3.03-2.13,5.17-1.89.48-3.61.75-5.33,1.01Z"/>
            <path class="cls-3" d="M277.04,288.72c-4.66,6.92-12.9,9.73-17.29,5.37-5.5-5.55-1.04-14.18,5.38-14.2,9.52-.11,15.19-11.83,9.03-18.05-9.49-9.78-33.35,11.32-42.05,68.07-6.67,43.84,11.07,62.82,22,56.29,8.39-4.97,15.93-15.62,23.33-39.43,2.28-7.32,3.46-8.86,3.88-5.25.13,1.14-.27,4.5-1.7,8.98-6.77,20.8-13.12,33.4-26.45,41.07-20.44,11.86-45.81-5.75-38-60.04,9.4-65.96,49.41-83.73,62.26-71.76,6.54,6.16,4.88,20.56-.39,28.93Z"/>
            <path class="cls-3" d="M314.2,286.89c-12.54.96-18.75,18.19-22.43,48.98-4.39,36.52-.73,46.42,6.3,44.95,5.89-1.29,11.07-18.94,14.82-42.38-2.53-1.74-5.11-3.86-7.01-6.87-10.01-14.35-7.47-34.7,7.23-40.63,12.08-4.96,22.68,4.27,17.18,41.34l-.69,4.17c2.93-1.61,6.13-4.24,9.35-8.41,4.96-5.99,6.59-7.02,5.62-3.58-.27,1.01-2.05,4.19-4.93,7.93-3.41,4.21-7.02,6.7-10.78,7.86-6.18,27.69-21.3,43.57-32.35,45.66-10.67,2.03-27.93-5.98-21.88-48.37,4.7-32.11,18.87-52.88,39.75-54.15,6.16-.56,3.11,3.4-.18,3.52ZM313.58,334.26c4.24-29.33,4.49-40.79-1.12-38.77-8.77,3.28-11.87,22.17-3.31,34.03,1.39,1.92,2.73,3.46,4.43,4.74Z"/>
            <path class="cls-3" d="M414.14,335.47c1.52,21.85,13.47,29.32,23.62,22.72,8.13-5.51,15.14-15.69,22.54-39.5,2.47-7.35,3.46-8.86,3.88-5.25.13,1.14-.27,4.5-1.7,8.98-6.58,20.77-12.59,32.93-25.47,41.11-21.78,13.81-45.56,1.57-38.81-44.99,6.93-48.34,46.11-59.78,54.88-47.76,8.79,12.21-15.11,44.94-38.93,64.69ZM414.17,330.62c22.32-19.32,29.15-48.07,24.35-56.05-5.51-9.03-17.19,2.83-23.19,42.31-.77,5.16-1.25,9.49-1.16,13.74Z"/>
            <path class="cls-3" d="M473.44,326.36c1.52,21.85,13.47,29.32,23.62,22.72,8.13-5.51,15.14-15.69,22.54-39.5,2.47-7.35,3.46-8.86,3.88-5.25.13,1.14-.26,4.5-1.7,8.98-6.58,20.77-12.59,32.93-25.47,41.11-21.78,13.81-45.56,1.57-38.81-44.99,6.93-48.34,46.11-59.78,54.88-47.76,8.79,12.21-15.11,44.94-38.93,64.69ZM473.47,321.51c22.32-19.32,29.15-48.07,24.35-56.05-5.51-9.03-17.19,2.83-23.19,42.31-.77,5.16-1.25,9.49-1.15,13.74Z"/>
            <path class="cls-3" d="M425.32,233.97c-8.94-11.8-41.27-1.8-48.76,45.08-.4,1.61-.97,1.7-2.69,1.96l-1.72.26c-3.25.5-6.42,1.76-7.24,3.05-.83,1.29.17,1.52,7.25.44l.96-.15c2.1-.32,2.51-.19,2.16,3.54l-12.69,83.13c-6.69,43.65-21.73,50.03-27.57,43.18-.22-.26-.42-.52-.61-.79-.82,1.14-1.65,2.19-2.49,3.17.1.13.2.25.3.38,8.15,9.99,38.76,10.51,47.31-47.57l12.5-83.1.19-.03c.62-4.75.99-5,3.47-5.38l1.72-.26c3.25-.5,6.42-1.76,7.24-3.05.83-1.29-.17-1.52-7.25-.44l-.96.15c-2.29.35-2.7.22-2.18-3.73,6.67-35.32,21.63-45.75,27.99-37.82,5.46,6.91.15,14.9-9.38,15-6.42.02-10.88,8.65-5.39,14.2,4.39,4.36,12.63,1.55,17.1-5.34,5.46-8.4,6.01-18.94.74-25.88Z"/>
            <path class="cls-3" d="M393.95,238.79c-8.94-11.8-41.27-1.8-48.76,45.08-.4,1.61-.97,1.7-2.69,1.96l-1.72.26c-3.25.5-6.42,1.76-7.24,3.05-.83,1.29.17,1.52,7.25.44l.96-.15c2.1-.32,2.51-.19,2.16,3.54l-1.37,9s-.07-.03-.11-.04l-11.28,73.88c-6.68,43.56-21.68,49.93-27.51,43.09-5.15-5.98-1.5-14.85,8.26-14.42,5.88.45,10.35-7.97,5.08-13.35-4.38-4.35-11.61-1.31-15.9,5.34-5.14,7.75-5.85,18.49-.23,25.17,8.13,9.97,38.68,10.49,47.21-47.47l8.28-55.06s.09.05.14.07l4.19-27.83.19-.03c.62-4.75.99-5,3.47-5.38l1.72-.26c.62-.09,1.23-.22,1.83-.36-3.18.32-3.58-.05-2.96-1.01.67-1.04,2.87-2.07,5.41-2.69-1.08.11-2.49.3-4.29.58l-.96.15c-2.29.35-2.7.22-2.18-3.73,6.67-35.32,21.63-45.75,27.99-37.82.38.49.71.98.99,1.47.85-1,1.71-1.93,2.58-2.81-.16-.23-.32-.46-.49-.69Z"/>
          </g>
        </g>
      </g>
    </g>
  </g>
</svg>